<svg id="Layer_1" data-name="Layer 1" xmlns="http://www.w3.org/2000/svg" xmlns:xlink="http://www.w3.org/1999/xlink" viewBox="0 0 361.51 523.05"><defs><style>.cls-1,.cls-10,.cls-11,.cls-12,.cls-13,.cls-14,.cls-15,.cls-16,.cls-17,.cls-18,.cls-19,.cls-2,.cls-20,.cls-21,.cls-22,.cls-23,.cls-24,.cls-25,.cls-26,.cls-27,.cls-28,.cls-29,.cls-3,.cls-30,.cls-31,.cls-32,.cls-33,.cls-34,.cls-35,.cls-36,.cls-37,.cls-38,.cls-39,.cls-4,.cls-40,.cls-41,.cls-42,.cls-43,.cls-44,.cls-45,.cls-46,.cls-47,.cls-48,.cls-49,.cls-5,.cls-50,.cls-51,.cls-52,.cls-53,.cls-54,.cls-55,.cls-56,.cls-57,.cls-58,.cls-59,.cls-6,.cls-60,.cls-61,.cls-62,.cls-63,.cls-64,.cls-65,.cls-66,.cls-67,.cls-68,.cls-69,.cls-7,.cls-70,.cls-71,.cls-72,.cls-73,.cls-74,.cls-75,.cls-76,.cls-77,.cls-78,.cls-79,.cls-8,.cls-80,.cls-81,.cls-82,.cls-83,.cls-84,.cls-85,.cls-86,.cls-87,.cls-88,.cls-9,.cls-92,.cls-93{fill-rule:evenodd;}.cls-1{fill:url(#GradientFill_1);}.cls-2{fill:url(#GradientFill_1-2);}.cls-3{fill:url(#GradientFill_1-3);}.cls-4{fill:url(#GradientFill_1-4);}.cls-6{fill:url(#GradientFill_1-5);}.cls-7{fill:url(#GradientFill_1-6);}.cls-8{fill:url(#GradientFill_1-7);}.cls-9{fill:url(#GradientFill_1-8);}.cls-10{fill:url(#GradientFill_1-9);}.cls-11{fill:url(#GradientFill_1-10);}.cls-12{fill:url(#GradientFill_1-11);}.cls-13{fill:url(#GradientFill_1-12);}.cls-14{fill:url(#GradientFill_1-13);}.cls-15{fill:url(#GradientFill_1-14);}.cls-16{fill:url(#GradientFill_1-15);}.cls-17{fill:url(#GradientFill_1-16);}.cls-18{fill:url(#GradientFill_1-17);}.cls-19{fill:url(#GradientFill_1-18);}.cls-20{fill:url(#GradientFill_1-19);}.cls-21{fill:url(#GradientFill_1-20);}.cls-22{fill:url(#GradientFill_1-21);}.cls-23{fill:url(#GradientFill_1-22);}.cls-24{fill:url(#GradientFill_1-23);}.cls-25{fill:url(#GradientFill_1-24);}.cls-26{fill:#fff;}.cls-27{fill:url(#GradientFill_1-25);}.cls-28{fill:url(#GradientFill_1-26);}.cls-29{fill:url(#GradientFill_1-27);}.cls-30{fill:url(#GradientFill_1-28);}.cls-31{fill:url(#GradientFill_1-29);}.cls-32{fill:url(#GradientFill_1-30);}.cls-33{fill:url(#GradientFill_1-31);}.cls-34{fill:url(#GradientFill_1-32);}.cls-35{fill:url(#GradientFill_1-33);}.cls-36{fill:url(#GradientFill_1-34);}.cls-37{fill:url(#GradientFill_1-35);}.cls-38{fill:url(#GradientFill_1-36);}.cls-39{fill:url(#GradientFill_1-37);}.cls-40{fill:url(#GradientFill_1-38);}.cls-41{fill:url(#GradientFill_1-39);}.cls-42{fill:url(#GradientFill_1-40);}.cls-43{fill:url(#GradientFill_1-41);}.cls-44{fill:url(#GradientFill_1-42);}.cls-45{fill:url(#GradientFill_1-43);}.cls-46{fill:url(#GradientFill_1-44);}.cls-47{fill:url(#GradientFill_1-45);}.cls-48{fill:url(#GradientFill_1-46);}.cls-49{fill:url(#GradientFill_1-47);}.cls-50{fill:url(#GradientFill_1-48);}.cls-51{fill:url(#GradientFill_1-49);}.cls-52{fill:url(#GradientFill_1-50);}.cls-53{fill:url(#GradientFill_1-51);}.cls-54{fill:url(#GradientFill_1-52);}.cls-55{fill:url(#GradientFill_1-53);}.cls-56{fill:url(#GradientFill_1-54);}.cls-57{fill:url(#GradientFill_1-55);}.cls-58{fill:url(#GradientFill_1-56);}.cls-59{fill:url(#GradientFill_1-57);}.cls-60{fill:url(#GradientFill_1-58);}.cls-61{fill:url(#GradientFill_1-59);}.cls-62{fill:url(#GradientFill_1-60);}.cls-63{fill:url(#GradientFill_1-61);}.cls-64{fill:url(#GradientFill_1-62);}.cls-65{fill:url(#GradientFill_1-63);}.cls-66{fill:url(#GradientFill_1-64);}.cls-67{fill:url(#GradientFill_1-65);}.cls-68{fill:url(#GradientFill_1-66);}.cls-69{fill:url(#GradientFill_1-67);}.cls-70{fill:url(#GradientFill_1-68);}.cls-71{fill:url(#GradientFill_1-69);}.cls-72{fill:url(#GradientFill_1-70);}.cls-73{fill:url(#GradientFill_1-71);}.cls-74{fill:url(#GradientFill_1-72);}.cls-75{fill:url(#GradientFill_1-73);}.cls-76{fill:url(#GradientFill_1-74);}.cls-77{fill:url(#GradientFill_1-75);}.cls-78{fill:url(#GradientFill_1-76);}.cls-79{fill:url(#GradientFill_1-77);}.cls-80{fill:url(#GradientFill_1-78);}.cls-81{fill:url(#GradientFill_1-79);}.cls-82{fill:url(#GradientFill_1-80);}.cls-83{fill:url(#GradientFill_1-81);}.cls-84{fill:url(#GradientFill_1-82);}.cls-85{fill:url(#GradientFill_1-83);}.cls-86{fill:url(#GradientFill_1-84);}.cls-87{fill:url(#GradientFill_1-85);}.cls-88{fill:url(#GradientFill_1-86);}.cls-89{fill:url(#GradientFill_1-87);}.cls-90{fill:url(#GradientFill_1-88);}.cls-91{fill:url(#GradientFill_1-89);}.cls-92{fill:#1f74a4;}.cls-93{fill:#5f5d5d;}</style><radialGradient id="GradientFill_1" cx="761.73" cy="774.54" r="29.16" gradientUnits="userSpaceOnUse"><stop offset="0" stop-color="#f7941d"/><stop offset="1" stop-color="#f48120"/></radialGradient><radialGradient id="GradientFill_1-2" cx="1077.56" cy="722.1" r="6.83" xlink:href="#GradientFill_1"/><radialGradient id="GradientFill_1-3" cx="915.61" cy="465.32" r="125.91" xlink:href="#GradientFill_1"/><radialGradient id="GradientFill_1-4" cx="997.66" cy="716.4" r="22.65" xlink:href="#GradientFill_1"/><radialGradient id="GradientFill_1-5" cx="1038.33" cy="709.06" r="21.11" xlink:href="#GradientFill_1"/><radialGradient id="GradientFill_1-6" cx="816.95" cy="764.03" r="18.4" xlink:href="#GradientFill_1"/><radialGradient id="GradientFill_1-7" cx="944.47" cy="733.3" r="17.88" xlink:href="#GradientFill_1"/><radialGradient id="GradientFill_1-8" cx="867.78" cy="748.59" r="21.53" xlink:href="#GradientFill_1"/><radialGradient id="GradientFill_1-9" cx="976.68" cy="715.54" r="20.05" xlink:href="#GradientFill_1"/><radialGradient id="GradientFill_1-10" cx="799.66" cy="764.62" r="18.74" xlink:href="#GradientFill_1"/><radialGradient id="GradientFill_1-11" cx="928.06" cy="733.92" r="18.1" xlink:href="#GradientFill_1"/><radialGradient id="GradientFill_1-12" cx="760.62" cy="749.66" r="23.14" xlink:href="#GradientFill_1"/><radialGradient id="GradientFill_1-13" cx="850.77" cy="748.89" r="20.79" xlink:href="#GradientFill_1"/><radialGradient id="GradientFill_1-14" cx="910.13" cy="737.08" r="20.11" xlink:href="#GradientFill_1"/><radialGradient id="GradientFill_1-15" cx="894.47" cy="736.81" r="21.59" xlink:href="#GradientFill_1"/><radialGradient id="GradientFill_1-16" cx="884.43" cy="729.48" r="18.72" xlink:href="#GradientFill_1"/><radialGradient id="GradientFill_1-17" cx="1020.35" cy="708.72" r="19.36" xlink:href="#GradientFill_1"/><radialGradient id="GradientFill_1-18" cx="1052.29" cy="704.59" r="16.65" xlink:href="#GradientFill_1"/><radialGradient id="GradientFill_1-19" cx="1006.34" cy="693.51" r="8.55" xlink:href="#GradientFill_1"/><radialGradient id="GradientFill_1-20" cx="830.94" cy="778.3" r="6.17" xlink:href="#GradientFill_1"/><radialGradient id="GradientFill_1-21" cx="832.47" cy="783.22" r="6.21" xlink:href="#GradientFill_1"/><radialGradient id="GradientFill_1-22" cx="958.87" cy="752.96" r="6.08" xlink:href="#GradientFill_1"/><radialGradient id="GradientFill_1-23" cx="1074.56" cy="717.28" r="5.84" xlink:href="#GradientFill_1"/><radialGradient id="GradientFill_1-24" cx="957.5" cy="748.13" r="5.87" xlink:href="#GradientFill_1"/><radialGradient id="GradientFill_1-25" cx="874.78" cy="559.56" r="29" xlink:href="#GradientFill_1"/><radialGradient id="GradientFill_1-26" cx="957.37" cy="556.12" r="23.38" xlink:href="#GradientFill_1"/><radialGradient id="GradientFill_1-27" cx="940.71" cy="450.85" r="16.22" xlink:href="#GradientFill_1"/><radialGradient id="GradientFill_1-28" cx="968.67" cy="530.93" r="12.14" xlink:href="#GradientFill_1"/><radialGradient id="GradientFill_1-29" cx="908.42" cy="459.34" r="8.55" xlink:href="#GradientFill_1"/><radialGradient id="GradientFill_1-30" cx="931.99" cy="486.04" r="10.91" xlink:href="#GradientFill_1"/><radialGradient id="GradientFill_1-31" cx="882.32" cy="460.72" r="7.98" xlink:href="#GradientFill_1"/><radialGradient id="GradientFill_1-32" cx="942.74" cy="474.62" r="8.44" xlink:href="#GradientFill_1"/><radialGradient id="GradientFill_1-33" cx="908.88" cy="475.41" r="7.59" xlink:href="#GradientFill_1"/><radialGradient id="GradientFill_1-34" cx="954.14" cy="547.17" r="6.24" xlink:href="#GradientFill_1"/><radialGradient id="GradientFill_1-35" cx="939.53" cy="461.41" r="5.91" xlink:href="#GradientFill_1"/><radialGradient id="GradientFill_1-36" cx="966.88" cy="500.52" r="7.56" xlink:href="#GradientFill_1"/><radialGradient id="GradientFill_1-37" cx="919.22" cy="498.35" r="4.93" xlink:href="#GradientFill_1"/><radialGradient id="GradientFill_1-38" cx="912.5" cy="499.44" r="2.63" xlink:href="#GradientFill_1"/><radialGradient id="GradientFill_1-39" cx="942.45" cy="495.28" r="2.45" xlink:href="#GradientFill_1"/><radialGradient id="GradientFill_1-40" cx="941.38" cy="541.33" r="2.23" xlink:href="#GradientFill_1"/><radialGradient id="GradientFill_1-41" cx="926.5" cy="497.19" r="2.99" xlink:href="#GradientFill_1"/><radialGradient id="GradientFill_1-42" cx="931.66" cy="497.6" r="1.69" xlink:href="#GradientFill_1"/><radialGradient id="GradientFill_1-43" cx="945.85" cy="500.22" r="1.42" xlink:href="#GradientFill_1"/><radialGradient id="GradientFill_1-44" cx="974.14" cy="403.38" r="17.41" xlink:href="#GradientFill_1"/><radialGradient id="GradientFill_1-45" cx="986.63" cy="412.33" r="16.59" xlink:href="#GradientFill_1"/><radialGradient id="GradientFill_1-46" cx="998.45" cy="424.47" r="15.38" xlink:href="#GradientFill_1"/><radialGradient id="GradientFill_1-47" cx="1006.93" cy="436.05" r="14.1" xlink:href="#GradientFill_1"/><radialGradient id="GradientFill_1-48" cx="1017.3" cy="458.62" r="11.37" xlink:href="#GradientFill_1"/><radialGradient id="GradientFill_1-49" cx="1012.73" cy="446.43" r="12.88" xlink:href="#GradientFill_1"/><radialGradient id="GradientFill_1-50" cx="948.94" cy="404.68" r="9.57" xlink:href="#GradientFill_1"/><radialGradient id="GradientFill_1-51" cx="962.48" cy="410.21" r="9.49" xlink:href="#GradientFill_1"/><radialGradient id="GradientFill_1-52" cx="1020.68" cy="469.25" r="9.99" xlink:href="#GradientFill_1"/><radialGradient id="GradientFill_1-53" cx="975.8" cy="417.76" r="9.28" xlink:href="#GradientFill_1"/><radialGradient id="GradientFill_1-54" cx="986.97" cy="426.45" r="9.05" xlink:href="#GradientFill_1"/><radialGradient id="GradientFill_1-55" cx="1022.52" cy="480.78" r="8.76" xlink:href="#GradientFill_1"/><radialGradient id="GradientFill_1-56" cx="996.71" cy="436.27" r="8.45" xlink:href="#GradientFill_1"/><radialGradient id="GradientFill_1-57" cx="1003.99" cy="446.2" r="7.91" xlink:href="#GradientFill_1"/><radialGradient id="GradientFill_1-58" cx="1022.63" cy="491.69" r="7.05" xlink:href="#GradientFill_1"/><radialGradient id="GradientFill_1-59" cx="1009.95" cy="455.88" r="7.58" xlink:href="#GradientFill_1"/><radialGradient id="GradientFill_1-60" cx="1015.37" cy="465.91" r="7.54" xlink:href="#GradientFill_1"/><radialGradient id="GradientFill_1-61" cx="1022.77" cy="502" r="5.73" xlink:href="#GradientFill_1"/><radialGradient id="GradientFill_1-62" cx="1020.36" cy="486.91" r="6.19" xlink:href="#GradientFill_1"/><radialGradient id="GradientFill_1-63" cx="1018.64" cy="476.93" r="6.86" xlink:href="#GradientFill_1"/><radialGradient id="GradientFill_1-64" cx="1021.32" cy="497.12" r="5.38" xlink:href="#GradientFill_1"/><radialGradient id="GradientFill_1-65" cx="1021.2" cy="506.9" r="4.31" xlink:href="#GradientFill_1"/><radialGradient id="GradientFill_1-66" cx="1018.63" cy="518.95" r="2.95" xlink:href="#GradientFill_1"/><radialGradient id="GradientFill_1-67" cx="1015.87" cy="530.83" r="2.4" xlink:href="#GradientFill_1"/><radialGradient id="GradientFill_1-68" cx="822.6" cy="441.86" r="13.64" xlink:href="#GradientFill_1"/><radialGradient id="GradientFill_1-69" cx="816.89" cy="454.16" r="12.25" xlink:href="#GradientFill_1"/><radialGradient id="GradientFill_1-70" cx="813" cy="466.94" r="10.73" xlink:href="#GradientFill_1"/><radialGradient id="GradientFill_1-71" cx="810.98" cy="478.59" r="9.06" xlink:href="#GradientFill_1"/><radialGradient id="GradientFill_1-72" cx="809.96" cy="488.9" r="7.87" xlink:href="#GradientFill_1"/><radialGradient id="GradientFill_1-73" cx="825.01" cy="452.85" r="7.74" xlink:href="#GradientFill_1"/><radialGradient id="GradientFill_1-74" cx="820.2" cy="464.04" r="7.03" xlink:href="#GradientFill_1"/><radialGradient id="GradientFill_1-75" cx="810.17" cy="501.06" r="6.19" xlink:href="#GradientFill_1"/><radialGradient id="GradientFill_1-76" cx="816.3" cy="474.94" r="6.1" xlink:href="#GradientFill_1"/><radialGradient id="GradientFill_1-77" cx="814.43" cy="485.35" r="5.54" xlink:href="#GradientFill_1"/><radialGradient id="GradientFill_1-78" cx="811.76" cy="511.13" r="4.77" xlink:href="#GradientFill_1"/><radialGradient id="GradientFill_1-79" cx="813.19" cy="495.91" r="4.82" xlink:href="#GradientFill_1"/><radialGradient id="GradientFill_1-80" cx="814.16" cy="521.73" r="3.64" xlink:href="#GradientFill_1"/><radialGradient id="GradientFill_1-81" cx="813.28" cy="505.97" r="3.71" xlink:href="#GradientFill_1"/><radialGradient id="GradientFill_1-82" cx="814.19" cy="515.96" r="3.07" xlink:href="#GradientFill_1"/><radialGradient id="GradientFill_1-83" cx="816.85" cy="526.5" r="2.56" xlink:href="#GradientFill_1"/><radialGradient id="GradientFill_1-84" cx="817.13" cy="530.84" r="2.76" xlink:href="#GradientFill_1"/><radialGradient id="GradientFill_1-85" cx="819.5" cy="534.59" r="1.98" xlink:href="#GradientFill_1"/><radialGradient id="GradientFill_1-86" cx="822.19" cy="541.07" r="1.35" xlink:href="#GradientFill_1"/><radialGradient id="GradientFill_1-87" cx="860.85" cy="302.73" r="22.96" xlink:href="#GradientFill_1"/><radialGradient id="GradientFill_1-88" cx="918.86" cy="303.57" r="26.44" xlink:href="#GradientFill_1"/><radialGradient id="GradientFill_1-89" cx="967.11" cy="302.21" r="20.27" xlink:href="#GradientFill_1"/></defs><path class="cls-1" d="M756.67,801.19a11.29,11.29,0,0,0-2.26-1.92c-5.5-2.56-7.93-7.27-9.16-12.84a14.36,14.36,0,0,1,.11-6.76c.07,1.41.07,2.54.21,3.64a4.25,4.25,0,0,0,1.61,3.22,6.71,6.71,0,0,0,.51-1.22c.16-.94.26-1.9.37-2.85a27.83,27.83,0,0,1,2.79-9.43,7,7,0,0,0,.64-1.62,1.17,1.17,0,0,0-.26-1,1.27,1.27,0,0,0-1,0,3.39,3.39,0,0,0-1,.78,9.61,9.61,0,0,1-1.6,1.4c.6-1.47,1.19-3,1.87-4.62h-1.88a44.64,44.64,0,0,1-10.64-.64,14.18,14.18,0,0,1-4.87-1.88c-.56-.38-1.05-.86-1.83-1.5.8-.3,1.35-.53,1.92-.72,9.69-3.32,19.53-6.11,29.46-8.62,6.58-1.66,13.14-3.4,19.76-4.92,3.45-.8,7-1.22,10.5-1.8a9.23,9.23,0,0,1,1.32,0c-.3.65-.5,1.18-.77,1.67a19.35,19.35,0,0,1-6.12,6.6,57.53,57.53,0,0,1-9.55,5.09l-2.61,1.2a4.9,4.9,0,0,0,.21.69,31.5,31.5,0,0,1,2.33,15.13,32.13,32.13,0,0,1-2.82,11.38,18.8,18.8,0,0,1-4.85,6.65,10.82,10.82,0,0,1-5.82,2.67c-.15-1.57-.34-3-.42-4.49a124.53,124.53,0,0,1,.34-19.6c.27-2.63.87-5.23,1.34-7.84a4.75,4.75,0,0,0-.17-3.07c-1.74-.2-2.52.17-3.13,1.56a8.41,8.41,0,0,0-.63,2.13c-.55,4.21-1.29,8.42-1.52,12.65-.36,6.74-.38,13.49-.54,20.24a2.69,2.69,0,0,0,.11.62Z" transform="translate(-725.05 -278.14)"/><path class="cls-2" d="M1086.55,719.2a23.58,23.58,0,0,0-2.26,1.39,16.85,16.85,0,0,0-1.65,1.72c-3.23,3.45-7.25,3.83-11.56,2.89a3.16,3.16,0,0,1-2.51-2.13c5.31-1.2,10.23-3.57,15.61-4.35.78-.11,1.58-.11,2.37-.16Z" transform="translate(-725.05 -278.14)"/><path class="cls-3" d="M956.91,339.7l38.93-1.21v14c-.65.05-1.42.15-2.18.14a20.34,20.34,0,0,0-6.76.91,9.06,9.06,0,0,0-6.41,9.5l1.68,1q40.38,24.57,53.91,69.86a109.07,109.07,0,0,1,3.75,20.34,144.57,144.57,0,0,1,.62,20.7,116.61,116.61,0,0,1-16.62,56.25A124.27,124.27,0,0,1,977.62,576a128.32,128.32,0,0,1-38.94,14,118.9,118.9,0,0,1-21.53,2.17,122.5,122.5,0,0,1-50.87-10.76c-11.49-5.08-22.27-11.38-31.7-19.7C814.25,543.77,800,522,793.65,495.37a112.42,112.42,0,0,1-2.75-33.72,123.55,123.55,0,0,1,12.17-46.89,126,126,0,0,1,33.78-42.87,2.37,2.37,0,0,0,1-2.14c-.12-3.61-.17-7.23-.25-10.85,0-.36-.06-.71-.11-1.24H830.8c-.09-5.82-.17-11.49-.25-17.32a14.06,14.06,0,0,1,1.44-.16q15.71,0,31.42,0a12.9,12.9,0,0,1,3.15.41,6.19,6.19,0,0,1,5.11,6.11c.1,1.79,0,3.6,0,5.52.46-.11.86-.19,1.24-.32a131.14,131.14,0,0,1,26.31-6.07A141.32,141.32,0,0,1,926,345c7.79.49,15.29,2.38,22.74,4.57,1.92.56,3.83,1.18,5.81,1.8,1.67-1.61,2.1-3.68,2.31-5.79.14-1.32.06-2.66.07-4C956.91,341,956.91,340.45,956.91,339.7Zm61.36,192.64c1.59-1.67,2.46-3.77,3.75-5.9l-8.51-.46c.17-1.05.33-2,.48-2.86,3,.1,5.81.16,8.61.3a1.31,1.31,0,0,0,1.48-.87c1.11-2.47,2.27-4.92,3.39-7.39a4.61,4.61,0,0,0,.19-.88l-12.64.32v-3l14-.59c8.66-21.69,12.48-55,.61-84.88-10.45-26.33-27.51-46.73-52.13-60.81l-9.36,6.87.9.84-17,45.85-3-1.06c5.21-14.34,10.36-28.48,15.61-42.91-.5.3-.72.4-.92.55q-8.69,6.34-17.37,12.71a2.69,2.69,0,0,0-1.07,1.68c-1.34,5.41-2.72,10.81-4.08,16.21-.56,2.21-1.12,4.41-1.69,6.69,1.9.46,1.35,2.23,1.91,3.35,2,.09,2.14.19,2.34,2.08.11,1.09.45,1.82,1.64,1.93a3.57,3.57,0,0,1,.61.19,94.62,94.62,0,0,1,51.53,39.07,89.69,89.69,0,0,1,14.59,44,88.76,88.76,0,0,1-1.24,21.59,100.87,100.87,0,0,1-9.64,28.23c-.22.45-.41.91-.61,1.36a1.68,1.68,0,0,0,.87-.51,128.61,128.61,0,0,0,16.36-20.55,6.82,6.82,0,0,0,.46-1.11Zm-48.86-41.76c0-.67-.1-1.34-.13-2-.08-1.73-.63-2.19-2.19-1.57a14.32,14.32,0,0,1-5.12.9,1.36,1.36,0,0,0-1.46,1.15c-.27,1,0,2.1.72,2.39a12.85,12.85,0,0,0,7.22,1.1l1-2,2.08,4.36c-2.33.5-4.48,1.08-6.56-.35a4.31,4.31,0,0,0-5.07-.09,3.33,3.33,0,0,1-3.34.13c-.34-.16-.64-.39-1-.55-1-.51-1.26-.43-2,.74l2.77,3-2.83,2.84c1.06.26,1.74.49,2.45.59,1.78.26,3.59.41,5.36.72a14.73,14.73,0,0,1,6.77,2.6,10.74,10.74,0,0,1,1.94,1.87c.57.72.32,1.26-.58,1.52a5.46,5.46,0,0,1-4.17-.39c-2.93-1.5-5.88-2.95-8.83-4.42a4.13,4.13,0,0,0-1-.47c-.32-.05-.9,0-1,.17a1.44,1.44,0,0,0,.12,1.11,3.2,3.2,0,0,0,1,.8q4.53,3.12,9.07,6.23a2.67,2.67,0,0,1,1.39,2c.09,1.29-.41,1.78-1.58,1.3a15.24,15.24,0,0,1-3.2-1.74c-1.67-1.22-3.24-2.59-4.85-3.89-.49-.39-1-.74-1.55-1.15-1.19,1.42-.19,3-.74,4.44h-1.67c.17,2.33-1.3,3.66-2.78,5a11.64,11.64,0,0,0-1.64,1.73c-.72,1-.51,1.69.64,2.09a13.75,13.75,0,0,0,2.51.38c.21-1.13.36-2.07.55-3a6.85,6.85,0,0,1,2.32-4.07c.72-.59,1.23-.53,1.72.26,1.13,1.84,1.77,3.87.71,5.89a7.59,7.59,0,0,0-.73,5.94c.3,1.06-.15,1.53-1.25,1.82s-1.71.11-2.08-.88-.67-2.34-1-3.5c-.18-.62-.44-1.22-.66-1.84-1,.36-1.1,1.11-1.22,1.76-.28,1.57-.46,3.16-.71,4.73-.15,1-.14,2.06-.93,2.81-1.62,1.53-3.22,3.09-4.94,4.51a10.56,10.56,0,0,1-6.26,2,3.37,3.37,0,0,1-3.69-2.15,10.47,10.47,0,0,0-1.1-1.93c-.46-.62-1-.65-1.47-.09a8.36,8.36,0,0,0-2.07,4.09l.75.1c1.57.11,2,.34,2.32,1.87a24.29,24.29,0,0,1,.48,4.09,7.07,7.07,0,0,1-1,4,2,2,0,0,1-1.17.9c-.64.1-.88-.56-1-1.08-.21-1.41-.33-2.83-.49-4.25,0-.33-.09-.66-.15-1.08a4.5,4.5,0,0,0-1.86,2.85,26.53,26.53,0,0,1-1.21,3.1,5.94,5.94,0,0,1-1.1,1.23c-.81-.68-.63-1.41-.64-2.07,0-2.55.15-5.11,0-7.65a40.84,40.84,0,0,0-1.07-6.58c-.28-1.24-1.43-1.44-2.3-.5a3.3,3.3,0,0,0-.75,1.52,19,19,0,0,0-.31,3,1.79,1.79,0,0,1-.79,1.63,29,29,0,0,1-2.75,1.6c-.77.37-1.19.19-1.52-.6a5.05,5.05,0,0,1-.38-1.53,7.32,7.32,0,0,1,1.2-4.54,25,25,0,0,0,1.83-3.52,9.65,9.65,0,0,0-1.18-9.82c-1.47-1.95-2.94-3.91-4.47-5.81a6.56,6.56,0,0,1-1.54-5,3.27,3.27,0,0,1,1.26-2.48,14.72,14.72,0,0,1,2.64-1.45c1.05-.45,1.53-.22,2.09.77.15.28.25.59.41.86a2.51,2.51,0,0,0,3.83.67c.46-.36.84-.81,1.28-1.19.73-.63,1-.66,1.54.13a2.5,2.5,0,0,0,2.5,1,7,7,0,0,0,3.28-1.09,6.32,6.32,0,0,1,1.69-.83,5.58,5.58,0,0,0,4.09-3.44c.29-.74.56-1.49.85-2.23.47-1.22,1-1.5,2-.78,1.93,1.4,3.91,2.77,4.55,5.32a2.6,2.6,0,0,0,2.38,2.05,11.48,11.48,0,0,0,4.55-.49V504a2.38,2.38,0,0,1,.73-1.86c1.42-1.31,1.42-1.35.76-3.1-.22-.59-.48-1.17-.73-1.76a7,7,0,0,0-3-3.79,1.85,1.85,0,0,1-.83-2.61c.83-2.16,2.16-3.79,4.68-4,.42,0,.84-.13,1.26-.19,1.18-.18,1.3-.33,1.21-1.56a15.45,15.45,0,0,1-.13-1.91c.07-1.5.52-2.16,2-2.39A3.45,3.45,0,0,0,957,478.5c1.1-2.36,2.23-4.71,3.37-7,.34-.69.54-1.52,1.54-1.82.91,1.86.77,4,1.55,6.15.51-.54.8-.81,1.07-1.12.48-.56.91-1.18,1.43-1.71,1.16-1.19,1.74-1,2.2.66,0,.08.14.13.35.32.42-.66.83-1.31,1.24-1.94a6.3,6.3,0,0,1-.81-1.48c-.2-.94-.81-1.24-1.64-1.45a2.36,2.36,0,0,1-1.81-2.75,20.07,20.07,0,0,1,1-4.62c.82-2,1.48-4.09,2.16-6.16a10.13,10.13,0,0,0,.51-2.16,1.29,1.29,0,0,0-2-1.3,5.78,5.78,0,0,0-1.29,1.36,23.56,23.56,0,0,1-1.68,2.11c-.82.79-1.47.56-1.65-.57-.23-1.41-.27-2.85-.45-4.27a4.89,4.89,0,0,0-.46-1.64c-.57-1.11-.59-1.17.24-2.24a2.62,2.62,0,0,0,.67-1.21,6.4,6.4,0,0,0-.49-3.37c-1.19-.12-2,1.74-3.27.42a19.05,19.05,0,0,0-.43-2.4c-.41-1.4-1-1.63-2.52-1,0,.63-.09,1.27-.15,2.25l-.94-1.26c-.19.21-.35.38-.52.58l-1.2-1.4-.66,1.79c-.55-.23-1-.6-1.4-.55-.95.1-1.46-.52-2.07-1a11,11,0,0,1-3.28-5.36c-1-2.85-2-5.69-3.09-8.53a13.19,13.19,0,0,0-.7-1.33c0,1.43.05,2.49,0,3.54s.32,2.05-.56,3.12a14.07,14.07,0,0,0-.18-2.59,1.69,1.69,0,0,0-1.82-1.39c-.1.92-.19,1.8-.31,2.68-.17,1.21-.62,1.45-1.72,1a1.43,1.43,0,0,1-1-1.33c0-.5-.1-1-.15-1.51-.7,1.65-1.16,1.89-2.62,1a7.15,7.15,0,0,0-2.66-.67c-.18.77-.15,1.58-.54,2a6.57,6.57,0,0,1-2,1c.12.53.29,1.08.38,1.63a23.23,23.23,0,0,1,.39,3,1.53,1.53,0,0,1-.6,1.14c-.21.13-.8-.16-1.1-.41-.77-.63-1.48-1.34-2.2-2-.33.65-.63,1.21-1,1.81-1.52-.63-2.34-1.78-3.35-2.7a5.32,5.32,0,0,1-2-4c0-1.85-.1-3.75,1.58-5.1a4.6,4.6,0,0,0,.67-.89c-1.21-1.51-2.4-2.94-3.52-4.43a2,2,0,0,0-1.89-.87c-2.18.08-4.36.08-6.54.12-.29,0-.57.09-.92.14.15.65.27,1.16.4,1.67,0,.2.12.41.19.61.49,1.44.76,1.61,2.2,1.35a3.83,3.83,0,0,1,4.8,2.78,13.92,13.92,0,0,0,1.18,2.57,5.15,5.15,0,0,1-.47,6.3c-.49.56-1.24,1.05-1.42,1.7a12.3,12.3,0,0,1-2.61,4.7,5.08,5.08,0,0,0-.53,1.65c-.31.94-.56,1.11-1.52.85a2.71,2.71,0,0,1-1.22-.67,5.22,5.22,0,0,1-1.59-3.55c0-1.38-.05-2.76-.12-4.14a4.07,4.07,0,0,0-.23-1.4,1.6,1.6,0,0,0-2.89-.36,3.15,3.15,0,0,0-.72,2.37,16.07,16.07,0,0,1-.06,1.87,4,4,0,0,1-.87-.6c-.38-.5-.7-1.06-1.08-1.57a2,2,0,0,0-2-.85,1.69,1.69,0,0,0-1.39,1.55,9.18,9.18,0,0,0-.24,1.25,4.59,4.59,0,0,1-2.06,3.88c-1.32.86-1.38,1.64-.87,3.2.13.42.23.86.38,1.4-.74,0-1.26,0-1.79,0-2.5-.11-3-.47-3.72-2.88a16.21,16.21,0,0,0-.5-1.68,2,2,0,0,0-2.55-1.05c-.9.22-1.14.59-1.15,1.8,0,.48,0,1,.07,1.43.06.8-.3,1.12-1.09,1.24-1.74.25-1.93.2-3-1.39-.46-.71-.84-.81-1.58-.41s-1.14,1-.74,1.77c.3.54.66,1.05,1.08,1.7-.49.33-.87.58-1.25.85-1.31.93-2.17,1-3-1a18.15,18.15,0,0,0-1.05-1.83,12.26,12.26,0,0,0-3.15,3.16,2.57,2.57,0,0,0-.32,2.29c.31.89.71,1,1.54.53a14,14,0,0,1,16.18,1.47,25.53,25.53,0,0,1,7,11.06,2.76,2.76,0,0,1,.12,1.55,2.1,2.1,0,0,1-1,1.14,1.16,1.16,0,0,1-1.52-.52c-.34-.53-.65-1.09-.94-1.66a23.42,23.42,0,0,0-4.43-6.19c-4.49-4.33-9.75-5.37-15.6-3.53-1.07.34-2,.72-2.92-.36v2.73c2,1.12,2.59,2.86,2.37,5a47.75,47.75,0,0,0-.27,4.93c0,2.09.59,2.84,2.61,3.39a1.35,1.35,0,0,1,1.14,1.13,9.77,9.77,0,0,1-.57,6.69c-.39.75-.81,1.49-1.18,2.26a17.46,17.46,0,0,0-.58,1.69c.74-.26,1.14-.37,1.51-.53a7.56,7.56,0,0,1,3.57-.61,2.27,2.27,0,0,1,2.32,1.81,3.87,3.87,0,0,1-.08,2.8c-.11.24-.17.5-.36,1.06a15.23,15.23,0,0,1,13-3.33c-.72,2.11-2.28,3.52-3.62,5.43a6,6,0,0,0,1.25-.36c.8-.51,1.59-1.05,2.34-1.64a17.88,17.88,0,0,1,6.27-3.39c2.41-.65,4.11.55,4.4,3,0,.46.08.92.11,1.34.19.09.28.17.37.17,3,.08,5.67,1.29,8.33,2.5a5.48,5.48,0,0,1,1.66,1.19,2.23,2.23,0,0,1-.25,3,1.88,1.88,0,0,1-2.83-.07,6.94,6.94,0,0,1-.94-1.08c-1.92-2.68-6-3.6-8.63-1.59a2.6,2.6,0,0,1-3.38-.1c-.3-.22-.59-.45-.91-.65-1.2-.76-1.6-.63-2.15.65-.26.61-.58,1.19-1,2.06-.62-.76-1.06-1.26-1.44-1.8s-1-1.06-1.74-.76a42.85,42.85,0,0,0-4.21,1.88,1.89,1.89,0,0,0-1,2.28l4.14-.68c.07.46.15.82.18,1.17.12,1.87.86,2.58,2.75,2.37,1.68-.19,3.36-.5,5-.84,1.92-.4,3.82-.91,5.73-1.32,1.74-.37,2.64.29,2.85,2.06a12.79,12.79,0,0,1,0,1.75,2.53,2.53,0,0,1-1.71,2.45,10,10,0,0,1-1.66.54c-3.42.77-6.84,1.52-10.25,2.3a11.35,11.35,0,0,0-2.12.67,1.53,1.53,0,0,0-.94,2c.18,1,.54,1.52,1.48,1.58a6.32,6.32,0,0,0,2.33-.26c4.61-1.45,9.19-3,13.78-4.44.58-.19,1.17-.32,1.82-.49a2,2,0,0,1-1.1,2c-3.47,2.65-6.94,5.28-10.4,7.94a12.18,12.18,0,0,0-1.62,1.51,1.34,1.34,0,0,0-.14,1.64,1.14,1.14,0,0,0,1.54.41,10.58,10.58,0,0,0,1.77-.72c1.49-.91,2.94-1.89,4.41-2.85a16.78,16.78,0,0,1,1.62-1c.7-.35,1.08-.16,1.33.57a4.13,4.13,0,0,1,.15.78c.33,2.1.71,4.19.95,6.3a3.58,3.58,0,0,0,1.8,3,15.25,15.25,0,0,1,1.56,1.11,4.1,4.1,0,0,1,1.67,4c-.28,2.59-.57,5.19-.59,7.78a8.43,8.43,0,0,1-3.07,6.39l-.87.8c.34,1.24,1,2.05,2.21,2.13,2.21.16,3.28,1.74,3.34,3.75,0,1.32-.05,2.65-.08,4s.08,1.59,1.28,1.79a2.61,2.61,0,0,1,2.43,2.66c0,.42.11.84.11,1.26q0,3.51,0,7a5.2,5.2,0,0,1-1,3.14,2.22,2.22,0,0,1-2,1.09c-.08-1.32-.15-2.61-.22-3.8a8.67,8.67,0,0,1-2.74-.79,9.55,9.55,0,0,1-1.73-2.36l-1.71.58c.2,1,.41,1.9.52,2.79s-.15,1.33-1.17,1.49c-.26.05-.53,0-.79.06a50.67,50.67,0,0,1-11.61-.34A62.91,62.91,0,0,1,878,562.13a8.23,8.23,0,0,1-1-.57l1.59-3.1-8-2.77c1-1.9,1.2-2,2.94-1.59.93.21,1.85.47,2.78.66s1.67.32,2.51.43a.85.85,0,0,0,1-.75c.15-.94.24-1.88.36-2.83a3.18,3.18,0,0,0-.47,1.22c-.4,1.47-.62,1.65-2.11,1.39a25.29,25.29,0,0,1-3.08-.79c-11.69-3.67-21.4-10.44-29.9-19.11a6.07,6.07,0,0,1-.52-.82,18.65,18.65,0,0,1,2.42-1.56,25.27,25.27,0,0,1,14.92-2,3.34,3.34,0,0,0,.76-.06,9.94,9.94,0,0,1,4.05-6.18c.84-.62,1.62-1.34,2.44-2a1.67,1.67,0,0,1,.68-.31,1.48,1.48,0,0,1,1.75,1.94,11.07,11.07,0,0,1-1.26,2.56,2.36,2.36,0,0,0-.3,2.68c.71,1.11.31,1.89-.49,2.66-.27.25-.51.53-.86.89,7.16,3.65,12.21,8.69,11.94,17.24,2.66-1.07,5.41-1.09,8.1-1.28a1.72,1.72,0,0,0,.11-.39c-.37-3-.24-5.81,1.52-8.43a2,2,0,0,0-.32-2.56c-.91.1-1,.77-1.33,1.32-1,1.78-1.91,3.56-2.94,5.29a2.16,2.16,0,0,1-2.19,1.29,12.65,12.65,0,0,1-.54-1.71,33.93,33.93,0,0,1-.43-8.42c.42-4.62,2.79-8.29,5.81-11.61.85-.94,1.69-.8,2.3.31a5.89,5.89,0,0,1,.76,2.07c.15,1.37.12,2.75.17,4.13,0,.59.06,1.18.1,2,3.27-3.26,5.37-9.38,4.16-11.87a6.52,6.52,0,0,0-2.86,1.19c-1.25.63-2,.26-1.93-1.13a14,14,0,0,1,.72-3.07c.13-.45.45-.85.58-1.31.33-1.1,0-1.68-1.14-1.74a13.38,13.38,0,0,0-2.68.19c-1.94.31-3.86.67-5.79,1a10.2,10.2,0,0,0-1.35.48c.3.56.47.94.7,1.28.74,1.11,1.52,2.18,2.25,3.29,1.26,1.9.82,3.42-1.3,4.12a3.94,3.94,0,0,0-2.58,2.4,34.09,34.09,0,0,0-1.16,3.63c-.28,1-.43,2.08-.7,3.11-.18.71-.37,1.59-1.26,1.65s-1.21-.82-1.44-1.5a11,11,0,0,1-.71-3.08,55.71,55.71,0,0,0-1.35-11.36c-.35-1.47-.44-3-.66-4.56l-39.58.67c-.31-6.81-.69-13.4-.89-20.1,2.68-.16,5.15,0,7.67-.16-.21-11.5-.42-22.79-.63-34.07l-.35-.09c-.81,1.34-1.64,2.68-2.42,4a91.09,91.09,0,0,0-12.5,43.5,85.89,85.89,0,0,0,1.52,18.24,95.88,95.88,0,0,0,14.23,35.38,9,9,0,0,0,2.3,2.39A145.6,145.6,0,0,0,867,578c14.88,7,30.61,10,46.92,10.38a120.74,120.74,0,0,0,22.86-1.64c2.26-.38,4.49-.88,6.73-1.33a2,2,0,0,0-1.2-.55,18.46,18.46,0,0,1-11.65-6.3,9.36,9.36,0,0,1-2.25-4,14.5,14.5,0,0,1-.22-1.88,16.19,16.19,0,0,0,2.87,1c3.11.39,6.22.81,9.34,1a70.39,70.39,0,0,0,17.9-1.59c2.47-.52,4.89-1.23,7.34-1.86,0-.09,0-.19,0-.29l-5-2.38.06,0L957.89,566l1-.26c1.84-.5,3.73-.85,5.51-1.53a81.52,81.52,0,0,0,23.23-14l1.71-1.45a5,5,0,0,1,.46.62,10,10,0,0,1,.51,1.16,12.42,12.42,0,0,1-1.15,10.73,19.55,19.55,0,0,1-5.65,6c-4.48,3.17-9.34,5-15,4.2l-2.06-.34a10.32,10.32,0,0,1-1.8,4.79c-1,1.29-2.11,2.49-3.27,3.84a6.23,6.23,0,0,0,.6-.18A123.93,123.93,0,0,0,993.64,561a5,5,0,0,0,1.22-1.45c1.82-3.3,3.77-6.54,5.36-9.95a97.26,97.26,0,0,0,8.86-33.55c.17-2.1.19-4.22.27-6.37-1.35,0-2.5,0-3.66,0q-7.89.24-15.78.52a1.73,1.73,0,0,1-1.63-.67c-5.37-6.8-10.8-13.55-16.21-20.32-.29-.36-.62-.68-1-1ZM837.83,376.45c-.56.46-.9.71-1.22,1A119.93,119.93,0,0,0,820.51,394c-6.87,8.6-12.8,17.79-16.85,28a130.32,130.32,0,0,0-8.29,35.4,117.13,117.13,0,0,0,1.34,32.7,119.43,119.43,0,0,0,19.89,47.2,7.8,7.8,0,0,0,.61.68l4.88-1.32.79,2.56-4,1.26c.54.72,1,1.25,1.35,1.83a1.57,1.57,0,0,0,1.9.73c.56-.13,1.13-.2,1.77-.32.29.77.54,1.44.81,2.18l-1.76.57c.66,1,1.47-.06,2.16.41a6.94,6.94,0,0,1,.35.6c.12.24.2.48.29.69L825,548a73.57,73.57,0,0,0,8.6,8.52,3,3,0,0,0-.34-1c-.7-1.37-1.43-2.73-2.1-4.12-8.47-17.45-11.68-35.73-8.64-55a96.34,96.34,0,0,1,14.24-37.22c.88-1.38,2.09-2.67,2.5-4.18s0-3.27,0-4.91a2.73,2.73,0,0,0-1.21-2.4c-4.38-3.46-8.72-7-13.07-10.47-.4-.33-.79-.68-1.26-1.09l1.83-2.39,13.56,10.92a19.36,19.36,0,0,1,0-2.06,4.52,4.52,0,0,0-1.53-3.94c-6.83-7.15-13.58-14.37-20.35-21.58-.36-.38-.69-.77-1.08-1.21l1.81-2c3.55,3.76,7,7.4,10.41,11s6.8,7.33,10.52,11c0-1.66-.07-3,0-4.29a3.67,3.67,0,0,0-1.36-3.19c-1.44-1.32-2.75-2.77-4.15-4.19l1.77-2.34,3.56,3.14c0-1.73,0-3.11,0-4.48a3.77,3.77,0,0,0-.83-2.49c-3.62-4.86-7.2-9.74-10.79-14.62-.3-.42-.59-.86-1-1.42l2.51-1.54,9.53,12.58.32-.14c0-.46,0-.92,0-1.39q-.15-8.76-.31-17.53c0-1,.1-2-.64-2.63a11.4,11.4,0,0,0,.55-2.44c0-3.67-.11-7.34-.19-11C838,377.52,837.9,377.11,837.83,376.45Zm74.73,15.66A2.17,2.17,0,0,0,913,392c4.26-3.08,8.53-6.15,12.76-9.27a2.06,2.06,0,0,0,.71-1.31c.58-5.71,1.11-11.42,1.66-17.13.11-1.1.26-2.18.4-3.29h2.92c-.59,6.24-1.17,12.39-1.77,18.81.67-.45,1.11-.72,1.53-1,4.81-3.5,9.6-7,14.45-10.49a3.88,3.88,0,0,0,2-3c0-.09.11-.17.25-.35a3.08,3.08,0,0,1,.68,0,3,3,0,0,0,2.78-.77c1.63-1.28,3.36-2.43,5-3.69a9.54,9.54,0,0,0,1.83-1.76c.95-1.23.68-2.14-.79-2.61-4.29-1.37-8.57-2.81-12.92-4a84.69,84.69,0,0,0-16.1-3,142.22,142.22,0,0,0-28.8,1,125,125,0,0,0-25.51,6c-2,.7-4,1.47-5.94,2.2,0,.45-.09.76-.09,1.08q0,13.15.09,26.31a5.93,5.93,0,0,0,.33,1.87q4.83,14.16,9.71,28.32c.13.38.33.73.54,1.19l3.57-2.62-7.07-20,2.92-1.46,6.71,19.35c1.33-.65,1.33-.65,1-2.1q-4.15-16.94-8.32-33.87c-.67-2.73-1.32-5.45-2-8.26l2.94-1.31,10.29,43,3.64-2.65c-1.43-5.7-2.8-11.19-4.2-16.75l2.82-1.11c1.32,5.4,2.58,10.6,3.9,16a15.37,15.37,0,0,1,1.7-1.2,2.17,2.17,0,0,0,1.17-2.62q-2.38-17.21-4.67-34.42c-.18-1.35-.32-2.71-.49-4.23l3-.32c1.65,13,3.26,25.69,4.91,38.68,1.08-.76,2-1.4,2.88-2a1.36,1.36,0,0,0,.66-1.46c-.27-2.27-.46-4.55-.66-6.82-.09-1-.12-2-.19-3.09l2.87-.32c.51,3.1.25,6.07.66,9.2a17.35,17.35,0,0,1,1.93-1.34,2.6,2.6,0,0,0,1.37-2.73c-.16-10-.25-20-.35-30,0-.61,0-1.23,0-2l2.91.24Zm44.31,43.7a14.37,14.37,0,0,1,1.54-2.09c.87-.79,1.52-.65,2.33.19q3,3.1,6,6.17a1.22,1.22,0,0,1,.2,1.81,4.39,4.39,0,0,0-.79,2,27,27,0,0,0,.15,3.81,4.9,4.9,0,0,0,.45,1.15c.57-.34,1-.58,1.44-.88,1.51-1.07,3-2.18,4.53-3.25a3.06,3.06,0,0,1,2.5-.79,2.92,2.92,0,0,1-.16,2.61,28.44,28.44,0,0,0-1.25,11.8,5,5,0,0,0,1.12,2.9q11.64,14.48,23.23,29c.69.86,1.27,2,2.18,2.47s2.28.22,3.44.25c1.31,0,2.63,0,4,0-.14-.78-.23-1.4-.37-2-4.51-19.85-14.19-36.61-29.83-49.8a94.87,94.87,0,0,0-31.71-17.89,12.42,12.42,0,0,0-1.38-.28c2.52,3.14,4.79,6,7.11,8.85.91,1.1,1.93,2.12,2.93,3.15A2.25,2.25,0,0,0,956.87,435.81ZM933,520.1a2.31,2.31,0,0,1-.73-2c-.15-2.61-1.08-4.11-3.21-4.54-2.64-.53-5.34-.81-8-1.12a2,2,0,0,0-2.14,1.09,5.31,5.31,0,0,0,.12,4.9,1.32,1.32,0,0,0,1.71.73,8.08,8.08,0,0,1,2.35-.32c1.31,0,1.7.41,1.77,1.71s.07,2.87.14,4.3a7.43,7.43,0,0,0,.32,1.37c.62-.76,1-1.31,1.49-1.79.76-.75,1.25-.69,1.75.22.34.6.5,1.3.86,1.88a3,3,0,0,0,1.16,1.2,3.38,3.38,0,0,0,4.29-1,8.45,8.45,0,0,0,1.39-1.93,2.28,2.28,0,0,1,2.1-1.4,5,5,0,0,0,3.2-1.26,10.44,10.44,0,0,0,3.2-9.25c-.2-1.41-.85-1.8-2.23-1.45-1.64.41-3.28.87-4.89,1.4a4,4,0,0,0-2.51,2.3c-.49,1.11-.91,2.26-1.37,3.39C933.54,519,933.28,519.52,933,520.1Zm-29.52,33.71a9.57,9.57,0,0,1,1.57-5.93,3.06,3.06,0,0,0,.25-3.51,3.9,3.9,0,0,1,.9-4.94c.23-.22.45-.44.67-.67,1.65-1.74,1.52-3.46-.49-4.8a1.47,1.47,0,0,1-.73-1.86,12.45,12.45,0,0,0,.39-1.71,1.85,1.85,0,0,0-1-1.81c-.72-.45-1.21-.09-1.68.38a19.07,19.07,0,0,0-1.28,1.42c-.95,1.25-.9,1.93.25,3,.49.46,1.05.86,1.73,1.4-3.07,5-3.78,10.64-4.13,16.3Zm6-138.68.09.28h4.68c-.23-1.16.49-1.75,1.25-2.36q5.54-4.44,11-8.92c1.9-1.54,1.87-1.54,3.41.37a6.87,6.87,0,0,0,2,2.12c.36-2.86.7-5.57,1.1-8.69Zm31.84-22.87-.31-.18c-.93.67-1.84,1.38-2.82,2a2.88,2.88,0,0,0-1.36,2.19c-.64,4.15-1.23,8.3-2.05,12.42-.37,1.85.52,2.81,1.81,4Zm-72.92,5.15-.22.06c0,2.16,0,4.32,0,6.47a5.38,5.38,0,0,0,.62,2.59c1.94,3.9,3.85,7.8,5.77,11.7.21.42.46.83.67,1.22,1.26-.36.77-1.12.53-1.78q-3.4-9.51-6.82-19C868.77,398.23,868.58,397.82,868.4,397.41Zm12.14,88a43,43,0,0,1-9.41,4.89v4.28h4.34A27.66,27.66,0,0,1,880.54,485.37Zm-7.64-64.06L868.4,413a5.21,5.21,0,0,0-.18.77c0,2.54,0,5.08,0,7.62a4.76,4.76,0,0,0,.16,1.25c.26,1,.77,1.21,1.63.67S871.84,422.07,872.9,421.31Zm18.57,7c1,1.13,1.94,2.22,3,3.2a1.69,1.69,0,0,0,1.4.43,1.6,1.6,0,0,0,.69-1.23c.06-1.69,0-3.38-.06-5.07,0-.21-.18-.42-.34-.74Zm56.91,64.27a2.24,2.24,0,0,0,2.46.41,16.85,16.85,0,0,1,2.89-.63,15.8,15.8,0,0,0,2.23-.65,1,1,0,0,0,.75-1.24,1.24,1.24,0,0,0-1.21-1.07,17,17,0,0,0-3.78.12A4.65,4.65,0,0,0,948.38,492.61ZM879.7,500.3a51.55,51.55,0,0,0,.32,5.82c.6-.53,1-.76,1.23-1.12a30.37,30.37,0,0,0,1.7-3.37c.41-1,0-1.52-1-1.53C881.2,500.1,880.48,500.23,879.7,500.3Zm15.65,48.91c0-1.59.1-3,.1-4.32,0-.58-.05-1.23-.86-1.28a1.23,1.23,0,0,0-1.47.93,9.53,9.53,0,0,0-.21,4.09Zm51.09-25.42a6.1,6.1,0,0,0-.6-1.25.62.62,0,0,0-1.07.05,33.8,33.8,0,0,0-1.81,3.15c-.24.5-.38,1.24.23,1.58a1.41,1.41,0,0,0,1.76-.24A5.81,5.81,0,0,0,946.44,523.79Zm-4.71,5.66a9.6,9.6,0,0,0-1-1.22c-.44-.39-.91-.16-1.29.17-.59.53-1.18,1.06-1.73,1.64a1.09,1.09,0,0,0,0,1.68,1.12,1.12,0,0,0,1.68.2,14.36,14.36,0,0,0,1.61-1.28A4.81,4.81,0,0,0,941.73,529.45ZM949.07,508c.75.87,1.45,1.8,2.27,2.59a1.35,1.35,0,0,0,1.26.17c.51-.28.31-.9,0-1.27A3.25,3.25,0,0,0,949.07,508Zm-70.4-69.84-.32-.18-2.21,1.62,1.76.9C878.2,439.58,878.43,438.86,878.67,438.14Zm4-.3v-3L881,436C881.51,436.61,882,437.09,882.64,437.84Zm18.52-16.53c1.34.34,1.42-.48,1.57-1.22Z" transform="translate(-725.05 -278.14)"/><path class="cls-4" d="M981.92,743.37a179,179,0,0,1,9.67-54.88,49.31,49.31,0,0,1,21.82,16.12c-4.82,1-8.91-.22-13-2.66.68,13.39-2.14,25.47-10.94,35.8,1.67.94,3.36.72,5,.49a13.5,13.5,0,0,0,6.73-3c1.24-1,2.47-2,3.72-3,.58-.46,1.21-.83,1.93-1.32C1005,738.8,993.67,747.12,981.92,743.37Z" transform="translate(-725.05 -278.14)"/><path class="cls-5" d="M1059.19,634.48c-.92-.35-1.53-.51-2.08-.79a5.83,5.83,0,0,1-1.29-.92,9.38,9.38,0,0,0-7.5-2.44c-2.22.17-4.43.37-6.83.58-.26,6.34.17,12.57.24,19,1.1,0,2,.14,3,.09,5.09-.27,10.18-.61,15.28-.86a8.51,8.51,0,0,0,7.5-4.33,19,19,0,0,1,1.59-2.38c.59-.73,1.31-1.36,2-2a2.9,2.9,0,0,1,1.47,2,22.33,22.33,0,0,1,.87,3.87,33.9,33.9,0,0,1-.23,9.22,2.46,2.46,0,0,1-.22.52c-.43.06-.89.16-1.36.18-6.85.32-13.69.68-20.55.93-7.6.28-15.2.46-22.8.69-1.43.05-2.86.17-4.29.26a1.9,1.9,0,0,1-1.45-.45,8.23,8.23,0,0,0-1.85-.86c-1.26-.55-1.6-1.29-1-2.55a18.82,18.82,0,0,1,1.3-2.19c.6-.94,1.25-1.85,1.83-2.8a7.55,7.55,0,0,0,1.09-3.79,68,68,0,0,0-.69-11.13,5.38,5.38,0,0,0-3.33-4.66,11.19,11.19,0,0,1-2.35-1.62,1.31,1.31,0,0,1-.28-2c.4-.57.76-1.16,1.19-1.7.56-.7,1.16-1.38,1.78-2a5.05,5.05,0,0,0,1.48-4c-.14-2.06.1-4.14.11-6.22a41.82,41.82,0,0,0-.2-4.61,7.37,7.37,0,0,0-1.84-4.16c-.67-.76-1.36-1.5-2-2.26a5.47,5.47,0,0,1-1.48-3.33c1.47-.17,2.88-.4,4.29-.48,4.83-.26,9.66-.44,14.49-.72,3.61-.21,7.21-.55,10.81-.78,1.43-.09,2.87-.06,4.3-.07a49.16,49.16,0,0,0,5.65-.23,9.2,9.2,0,0,0-.84-.4c-.9-.31-1.83-.55-2.72-.9a1.8,1.8,0,0,1-.88-3,4.83,4.83,0,0,1,1-1q6.64-5.48,13.31-10.92a10.44,10.44,0,0,1,5.76-2.1,13.84,13.84,0,0,1,3.46-.05c1.73.27,2.31,1.72,1.42,3.21a6.18,6.18,0,0,1-1.12,1.33c-4.07,3.82-8.16,7.62-12.22,11.45-1.27,1.21-2.88,1.71-4.75,2.43a30.53,30.53,0,0,0,5.06.17c1.59,0,3.19,0,4.94,0,1.52,4.08,2.71,8.13,1.79,12.52a3.23,3.23,0,0,1-2.44-.63,11.86,11.86,0,0,1-1.65-1.24,8.88,8.88,0,0,0-6.4-2.45c-4.25.08-8.49.29-12.74.46-2.22.08-4.45.19-6.9.31a139.51,139.51,0,0,0,1,16.72c.89-.1,1.66-.23,2.43-.25,1.49,0,3,0,4.47,0a6.16,6.16,0,0,0,4.37-1.61c.6-.53,1.2-1.06,1.83-1.54a9,9,0,0,1,1.61-1c1.28-.6,1.78-.49,2.21.81a28,28,0,0,1,1.22,5.09C1059.5,626.59,1059.16,630.35,1059.19,634.48Zm-41.61-36.09c.35.59.53,1,.77,1.28.63.85,1.3,1.68,1.93,2.53a12.48,12.48,0,0,1,2.67,6.88c.06,1.38.06,2.76,0,4.14,0,2.07-.13,4.15-.13,6.22a3,3,0,0,1-.63,2.07c-.84,1-1.72,2-2.55,3.06-.58.73-1.1,1.51-1.7,2.33.57.28.94.48,1.32.66a7.3,7.3,0,0,1,3.77,3.94,17.2,17.2,0,0,1,1,3.35,40,40,0,0,1,.65,9.2,18.63,18.63,0,0,1-3.4,10.46,4.21,4.21,0,0,0-.36.8c2.08,0,4,.07,6,0,1.53-.07,3-.47,4.58-.49,3.34-.06,6.69.15,10,.05,8.77-.27,17.53-.63,26.29-1,1.15,0,2.29-.19,3.39-.29a47,47,0,0,0-.35-11.24l-3.15,4.06a9.67,9.67,0,0,1-7.63,4c-6.27.21-12.53.45-18.8.67A11.72,11.72,0,0,1,1040,651c0-.63-.11-1.21-.15-1.78-.06-1.22-.14-2.44-.15-3.66q-.11-8-.14-15.94a6.92,6.92,0,0,1,.19-1.23c2.89-.19,5.58-.35,8.28-.55a7.4,7.4,0,0,1,6.71,2.54,4.8,4.8,0,0,0,1.22,1,8.79,8.79,0,0,0,1.4.56c-.12-4.75-.21-9.24-.56-14-5.38,4.13-11.33,4.93-17.68,4.76a124.58,124.58,0,0,1-1.16-20.72,4.65,4.65,0,0,1,.78-.16c7-.1,14-.21,21-.26a4.06,4.06,0,0,1,1.92.59c1.19.69,2.29,1.54,3.46,2.28a6.85,6.85,0,0,0,3,1.26c.37-2.69-.37-5.2-.39-7.9-5.7,0-11.22,0-16.74,0s-11.16.32-16.74.3S1023.31,598.53,1017.58,598.39ZM1075,579l-.25-.4a14.12,14.12,0,0,0-6,.77l.77.66c-2.93,3.2-5.78,6.35-8.68,9.45a7.56,7.56,0,0,1-2,1.33,2.4,2.4,0,0,1-2.62-.4c.93-1,1.75-1.85,2.61-2.71s1.77-1.71,2.66-2.56c-2.58,1.21-8.19,6-9,7.38,1.38.43,2.72.87,4.08,1.27a1.59,1.59,0,0,0,.78,0,9.21,9.21,0,0,0,4.28-2q6.16-5.77,12.3-11.55A9.22,9.22,0,0,0,1075,579Z" transform="translate(-725.05 -278.14)"/><path class="cls-6" d="M1021.67,733.84c.52-2.23,1-4.24,1.47-6.24a282.9,282.9,0,0,1,14-41.76c.25-.6.29-1.62,1.1-1.55.51.05,1,.79,1.41,1.32A97.77,97.77,0,0,1,1052,712.05c1.06,3.39,1.93,6.84,2.74,10.3a22.43,22.43,0,0,1,.23,4,4.54,4.54,0,0,1-4.37-.51,19.66,19.66,0,0,1-2.39-2.09c-.81-.75-1.58-1.55-2.17-2.13-4.19.72-8.1,1.43-12,2a3.3,3.3,0,0,0-2.52,1.65c-1,1.66-2.16,3.29-3.35,4.85a9.15,9.15,0,0,1-5.44,3.65C1022.49,733.81,1022.23,733.8,1021.67,733.84Zm20.21-20.4c.09-2.23-2.49-9.68-3.93-11-.62,3.69-2,7-2.32,10.71C1037.74,714,1039.82,713.31,1041.88,713.44Zm1.85-10.3c-.12,1.93,1.25,4.58,2.48,5A5.55,5.55,0,0,0,1043.73,703.14Z" transform="translate(-725.05 -278.14)"/><path class="cls-7" d="M808.29,788.25c-.19-1.14-.39-2.17-.53-3.21a54.12,54.12,0,0,1,.09-12.72c.63-5.91,1.36-11.81,2.12-17.7a67.81,67.81,0,0,1,2.95-13.19c.5-1.46.73-1.62,2.3-1.61a6.4,6.4,0,0,1,4.59,1.92,22,22,0,0,1,6.63,15.89,38.8,38.8,0,0,1-3.82,19A23,23,0,0,1,815,785.7,14.21,14.21,0,0,1,808.29,788.25Z" transform="translate(-725.05 -278.14)"/><path class="cls-8" d="M935.45,756.74a72.47,72.47,0,0,1-.3-10.08c.37-8.79,1.91-17.42,3.53-26,.59-3.08,1.14-6.16,1.72-9.24.3-1.58.56-1.76,2.15-1.43a12.78,12.78,0,0,1,8.72,6.37,18.73,18.73,0,0,1,2.47,8.18,37.12,37.12,0,0,1-7.61,26,15.45,15.45,0,0,1-9.38,6.17c-.21,0-.42.08-.63.1A5,5,0,0,1,935.45,756.74Z" transform="translate(-725.05 -278.14)"/><path class="cls-9" d="M870,749.43c-.29,1.08-.5,1.89-.71,2.69-1.07,4.11-2.06,8.23-3.22,12.31a20.84,20.84,0,0,1-3.14,6.42,14,14,0,0,1-7.47,5.5c-.05-.71-.12-1.32-.14-1.92a163.7,163.7,0,0,1,.84-20.53A159.9,159.9,0,0,1,862,724.26c.28-.91.55-1.83.9-2.72.11-.28.45-.47.68-.71a3.16,3.16,0,0,1,.6.8c1,3.12,1.94,6.29,3.1,9.36a108.19,108.19,0,0,0,7.61,15.23c1.55,2.72,3.12,5.44,4.67,8.16.25.45.47.91.76,1.49A5.25,5.25,0,0,1,876,755a34.33,34.33,0,0,1-3.34-2.93C871.79,751.28,871,750.44,870,749.43Z" transform="translate(-725.05 -278.14)"/><path class="cls-10" d="M986.18,689.1a2.33,2.33,0,0,1,.59,2.5c-.43,1.31-.93,2.59-1.35,3.91a115.24,115.24,0,0,0-3.82,15.76q-1.38,8.33-2.45,16.7c-.33,2.52-.23,5.09-.48,7.63-.17,1.84-.58,3.65-.91,5.48a5,5,0,0,1-.38.9,10.24,10.24,0,0,1-4.53-2.62,18.07,18.07,0,0,1-5.52-10.2c-1.81-9.45-.93-18.63,3.49-27.28a24.13,24.13,0,0,1,14.09-12.41C985.3,689.33,985.71,689.23,986.18,689.1Z" transform="translate(-725.05 -278.14)"/><path class="cls-11" d="M789.39,770.13a37.9,37.9,0,0,1,3.37-15.78,26.45,26.45,0,0,1,14.3-13.62,8.87,8.87,0,0,1,1.51-.49c1-.2,1.42.2,1.34,1.18a3.32,3.32,0,0,1-.28,1.07c-1.69,3.82-2.39,7.92-3.17,12a117.44,117.44,0,0,0-2,25c0,2.23-.12,4.46-.22,6.68a4.55,4.55,0,0,1-.33,1.39c-.42,1.14-.95,1.6-2.14,1.46a9.64,9.64,0,0,1-3-.85A14.87,14.87,0,0,1,789.9,776C789.65,774.05,789.56,772.08,789.39,770.13Zm4.49-12.92a19.46,19.46,0,0,0-1.21,1.75,17.51,17.51,0,0,0-.9,2.2,18.54,18.54,0,0,0-.26,11.41c.16.56.24,1.25,1.16,1.57.13-1.06.27-2,.34-2.92.1-1.48.08-3,.24-4.44.27-2.36.65-4.72,1-7.08A3,3,0,0,0,793.88,757.21Z" transform="translate(-725.05 -278.14)"/><path class="cls-12" d="M937.11,710.12a10.15,10.15,0,0,1-.4,4c-.72,3.1-1.7,6.15-2.19,9.28-.75,4.88-1.26,9.79-1.74,14.71-.51,5.22-.81,10.47-1.3,15.7a29,29,0,0,1-.91,4,6.63,6.63,0,0,1-4-.82,10.83,10.83,0,0,1-4.58-4.29,19.58,19.58,0,0,1-2.81-8.39,38,38,0,0,1,5-24,26,26,0,0,1,9.86-9.52A3.93,3.93,0,0,1,937.11,710.12Z" transform="translate(-725.05 -278.14)"/><path class="cls-13" d="M791.76,743.54a8.11,8.11,0,0,1-3.67,1.68c-6.06,1.54-12.14,3-18.19,4.58Q757,753.12,744,756.5c-3.12.82-6.19,1.86-9.31,2.69a12.58,12.58,0,0,1-5.24.39c.33-.73.57-1.42.92-2a17.79,17.79,0,0,1,4.33-4.86,55.24,55.24,0,0,1,22.13-10.78,80.33,80.33,0,0,1,22.44-2.22,27.64,27.64,0,0,1,8.58,1.54A9.9,9.9,0,0,1,791.76,743.54Z" transform="translate(-725.05 -278.14)"/><path class="cls-5" d="M939.57,611.94a3.63,3.63,0,0,1-2.57-1.46,8.2,8.2,0,0,0-7.27-2.81c-3.45.25-6.89.5-10.33.72-2.06.13-4.13.21-6.41.32-.49,5.17.22,10.32.29,15.71,2.4.08,4.67.67,6.88-.08a12.34,12.34,0,0,0,3.08-1.89c.69-.49,1.23-1.18,1.9-1.7,1.12-.84,1.86-.7,2.68.44a9,9,0,0,1,1.41,4,34,34,0,0,1,.07,10.32,3.82,3.82,0,0,1-.26.57,12.53,12.53,0,0,1-1.62-.46,5.67,5.67,0,0,1-1.65-1,7.51,7.51,0,0,0-6-1.84c-2.06.15-4.13,0-6.35,0-.07.64-.19,1.2-.2,1.76,0,4.94-.21,9.88-.06,14.82a23.24,23.24,0,0,0,2.91,11.44,11.71,11.71,0,0,1-1.68.28q-10,.36-19.91.68a1.72,1.72,0,0,1-.79-.06c-1.35-.7-2.68-1.44-4-2.17,0,0,0-.09-.13-.22a5.13,5.13,0,0,1,1.35-2.89c.8-1,1.7-1.91,2.46-2.93A3,3,0,0,0,894,652c.15-3.18.24-6.36.33-9.54,0-1.12,0-2.23,0-3.35a6.93,6.93,0,0,0-2.09-4.85c-.82-.83-1.72-1.6-2.47-2.49-1.4-1.65-1.52-1.92.09-3.58a21.55,21.55,0,0,1,2.16-1.88,3.46,3.46,0,0,0,1.42-3.12c0-2.92.21-5.84.33-8.75,0-.64,0-1.28,0-1.92a9.17,9.17,0,0,0-2.93-7.14,28.78,28.78,0,0,1-2.31-2.63,4.19,4.19,0,0,1-1-2.63,4.79,4.79,0,0,1,3.28-1q22.47-.39,44.94-.76a2.4,2.4,0,0,1,2.21,1,12.55,12.55,0,0,1,1.52,2.59,16,16,0,0,1,.46,9.26A5.8,5.8,0,0,1,939.57,611.94ZM889.08,600.5a4.25,4.25,0,0,0,1.3,2.81c.7.79,1.46,1.54,2.19,2.31a6.79,6.79,0,0,1,2.06,4.38c.09,2.17.15,4.34.14,6.52,0,2.54-.17,5.1-.13,7.64a2.51,2.51,0,0,1-.95,2.2c-.9.75-1.79,1.52-2.61,2.34-1.18,1.2-1.18,1.52-.05,2.8a17.09,17.09,0,0,0,1.83,1.78,7.38,7.38,0,0,1,2.63,5.75c0,1.81,0,3.62-.08,5.42,0,2.5-.17,5-.18,7.49a2.7,2.7,0,0,1-.6,1.9c-.82,1-1.65,1.95-2.43,3a3.77,3.77,0,0,0-1,2.36c1.36,0,2.64.08,3.9,0a79.84,79.84,0,0,1,10.94-.28,57,57,0,0,0,6.52-.27,6.25,6.25,0,0,0,1.1-.28,15.8,15.8,0,0,0-1.33-2.28,7.33,7.33,0,0,1-1.75-4.53c-.11-2.38-.23-4.77-.17-7.16.1-4.41.33-8.82.51-13.22a7.14,7.14,0,0,1,.15-.89h1.62c2,0,4,.13,5.9,0a7,7,0,0,1,5.54,1.82,5.3,5.3,0,0,0,2.72,1.47c.63-4,.15-7.85.2-11.71a2,2,0,0,0-2,.59c-.61.5-1.18,1.07-1.76,1.61a6.21,6.21,0,0,1-3.49,1.8,37.29,37.29,0,0,1-8.87-.22c.17-6.61-1-13.09-.25-19.64a10.52,10.52,0,0,1,1.08-.16c2.92-.1,5.84-.23,8.76-.25,3.09,0,6.17.07,9.25.08,3.45,0,2.91-.56,5.75,2.2a2.48,2.48,0,0,0,2,1c.43-2.7.77-5.35,0-8a1.25,1.25,0,0,0-1.26-1c-.9,0-1.81-.09-2.71-.11-9.09-.22-18.18,0-27.26.5-1.84.1-3.7-.07-5.55-.1-.69,0-1.38,0-2.07,0s-1.24.12-1.86.14C894.24,600.35,891.71,600.42,889.08,600.5Z" transform="translate(-725.05 -278.14)"/><path class="cls-14" d="M842,753.17a7.79,7.79,0,0,0,.94,3.59,4,4,0,0,0,.58-1c.23-1.41.45-2.83.6-4.25.27-2.53.48-5.07.7-7.61a5.12,5.12,0,0,0-.09-1c-1-.06-.83,1-1.59,1.41,2.19-9.34,6.47-17.14,14.55-22.49a16.77,16.77,0,0,1,1.95-.89c-.18.8-.25,1.25-.38,1.68a166.16,166.16,0,0,0-5.36,25.83c-.72,6-1.24,11.93-1.78,17.9-.15,1.69,0,3.4-.06,5.1,0,1.06,0,2.12-.07,3.18a2.94,2.94,0,0,1-1.2,2.36,9.76,9.76,0,0,1-4.9-3.62,20.85,20.85,0,0,1-3.42-8.49A42.61,42.61,0,0,1,842,753.17Z" transform="translate(-725.05 -278.14)"/><path class="cls-5" d="M805.48,660.09c.89-1.21,1.65-2.23,2.41-3.24s1.79-2.24,2.6-3.42A8.36,8.36,0,0,0,812,648a5.87,5.87,0,0,0-1-3.14c-.31-.43-.6-.87-.87-1.33a2.5,2.5,0,0,1,.24-3.11,11.81,11.81,0,0,1,2.35-2.12,16.23,16.23,0,0,0,5.45-6.32,86.05,86.05,0,0,0,5.5-13.9l2.07-6.37c.14-.45.27-.91.43-1.36a4.29,4.29,0,0,0-1.5-5.24,31.94,31.94,0,0,1-2.55-2.52,4,4,0,0,1,3.06-1.86,15.13,15.13,0,0,1,3-.32c2.18,0,4.36.07,6.54.08,3.29,0,6.58-.08,9.88,0,2.11,0,4.22.29,6.33.52a8.36,8.36,0,0,1,1.87.75c-.37.65-.64,1.14-.95,1.7a6.86,6.86,0,0,0,.45.76,1.21,1.21,0,0,1,0,1.61,2.66,2.66,0,0,1-.28.38c-1.71,1.58-1.65,3.44-.86,5.41.45,1.14.89,2.28,1.4,3.39,1.75,3.81,3.5,7.62,5.31,11.41.92,1.91,1.88,3.81,3,5.63a18.33,18.33,0,0,0,8.1,7.63,7.66,7.66,0,0,0,.24,1.9,3.63,3.63,0,0,1-.53,3.61,4.58,4.58,0,0,0,.17,5.65,22.11,22.11,0,0,0,2.9,3.15c1.07,1,2.23,2,3.36,2.93a1.89,1.89,0,0,1,.7,1.67,25.59,25.59,0,0,0,.23,2.91,17,17,0,0,1-1.9.3q-11.15.47-22.3.89a2,2,0,0,1-1.18-.3c-1-.79-1.92-1.66-2.79-2.44.76-1.39,1.57-2.64,2.17-4,5.27-.63,1.35-4.29.84-6.53a13.79,13.79,0,0,0-1.4-3.15,1,1,0,0,0-1.2-.53c-4.17.88-8.36.27-12.54,0a46,46,0,0,0-10.49.07c-2.87.47-4.79,1.94-5.37,4.87a7.29,7.29,0,0,0,2.66,7.53,10.79,10.79,0,0,0,.93.63v3.43a3.15,3.15,0,0,1-.78.21c-4.3.17-8.6.31-12.9.47a2.07,2.07,0,0,1-1.57-.59C807.38,661.63,806.5,661,805.48,660.09Zm18.59-58.15-.24.33a14.38,14.38,0,0,0,1.72,2c2.18,1.73,2.59,3.89,1.78,6.42-1.36,4.24-2.66,8.51-4.09,12.73a56.37,56.37,0,0,1-4.66,10.29,15.86,15.86,0,0,1-5.37,5.76c-2.74,1.68-2.82,2.56-1.13,5.28a6.85,6.85,0,0,1,1.11,2.43,8.71,8.71,0,0,1-1.59,6.94c-.8,1.06-1.7,2-2.52,3.09-.64.82-1.21,1.69-2,2.78,5.19.35,10-.32,15.17-.32a18.69,18.69,0,0,0-1.71-2c-3.41-2.82-3.17-9.1-1.31-11.94a5.16,5.16,0,0,1,4.92-2.63c.9.06,1.8.09,2.7.07,6.7-.15,13.39-.3,20.09-.49a2.42,2.42,0,0,1,2.07.9,13.54,13.54,0,0,1,3,5.19c.9,3.06.82,6-1.44,8.54a19.31,19.31,0,0,0-1.5,2.36c8.61.14,16.83-.59,25.44-.83-1.38-1.51-2.55-2.66-3.56-3.94a42.17,42.17,0,0,1-3.65-5.19,8.26,8.26,0,0,1-.44-7.24c.26-.68.59-1.34.93-2.09-3.78-1.45-6-4.4-7.82-7.7-.41-.74-.8-1.5-1.18-2.26-2.15-4.33-4.34-8.63-6.42-13-1.09-2.29-2-4.67-2.94-7a7,7,0,0,1,.56-6.29,16.33,16.33,0,0,0,.91-2.19c-2.5,0-4.77,0-7,0-2.57,0-5.13.15-7.71,0C832.15,601.82,828.11,601.94,824.07,601.94Z" transform="translate(-725.05 -278.14)"/><path class="cls-15" d="M909.63,709.55A11.62,11.62,0,0,1,913,713a23.89,23.89,0,0,1,3.78,10.55,56.79,56.79,0,0,1-4.43,30.65,24.32,24.32,0,0,1-5.62,8.23,8.26,8.26,0,0,1-3.57,2.22c0-.62-.08-1.13-.09-1.65A86.85,86.85,0,0,1,904.22,749c1-6.89,1.84-13.78,2.76-20.67q1.13-8.52,2.26-17C909.31,710.79,909.47,710.28,909.63,709.55Z" transform="translate(-725.05 -278.14)"/><path class="cls-16" d="M898.77,764.9a7.32,7.32,0,0,1-3.23-2.08,13.37,13.37,0,0,1-3.56-8c-.22-1.68-.23-3.39-.32-5.09,0-.46,0-.92,0-1.56a5.66,5.66,0,0,0-2.33,1.58c-1,1-1.91,2.14-2.9,3.18a5.56,5.56,0,0,1-3.93,1.91c.16-.53.26-1,.42-1.36a204.64,204.64,0,0,1,9-19q6.61-12.45,13.24-24.9c.23-.43.33-1.1,1.31-.78C903.9,727.41,901.35,746.05,898.77,764.9Zm-3.11-28.5c-1.45,1.18-1.88,2.94-1.85,6.93,0,1.3-.22,2.73.94,3.82a3,3,0,0,0,1.26-2.74C896.18,741.82,896.47,739.2,895.66,736.4Z" transform="translate(-725.05 -278.14)"/><path class="cls-5" d="M980.24,659.56c-1.87.15-3.6.36-5.34.41-5.31.16-10.62.24-15.94.38-1.77,0-2.87-1.23-4.2-2-.21-.13-.27-.82-.14-1.13a11.75,11.75,0,0,1,1.27-2.2c.78-1.07,1.65-2.07,2.46-3.13a2.85,2.85,0,0,0,.54-2.06c-.11-2.54,0-5.09,0-7.64,0-1.85-.06-3.72-.24-5.56a6.4,6.4,0,0,0-2.1-3.84c-.87-.86-1.78-1.69-2.56-2.63-1.32-1.59-1.28-1.91.23-3.28,1.06-1,2.18-1.87,3.27-2.8a2.39,2.39,0,0,0,.81-2.22c-.16-2.59,0-5.2,0-7.8,0-1.43,0-2.87-.05-4.3a7.89,7.89,0,0,0-2.32-5.11c-1-1-1.94-2-2.78-3.07-1.52-1.95-1.38-3.19,1.54-3.81a13.37,13.37,0,0,1,2.69-.15c9.89,0,19.77.14,29.66.15,2.17,0,4.35-.27,6.52-.41a19.84,19.84,0,0,1,6.65.44,5.92,5.92,0,0,1,4.61,5.29c.33,2.41-.23,4.75-.42,7.05a2.1,2.1,0,0,1-2.75-.21,24.64,24.64,0,0,1-2-1.84,4.31,4.31,0,0,0-2.78-1.43,57.2,57.2,0,0,0-6.67-.24c-4.18.21-8.36.63-12.75,1a9.07,9.07,0,0,0-.22,1.47c0,1.81-.07,3.62,0,5.42.09,2.92.24,5.84.38,8.92a7.77,7.77,0,0,0,5.28.57,16.19,16.19,0,0,0,5.59-2.62l3.08-1.95a5.35,5.35,0,0,1,2,4.11,42.72,42.72,0,0,1,.24,4.93c0,2.07-.15,4.14-.24,6.24a2.24,2.24,0,0,1-2.4-.19,11.59,11.59,0,0,1-2-1.34,7.32,7.32,0,0,0-5.49-1.69c-2,.15-3.92.25-6,.37a2.34,2.34,0,0,0-.14.5c-.14,4-.28,8-.38,11.94q-.07,3,0,6.06a9.86,9.86,0,0,0,1.91,5.81A5.19,5.19,0,0,1,980.24,659.56Zm-26.65-60.43a5.19,5.19,0,0,0,1.61,3.23c.73.77,1.49,1.52,2.23,2.28a6.26,6.26,0,0,1,1.94,3.92c.14,2.11.16,4.23.14,6.35,0,2.55-.25,5.09-.18,7.64a2.7,2.7,0,0,1-1.07,2.46c-1,.78-2,1.57-2.94,2.44s-1,1.24-.16,2.28a26.28,26.28,0,0,0,2.46,2.49,6.6,6.6,0,0,1,2.4,4.53c.12,2,.1,4,.12,6,0,2.54.05,5.09,0,7.63a3,3,0,0,1-.51,1.58c-.93,1.36-2,2.63-2.94,4a16.81,16.81,0,0,0-1,1.71,51,51,0,0,0,6.46-.06,35.55,35.55,0,0,1,5.55-.17c3.42.09,6.84,0,10.38,0-.61-1.34-1.2-2.4-1.61-3.53a22.06,22.06,0,0,1-1.2-7.2c0-5.53,0-11.06,0-16.58a4.2,4.2,0,0,1,.17-.81c2.24,0,4.42.1,6.59,0,2.6-.17,4.93.14,6.77,2.25a2.31,2.31,0,0,0,2.25.87,50.84,50.84,0,0,0,.16-11.76c-4.68,3.85-9.87,5.49-15.8,4.06-.43-3.23-.56-18.45-.23-19.46,3.65-.21,7.25-.43,10.86-.59,2.7-.13,5.41-.22,8.11-.21A7.32,7.32,0,0,1,1000,607a13.27,13.27,0,0,0,1.87,1.47,32.32,32.32,0,0,0,.2-7.16c-.24-1.9-.52-2.14-2.4-2.24-3-.15-5.95-.35-8.92-.32-7.87.09-15.73.29-23.59.44-.57,0-1.33.13-1.68-.18a2.26,2.26,0,0,0-2.24-.39,18.23,18.23,0,0,1-5.21.29C956.59,598.91,955.18,599.05,953.59,599.13Z" transform="translate(-725.05 -278.14)"/><path class="cls-17" d="M867,718.46c1.07.23,2,.34,2.79.6a11.75,11.75,0,0,1,5.81,4,25.52,25.52,0,0,1,4.5,9.76l.57,2.18a4.13,4.13,0,0,0,1.43-2.33,52.53,52.53,0,0,1,6.09-12.4,32.1,32.1,0,0,1,7.12-8.11,10.91,10.91,0,0,1,6.49-2.63,5.76,5.76,0,0,1-.28,1.11,27.1,27.1,0,0,1-1.91,3.47c-3.79,5.18-6.59,10.9-9.35,16.65q-4,8.25-7.91,16.52c-.32.66-.68,1.31-1.12,2.15A8.3,8.3,0,0,1,880,748.2a36,36,0,0,1-3.41-5.16,173.16,173.16,0,0,1-8.94-22.47C867.42,720,867.27,719.36,867,718.46Z" transform="translate(-725.05 -278.14)"/><path class="cls-18" d="M1033.18,684.61a4.24,4.24,0,0,1-.09.88,40.55,40.55,0,0,1-1.41,4.06c-3.76,8.37-6.29,17.13-8.61,26-1,3.91-1.91,7.84-2.9,11.75a19.07,19.07,0,0,1-2.18,5.63,3.16,3.16,0,0,1-3.27-2.1,16.66,16.66,0,0,1-.86-3.37,23.31,23.31,0,0,1-.32-3.33,1.31,1.31,0,0,0-1.31-1.46c-.74-.08-1.47-.19-2.21-.29a3.78,3.78,0,0,1-2.5-1,3.64,3.64,0,0,1,2.19-2.38,18.48,18.48,0,0,1,2.82-1.09,1.68,1.68,0,0,0,1.34-1.82,46.61,46.61,0,0,1,1.61-10.69c2.46-9,7.63-15.9,16-20.27.42-.22.87-.41,1.31-.59C1032.86,684.52,1033,684.58,1033.18,684.61Z" transform="translate(-725.05 -278.14)"/><path class="cls-19" d="M1059.11,725.59c-3.7-14.88-8.56-29.07-17.47-41.47.46-.81,1-.49,1.55-.32a25.51,25.51,0,0,1,11.5,7.72,32.18,32.18,0,0,1,8.19,23.91,19.67,19.67,0,0,1-1.55,7A9.05,9.05,0,0,1,1059.11,725.59Z" transform="translate(-725.05 -278.14)"/><path class="cls-20" d="M996.8,686.81a19.43,19.43,0,0,1,6.28-.68,17.19,17.19,0,0,1,6.74,1.69c4.91,2.49,6.89,7.07,5.76,12.52a2.56,2.56,0,0,1-.32.59,16.65,16.65,0,0,1-2.14-1.25,37.06,37.06,0,0,1-3.46-3,37.37,37.37,0,0,0-6.83-5.44c-1.65-1-3.25-2.18-4.86-3.31A12.76,12.76,0,0,1,996.8,686.81Z" transform="translate(-725.05 -278.14)"/><path class="cls-21" d="M822.92,781.2c1.09-5.32,11-8.67,16.05-4.39-.51.45-1,.94-1.51,1.33a4.2,4.2,0,0,1-1.28.61c-3.21.94-6.41,1.89-9.62,2.78A4.85,4.85,0,0,1,822.92,781.2Z" transform="translate(-725.05 -278.14)"/><path class="cls-22" d="M824.6,785.08c1.52-.67,2.68-1.28,3.9-1.7,1.75-.61,3.57-1,5.31-1.62s3.49-1.47,5.24-2.19c.31-.13.85-.31,1-.18a1.38,1.38,0,0,1,.31,1.09,7.61,7.61,0,0,1-.89,2.34c-2.49,3.83-9.23,5.49-13.25,3.32C825.76,785.92,825.39,785.62,824.6,785.08Z" transform="translate(-725.05 -278.14)"/><path class="cls-23" d="M966.42,749.14a4.41,4.41,0,0,1-1.09,4.15c-2.48,3-8.22,4.41-11.79,2.85a19.7,19.7,0,0,1-2.37-1.51,19.49,19.49,0,0,1,2-.93c2.1-.7,4.23-1.33,6.33-2.05C961.75,750.87,964,750,966.42,749.14Z" transform="translate(-725.05 -278.14)"/><path class="cls-24" d="M1082.19,716.21a5.65,5.65,0,0,1-1.33.94c-3.13,1-6.25,2-9.42,2.83a7.61,7.61,0,0,1-4.51.18C1067.85,715.15,1077.79,711.7,1082.19,716.21Z" transform="translate(-725.05 -278.14)"/><path class="cls-25" d="M965.18,747c-3.83,1.36-7.43,2.73-11.11,3.88a20.17,20.17,0,0,1-4.25.4C950.36,746.81,960.15,742.27,965.18,747Z" transform="translate(-725.05 -278.14)"/><path class="cls-26" d="M901.16,421.31l1.57-1.22C902.58,420.83,902.5,421.65,901.16,421.31Z" transform="translate(-725.05 -278.14)"/><path class="cls-26" d="M1017.58,598.39c5.73.14,11.18-.3,16.65-.28s11.16-.25,16.74-.3,11,0,16.74,0c0,2.7.76,5.21.39,7.9a6.85,6.85,0,0,1-3-1.26c-1.17-.74-2.27-1.59-3.46-2.28a4.06,4.06,0,0,0-1.92-.59c-7,.05-14,.16-21,.26a4.65,4.65,0,0,0-.78.16,124.58,124.58,0,0,0,1.16,20.72c6.35.17,12.3-.63,17.68-4.76.35,4.77.44,9.26.56,14a8.79,8.79,0,0,1-1.4-.56,4.8,4.8,0,0,1-1.22-1,7.4,7.4,0,0,0-6.71-2.54c-2.7.2-5.39.36-8.28.55a6.92,6.92,0,0,0-.19,1.23q0,8,.14,15.94c0,1.22.09,2.44.15,3.66,0,.57.1,1.15.15,1.78a11.72,11.72,0,0,0,1.35.09c6.27-.22,12.53-.46,18.8-.67a9.67,9.67,0,0,0,7.63-4l3.15-4.06a47,47,0,0,1,.35,11.24c-1.1.1-2.24.25-3.39.29-8.76.35-17.52.71-26.29,1-3.34.1-6.69-.11-10-.05-1.53,0-3,.42-4.58.49-2,.09-3.9,0-6,0a4.21,4.21,0,0,1,.36-.8,18.63,18.63,0,0,0,3.4-10.46,40,40,0,0,0-.65-9.2,17.2,17.2,0,0,0-1-3.35,7.3,7.3,0,0,0-3.77-3.94c-.38-.18-.75-.38-1.32-.66.6-.82,1.12-1.6,1.7-2.33.83-1,1.71-2,2.55-3.06a3,3,0,0,0,.63-2.07c0-2.07.11-4.15.13-6.22,0-1.38,0-2.76,0-4.14a12.48,12.48,0,0,0-2.67-6.88c-.63-.85-1.3-1.68-1.93-2.53C1018.11,599.35,1017.93,599,1017.58,598.39Z" transform="translate(-725.05 -278.14)"/><path class="cls-26" d="M1075,579a9.22,9.22,0,0,1-1,1.3q-6.13,5.79-12.3,11.55a9.21,9.21,0,0,1-4.28,2,1.59,1.59,0,0,1-.78,0c-1.36-.4-2.7-.84-4.08-1.27.76-1.39,6.37-6.17,9-7.38-.89.85-1.79,1.69-2.66,2.56s-1.68,1.74-2.61,2.71a2.4,2.4,0,0,0,2.62.4,7.56,7.56,0,0,0,2-1.33c2.9-3.1,5.75-6.25,8.68-9.45l-.77-.66a14.12,14.12,0,0,1,6-.77Z" transform="translate(-725.05 -278.14)"/><path class="cls-26" d="M889.08,600.5c2.63-.08,5.16-.15,7.7-.24.62,0,1.24-.11,1.86-.14s1.38-.06,2.07,0c1.85,0,3.71.2,5.55.1,9.08-.47,18.17-.72,27.26-.5.9,0,1.81.09,2.71.11a1.25,1.25,0,0,1,1.26,1c.8,2.66.46,5.31,0,8a2.48,2.48,0,0,1-2-1c-2.84-2.76-2.3-2.19-5.75-2.2-3.08,0-6.16-.11-9.25-.08-2.92,0-5.84.15-8.76.25a10.52,10.52,0,0,0-1.08.16c-.76,6.55.42,13,.25,19.64a37.29,37.29,0,0,0,8.87.22,6.21,6.21,0,0,0,3.49-1.8c.58-.54,1.15-1.11,1.76-1.61a2,2,0,0,1,2-.59c0,3.86.43,7.75-.2,11.71a5.3,5.3,0,0,1-2.72-1.47,7,7,0,0,0-5.54-1.82c-2,.16-3.93,0-5.9,0h-1.62a7.14,7.14,0,0,0-.15.89c-.18,4.4-.41,8.81-.51,13.22-.06,2.39.06,4.78.17,7.16a7.33,7.33,0,0,0,1.75,4.53,15.8,15.8,0,0,1,1.33,2.28,6.25,6.25,0,0,1-1.1.28,57,57,0,0,1-6.52.27,79.84,79.84,0,0,0-10.94.28c-1.26.1-2.54,0-3.9,0a3.77,3.77,0,0,1,1-2.36c.78-1,1.61-2,2.43-3a2.7,2.7,0,0,0,.6-1.9c0-2.5.13-5,.18-7.49.05-1.8.12-3.61.08-5.42a7.38,7.38,0,0,0-2.63-5.75A17.09,17.09,0,0,1,891,631.5c-1.13-1.28-1.13-1.6.05-2.8.82-.82,1.71-1.59,2.61-2.34a2.51,2.51,0,0,0,.95-2.2c0-2.54.13-5.1.13-7.64,0-2.18,0-4.35-.14-6.52a6.79,6.79,0,0,0-2.06-4.38c-.73-.77-1.49-1.52-2.19-2.31A4.25,4.25,0,0,1,889.08,600.5Z" transform="translate(-725.05 -278.14)"/><path class="cls-26" d="M824.07,601.94c4,0,8.08-.12,12.1,0,2.58.1,5.14,0,7.71,0,2.27,0,4.54,0,7,0a16.33,16.33,0,0,1-.91,2.19,7,7,0,0,0-.56,6.29c.91,2.37,1.85,4.75,2.94,7,2.08,4.37,4.27,8.67,6.42,13,.38.76.77,1.52,1.18,2.26,1.85,3.3,4,6.25,7.82,7.7-.34.75-.67,1.41-.93,2.09a8.26,8.26,0,0,0,.44,7.24,42.17,42.17,0,0,0,3.65,5.19c1,1.28,2.18,2.43,3.56,3.94-8.61.24-16.83,1-25.44.83a19.31,19.31,0,0,1,1.5-2.36c2.26-2.56,2.34-5.48,1.44-8.54a13.54,13.54,0,0,0-3-5.19,2.42,2.42,0,0,0-2.07-.9c-6.7.19-13.39.34-20.09.49-.9,0-1.8,0-2.7-.07a5.16,5.16,0,0,0-4.92,2.63c-1.86,2.84-2.1,9.12,1.31,11.94a18.69,18.69,0,0,1,1.71,2c-5.19,0-10,.67-15.17.32.79-1.09,1.36-2,2-2.78.82-1.05,1.72-2,2.52-3.09a8.71,8.71,0,0,0,1.59-6.94,6.85,6.85,0,0,0-1.11-2.43c-1.69-2.72-1.61-3.6,1.13-5.28a15.86,15.86,0,0,0,5.37-5.76,56.37,56.37,0,0,0,4.66-10.29c1.43-4.22,2.73-8.49,4.09-12.73.81-2.53.4-4.69-1.78-6.42a14.38,14.38,0,0,1-1.72-2Zm21.29,35.59c-.24-.62-.37-1-.53-1.38-1.62-3.75-3.18-7.53-4.87-11.25-1.86-4.1-3.82-8.16-5.76-12.23-.23-.48-.33-1.16-1.34-1.24C829.7,620.22,826,628.86,823,638,830.56,638.2,837.89,638.38,845.36,637.53Z" transform="translate(-725.05 -278.14)"/><path class="cls-26" d="M953.59,599.13c1.59-.08,3-.22,4.42-.19a18.23,18.23,0,0,0,5.21-.29,2.26,2.26,0,0,1,2.24.39c.35.31,1.11.19,1.68.18,7.86-.15,15.72-.35,23.59-.44,3,0,5.94.17,8.92.32,1.88.1,2.16.34,2.4,2.24a32.32,32.32,0,0,1-.2,7.16A13.27,13.27,0,0,1,1000,607a7.32,7.32,0,0,0-5.79-2.54c-2.7,0-5.41.08-8.11.21-3.61.16-7.21.38-10.86.59-.33,1-.2,16.23.23,19.46,5.93,1.43,11.12-.21,15.8-4.06a50.84,50.84,0,0,1-.16,11.76,2.31,2.31,0,0,1-2.25-.87c-1.84-2.11-4.17-2.42-6.77-2.25-2.17.13-4.35,0-6.59,0a4.2,4.2,0,0,0-.17.81c0,5.52,0,11.05,0,16.58a22.06,22.06,0,0,0,1.2,7.2c.41,1.13,1,2.19,1.61,3.53-3.54,0-7,.06-10.38,0a35.55,35.55,0,0,0-5.55.17,51,51,0,0,1-6.46.06,16.81,16.81,0,0,1,1-1.71c1-1.34,2-2.61,2.94-4a3,3,0,0,0,.51-1.58c0-2.54,0-5.09,0-7.63,0-2,0-4-.12-6a6.6,6.6,0,0,0-2.4-4.53,26.28,26.28,0,0,1-2.46-2.49c-.86-1-.82-1.36.16-2.28s1.94-1.66,2.94-2.44a2.7,2.7,0,0,0,1.07-2.46c-.07-2.55.16-5.09.18-7.64,0-2.12,0-4.24-.14-6.35a6.26,6.26,0,0,0-1.94-3.92c-.74-.76-1.5-1.51-2.23-2.28A5.19,5.19,0,0,1,953.59,599.13Z" transform="translate(-725.05 -278.14)"/><path class="cls-27" d="M869.25,565.83c-12.52,2.47-25.63-6.2-28.1-18.58a23.46,23.46,0,0,1-.07-8.56,13.33,13.33,0,0,1,.7-2c9.82,10.8,21.94,17.62,35.56,22.19a15,15,0,0,1-3.68,4.48,3.77,3.77,0,0,1,2.82.53c4.72,2.6,9.88,3.79,15.12,4.7a112.4,112.4,0,0,0,16.17,1.5,9.47,9.47,0,0,1,1.07.18,12.64,12.64,0,0,1-.51,1.39,18,18,0,0,1-13.25,10.21,24,24,0,0,1-19.59-4.42,19,19,0,0,1-6.84-9.57A1.52,1.52,0,0,1,869.25,565.83Z" transform="translate(-725.05 -278.14)"/><path class="cls-28" d="M960.59,568.5c.1.23.19.47.37.9-1.06.25-2.07.52-3.08.74a77.27,77.27,0,0,1-21.08,1.23c-2.44-.16-4.86-.51-7.28-.85-1.46-.2-1.66-.51-1-1.88a21,21,0,0,1,4.91-7c5.84-5.17,12.68-6.81,20.3-5.39,1.73.33,2.07.77,2.19,2.57a11.84,11.84,0,0,0,.09,1.44,33.47,33.47,0,0,1,2.46-8.28l.52-1c.35-.46.7-.93,1-1.4a22,22,0,0,1,10.45-8,13.93,13.93,0,0,1,10,.07,30,30,0,0,1,4.56,2.22,9.59,9.59,0,0,1,1.61,1.54c-5.7,6.2-11.83,11.39-19.81,14-1,.33-2,.76-3,1.12-2.43.87-4.74,2.11-7.46,2.16-.06.78.2,1.08.9.93l3.87-.88c.47-.11.93-.21,1.39-.33s1,.08,1,.64a1.21,1.21,0,0,1-.59.93c-1.19.44-2.42.76-3.64,1.12l-2.63.78a7.33,7.33,0,0,0,4,2.72Z" transform="translate(-725.05 -278.14)"/><path class="cls-29" d="M956.35,461.59a5,5,0,0,1-7.72.89,4.33,4.33,0,0,1-1.35-3c0-1.93.85-2.81,2.82-2.78l.93,0a10.92,10.92,0,0,0,.25-4.82c-1.5-.47-3.54.65-4-1.82-.75,1.16-1.37,2.14-2,3.09-.11.16-.34.22-.66.42-.37-.35-.75-.69-1.1-1-.64-.65-1.23-1.33-1.88-2a4.93,4.93,0,0,0-3.33-1.34,2.15,2.15,0,0,0-2.5,1.49,3.21,3.21,0,0,1-.42.64c-2.87-1.89-3.1-1.9-5.49-.26-.35-.4-.73-.81-1.09-1.24a10.78,10.78,0,0,0-.89-1.13c-.8-.77-1.61-.58-1.93.47s-.45,1.86-.67,2.79c-.06.24-.13.49-.19.71-1.57,0-2.31-.45-2.69-1.76a11,11,0,0,1,.45-7.93,3.62,3.62,0,0,1,1-1.21,1.16,1.16,0,0,1,1.72.06c2,2.27,4.34,1.21,6.7,1l.41-3.41a3,3,0,0,1,3,.45,7.57,7.57,0,0,1,2.63,3.71c.22.57.48,1.12.87,2a6.22,6.22,0,0,0,.44-1.19c.16-1.59.27-3.18.41-4.77.06-.73,0-1.64.8-1.91s1.42.4,1.86,1a16.8,16.8,0,0,1,1.4,2.3c.28.49.48,1,.85,1.83.35-.79.53-1.26.77-1.7.42-.76.87-.87,1.54-.33a5.69,5.69,0,0,1,2,3,8.9,8.9,0,0,0,2.78,4.38c1.28,1.16,2.75,2.11,4.3,3.28.36-.5.71-.93,1-1.4.52-.83,1.31-.91,1.86-.08a2.59,2.59,0,0,1,.43,1.18,10.67,10.67,0,0,1-1.09,6.18c-.72,1.34-1.47,1.52-2.89.89-.64-.29-1.33-.89-2-.05-.44.54-.2,1.06.88,1.91C955,460.73,955.71,461.14,956.35,461.59Z" transform="translate(-725.05 -278.14)"/><path class="cls-30" d="M969.41,528.69c-.22.82-.38,1.25-.45,1.7a4.9,4.9,0,0,0,0,1.27c.5,4.17-1.21,7.68-3.31,11.06a4.85,4.85,0,0,1-3.24,2.38c-2.36.47-3.85-1.19-3.1-3.48a9.6,9.6,0,0,1,2.58-4c2.07-1.95,2.29-4.32,1.8-6.9-.2-1.06-.6-1.26-1.54-.72a18.74,18.74,0,0,0-2,1.44,1.61,1.61,0,0,1-.73-1.63,12,12,0,0,1,.45-3.12c.91-2.6,2-5.14,3-7.72a3.51,3.51,0,0,1,6-1.13c1.23,1.31,2.44,2.66,3.55,4.08,1.34,1.71,2.58,3.5,3.83,5.28a21.3,21.3,0,0,1,1.79,2.82c.58,1.18.17,1.84-1.12,2.23a3.64,3.64,0,0,1-2.79-.27,30.83,30.83,0,0,1-3.19-2C970.47,529.67,970.11,529.29,969.41,528.69Z" transform="translate(-725.05 -278.14)"/><path class="cls-31" d="M916.79,466.55a7.53,7.53,0,0,1-1.31-.33,8.44,8.44,0,0,0-3.71-.71c-2,0-3.93-.09-5.9-.11a4.47,4.47,0,0,0-2.75.47c-.33.22-1.28-.23-1.78-.6a1.25,1.25,0,0,1-.13-1.74,3.87,3.87,0,0,1,3.19-1.8c.84-.07,1.67-.2,2.48-.3,0-1.5-.24-1.81-1.43-1.77a18,18,0,0,0-2.06.21,4.16,4.16,0,0,1-4.67-3.83,6.32,6.32,0,0,1,.25-2c.28-.86.79-1,1.61-.59a14.41,14.41,0,0,1,1.34.85c1.15.76,1.22.74,2.06-.29a7.93,7.93,0,0,1,1.18-1.27,2,2,0,0,1,3.36.78l.43.85c.58,1.13,1,1.36,2.14,1.12a6.49,6.49,0,0,1,5.32.86c1.54,1.07,1.92,1.89,1.6,3.75-.27,1.57-.44,3.15-.7,4.72A15.07,15.07,0,0,1,916.79,466.55Z" transform="translate(-725.05 -278.14)"/><path class="cls-32" d="M943.59,486.08a14.77,14.77,0,0,1-1.11,1.6,24.06,24.06,0,0,0-4.76,7.28c-.7,1.79-1.91,1.45-2.67.28a12.07,12.07,0,0,1-1.15-2.08,1.3,1.3,0,0,0-1.45-.94c-2.91.22-4.83-1.62-6.75-3.36a3,3,0,0,1-.78-2.67,3.88,3.88,0,0,0-1.21-3.3c-.87-.93-1.72-1.87-2.58-2.81a2.32,2.32,0,0,1-.41-2.9c.69-1.31,1.32-1.58,2.7-1.05a11.92,11.92,0,0,1,6.67,6.26c.28.58.51,1.17.76,1.75.56,1.3.81,1.39,2.19,1A15.41,15.41,0,0,1,943.59,486.08Z" transform="translate(-725.05 -278.14)"/><path class="cls-33" d="M873.25,455.66a1.37,1.37,0,0,1,1.46-1.54,20.61,20.61,0,0,1,7.42.47,11.7,11.7,0,0,1,6,4.25,20.77,20.77,0,0,1,3.2,7.4c.22.81-.09,1.19-1,1.19-2.33,0-4.67-.09-7-.14a2.71,2.71,0,0,1-2.31-1.2,16,16,0,0,1-1.79-3A16.93,16.93,0,0,0,873.25,455.66Z" transform="translate(-725.05 -278.14)"/><path class="cls-34" d="M950.24,470c-.43.56-.61.81-.81,1.06s-.35.39-.55.61c.76,2.17,2.92,3.47,3.64,6-.75-.17-1.26-.24-1.73-.38-.91-.29-1.8-.65-2.71-.93-1.35-.41-2.68-.75-3.87.43-.4.41-.88.22-1.31-.05s-1-.61-1.45-.91c-.77.58-.43,1.22-.29,1.8a3.56,3.56,0,0,1-.62,3.17c-.54.74-.95.81-1.73.29a3.51,3.51,0,0,1-1.36-2.76c-.06-.57-.06-1.15-.08-1.62-.21-.16-.29-.27-.37-.28-2.38-.07-3.26-1.67-3.74-3.67-.59-2.42-.51-2.59,2-2.45a7.8,7.8,0,0,0,5-1.31,6.65,6.65,0,0,1,7.23-.36C948.31,469.12,949.21,469.54,950.24,470Z" transform="translate(-725.05 -278.14)"/><path class="cls-35" d="M899.76,475.48a9.58,9.58,0,0,1,1.27-2.07,14.12,14.12,0,0,1,5.7-3.37,7.16,7.16,0,0,1,6.6,1.39c1.1.84,2.1,1.8,3.61,1.84a1.24,1.24,0,0,1,.65.42c.85.89.26,3.66-.93,4a5.25,5.25,0,0,1-2.64,0,14.1,14.1,0,0,0-5.21-.28,4.48,4.48,0,0,0-3.26,1.8c-.35.46-.73.91-1.1,1.36a1.32,1.32,0,0,1-1.84.3c-.74-.39-.7-1-.57-1.64.09-.41.27-.8.4-1.2.38-1.21.1-1.79-1.1-2.17C901,475.69,900.53,475.64,899.76,475.48Z" transform="translate(-725.05 -278.14)"/><path class="cls-36" d="M959,551l-.52,1a2,2,0,0,0-.35.29,4.28,4.28,0,0,1-7.25-.4,13.48,13.48,0,0,1-1.65-11.09c3-1.41,5.31.21,6.87,2.08,1.12,1.34,2.29,2.64,3.3,4a2.85,2.85,0,0,1,.2,1.78A16.78,16.78,0,0,1,959,551Z" transform="translate(-725.05 -278.14)"/><path class="cls-37" d="M938.6,466.44c-2.8,0-4.5-1.24-5.26-3.65a10.58,10.58,0,0,1-.49-2.48c-.05-.87.5-1.28,1.33-1a3.42,3.42,0,0,0,3.54-.73c.63-.49,1.27-1,1.93-1.4a4,4,0,0,1,6.34,2.2,4.6,4.6,0,0,1-2,5.26A10.47,10.47,0,0,1,938.6,466.44Z" transform="translate(-725.05 -278.14)"/><path class="cls-38" d="M976.75,504.25a9,9,0,0,1-1.38-.24,118,118,0,0,0-18.07-4.16c-.13,0-.22-.22-.44-.45a22.52,22.52,0,0,1,1.32-2.26,1.5,1.5,0,0,1,1.11-.35c1.8.09,3.59.27,5.39.38s3.7.22,5.55.27a1.55,1.55,0,0,1,1.57.79,13.42,13.42,0,0,0,4.49,5.06,3,3,0,0,1,.6.68C976.85,504.06,976.8,504.16,976.75,504.25Z" transform="translate(-725.05 -278.14)"/><path class="cls-39" d="M919,504.93c-.71-1.83-1.38-3.43-2-5.07a1.47,1.47,0,0,1,.71-1.78c.44-.29.91-.53,1.57-.91-.07-.94-.16-2-.21-3a6.09,6.09,0,0,1,.07-1.71.82.82,0,0,1,1.57-.13,3.94,3.94,0,0,1,.44,1.5c.15,2,.23,4,.36,6a2.59,2.59,0,0,1-.9,2.37A11.77,11.77,0,0,0,919,504.93Z" transform="translate(-725.05 -278.14)"/><path class="cls-40" d="M909.92,501.76a9,9,0,0,1,1.52-4.27,1.34,1.34,0,0,1,1.65-.64c.78.29,1.66.52,1.86,1.54,0,.1,0,.21,0,.31.36,3-.38,3.73-3.44,3.29Z" transform="translate(-725.05 -278.14)"/><path class="cls-41" d="M940.37,497.68a3.65,3.65,0,0,1,.81-4.47,2.68,2.68,0,0,1,3.75,1.46,1.24,1.24,0,0,1-.82,1.4C942.88,496.66,941.61,497.15,940.37,497.68Z" transform="translate(-725.05 -278.14)"/><path class="cls-42" d="M939.66,540.15c0-1.18.52-1.63,1.26-1.4a3.6,3.6,0,0,1,2.14,3.48,2,2,0,0,1-.55,1.1A2.4,2.4,0,0,1,941,544c-.32,0-.72-.69-.84-1.14A25,25,0,0,1,939.66,540.15Z" transform="translate(-725.05 -278.14)"/><path class="cls-43" d="M926.56,501.27a6.73,6.73,0,0,1,.41-8.16c.24.32.67.63.64.9-.19,2.26-.46,4.51-.72,6.76C926.88,500.9,926.73,501,926.56,501.27Z" transform="translate(-725.05 -278.14)"/><path class="cls-44" d="M931.53,495.87c.68,0,1.77.91,1.77,1.5a2.34,2.34,0,0,1-2.15,2c-.79,0-1.13-.37-1.13-1.33S930.79,495.88,931.53,495.87Z" transform="translate(-725.05 -278.14)"/><path class="cls-45" d="M947.23,500.27c0,.6-1,1.4-1.72,1.41a1,1,0,0,1-1-1c0-.9.92-2,1.55-2A2,2,0,0,1,947.23,500.27Z" transform="translate(-725.05 -278.14)"/><path class="cls-46" d="M964.43,424.76l-2.49-1.23c7.2-13.86,14.37-27.65,21.59-41.53l2.82.74C979,396.79,971.76,410.72,964.43,424.76Z" transform="translate(-725.05 -278.14)"/><path class="cls-47" d="M975.18,431.41,973,429.94c8.17-12.23,16.3-24.4,24.5-36.69.52.24,1,.43,1.45.66s.82.46,1.37.78Z" transform="translate(-725.05 -278.14)"/><path class="cls-48" d="M1010.57,408.29l2.41,1.52c-9.1,10.32-18.11,20.54-27.21,30.84l-1.86-2Z" transform="translate(-725.05 -278.14)"/><path class="cls-49" d="M1019.49,422.58l2.14,2L994,449.53l-1.78-2.22Z" transform="translate(-725.05 -278.14)"/><path class="cls-50" d="M1029.42,450.09l1.51,2.36-25.65,14.7c-.55-1-1-1.82-1.61-2.79Z" transform="translate(-725.05 -278.14)"/><path class="cls-51" d="M999.92,457.56l-1.6-2.13,27.07-20.14c.58.64,1.11,1.2,1.75,1.89Z" transform="translate(-725.05 -278.14)"/><path class="cls-52" d="M946.92,417.32l-2.81-.89c2.21-8.14,4.39-16.19,6.62-24.39l3,1c-.94,4.11-2.24,8.07-3.35,12.08S948.12,413.16,946.92,417.32Z" transform="translate(-725.05 -278.14)"/><path class="cls-53" d="M965.51,398.3l3.14,1.12c-3.35,7.6-6.63,15.07-10,22.7L956.3,421C959.37,413.44,962.41,406,965.51,398.3Z" transform="translate(-725.05 -278.14)"/><path class="cls-54" d="M1009.21,475.9l-1-2.52,23.56-10.78,1.37,2.36Z" transform="translate(-725.05 -278.14)"/><path class="cls-55" d="M971,428.74c-.56-.35-1-.59-1.35-.85s-.66-.51-1-.82c4-6.77,7.88-13.48,11.85-20.29l2.54,1.33Z" transform="translate(-725.05 -278.14)"/><path class="cls-56" d="M981,436.31l-2.2-1.79c4.57-6,9.1-11.88,13.72-17.93l2.6,1.33Z" transform="translate(-725.05 -278.14)"/><path class="cls-57" d="M1032.55,475.61l1.23,2.44-21.72,7.89c-.25-.77-.49-1.49-.79-2.39Z" transform="translate(-725.05 -278.14)"/><path class="cls-58" d="M990,444.68l-1.78-1.76,14.61-15.06,2.38,2.06Z" transform="translate(-725.05 -278.14)"/><path class="cls-59" d="M1012.48,441.2l-15.24,12.29c-.6-.8-1.12-1.51-1.74-2.35l15.14-12.23Z" transform="translate(-725.05 -278.14)"/><path class="cls-60" d="M1013.78,495.31c-.17-1.15-.29-2-.44-3.05l17.6-4.2,1,2.78Z" transform="translate(-725.05 -278.14)"/><path class="cls-61" d="M1002.66,462.13c-.5-.89-.92-1.66-1.41-2.54l15.79-10,1.6,2.08Z" transform="translate(-725.05 -278.14)"/><path class="cls-62" d="M1007.53,471.33l-1.34-2.21,16.94-8.63,1.42,2.13Z" transform="translate(-725.05 -278.14)"/><path class="cls-63" d="M1015,501l15.35-1,.27,3-15.45,1A6.81,6.81,0,0,1,1015,501Z" transform="translate(-725.05 -278.14)"/><path class="cls-64" d="M1012.91,490.45l-.56-2.72c5.13-1.58,10.29-2.85,15.57-4.37.15,1,.29,1.82.45,2.78Z" transform="translate(-725.05 -278.14)"/><path class="cls-65" d="M1011.06,481.26l-1.09-2.4,16.08-6.27,1.26,2.14Z" transform="translate(-725.05 -278.14)"/><path class="cls-66" d="M1028.2,494.63l.31,2.93-14.18,2c-.07-1-.13-1.79-.2-2.84Z" transform="translate(-725.05 -278.14)"/><path class="cls-67" d="M1027,505v3.08c-1.07.4-9.38.84-11.61.6v-2.87Z" transform="translate(-725.05 -278.14)"/><path class="cls-68" d="M1014.8,520.59c.06-1.16.1-2.1.16-3.27l7.51.29v3Z" transform="translate(-725.05 -278.14)"/><path class="cls-69" d="M1018.31,532.31l-5.48-.62c.08-.79.15-1.5.24-2.37l5.85.51c-.24.93-.44,1.72-.64,2.51Z" transform="translate(-725.05 -278.14)"/><path class="cls-70" d="M807.88,432.28c.63-1,1.16-1.88,1.78-2.88L837.32,452c-.5.76-1,1.45-1.49,2.3Z" transform="translate(-725.05 -278.14)"/><path class="cls-71" d="M802.75,446.84l1.43-2.71L831,461.87c-.35.75-.68,1.44-1.1,2.32Z" transform="translate(-725.05 -278.14)"/><path class="cls-72" d="M800,462c.35-1,.65-1.84,1-2.91l25,13.18c-.41.83-.77,1.56-1.21,2.47Z" transform="translate(-725.05 -278.14)"/><path class="cls-73" d="M799.42,475.81c.19-.9.35-1.71.56-2.74l22.55,8.58c-.2.82-.37,1.53-.6,2.46Z" transform="translate(-725.05 -278.14)"/><path class="cls-74" d="M799.62,487.74c.25-1.09.44-1.95.67-3l20,5.61c-.11.53-.18.93-.29,1.33s-.25.78-.42,1.3Z" transform="translate(-725.05 -278.14)"/><path class="cls-75" d="M832.94,459.42,816.26,449.2l1.47-2.91,16,10.59Z" transform="translate(-725.05 -278.14)"/><path class="cls-76" d="M827.31,469.47,811.89,461l1.58-2.36,15,8.4C828.1,467.86,827.74,468.61,827.31,469.47Z" transform="translate(-725.05 -278.14)"/><path class="cls-77" d="M818.49,501.13c-.06.95-.1,1.72-.16,2.64l-16.49-2.42.24-1.55c.07-.42.14-.83.25-1.45C807.72,499.13,813,500.21,818.49,501.13Z" transform="translate(-725.05 -278.14)"/><path class="cls-78" d="M823.74,476.28l-.84,3c-4.75-1.93-9.36-3.94-14-6,.33-1,.63-1.79,1-2.78Z" transform="translate(-725.05 -278.14)"/><path class="cls-79" d="M807.38,484.89c.28-1.08.51-1.93.79-3l13.3,3.64-.75,3.24Z" transform="translate(-725.05 -278.14)"/><path class="cls-80" d="M805.3,512.35v-3.16c4.32.09,8.56.43,12.92.73v3.15C813.88,513,809.69,512.58,805.3,512.35Z" transform="translate(-725.05 -278.14)"/><path class="cls-81" d="M806.81,496.5c.07-1.1.12-1.93.18-3l12.58,2.08c-.18.94-.33,1.74-.52,2.71Z" transform="translate(-725.05 -278.14)"/><path class="cls-82" d="M818.71,520.16c.11.86.22,1.69.36,2.72l-9.82.42v-3.14Z" transform="translate(-725.05 -278.14)"/><path class="cls-83" d="M808.31,504.28l10,.92v2.46l-10-.49Z" transform="translate(-725.05 -278.14)"/><path class="cls-84" d="M818.28,514.49v2.92c-2.74,0-5.4,0-8.17,0v-2.64Z" transform="translate(-725.05 -278.14)"/><path class="cls-85" d="M814,528.13c-.14-1.18-.26-2.12-.41-3.25h5.9c.16.69.35,1.48.57,2.44Z" transform="translate(-725.05 -278.14)"/><path class="cls-86" d="M819.89,529.13c.26.86.47,1.6.75,2.52l-6.32.9c-.23-.85-.44-1.64-.69-2.6C815.67,529.44,817.7,529.45,819.89,529.13Z" transform="translate(-725.05 -278.14)"/><path class="cls-87" d="M820.63,532.8l1,2.52-3.5,1c-.27-1-.51-1.91-.8-3Z" transform="translate(-725.05 -278.14)"/><path class="cls-88" d="M823.68,541.91l-1.89.36c-.35-.56-.67-1.08-1.09-1.74l2-.66Z" transform="translate(-725.05 -278.14)"/><path class="cls-5" d="M845.36,637.53c-7.47.85-14.8.67-22.34.51,2.93-9.18,6.68-17.82,9.84-26.61,1,.08,1.11.76,1.34,1.24,1.94,4.07,3.9,8.13,5.76,12.23,1.69,3.72,3.25,7.5,4.87,11.25C845,636.52,845.12,636.91,845.36,637.53Zm-1.81-.95c-.3-.82-.52-1.51-.8-2.18q-3.9-9.06-7.84-18.11c-.13-.29-.48-.48-.72-.72-.22.26-.54.49-.65.79q-3.46,9.24-6.88,18.5c-.22.58-.35,1.2-.57,2C831.93,636.83,837.64,637.14,843.55,636.58Z" transform="translate(-725.05 -278.14)"/><path class="cls-89" d="M883.47,309.63l-.26.45a17.27,17.27,0,0,1-4.25-.38q-4.32-1-4.32-6c0-1.17-.62-1.77-1.87-1.81l-7-.2a1.82,1.82,0,0,0-1.1.2,3.38,3.38,0,0,0-.45,1.23l-.72,5.8q-.19,1.68-.33,6l-.19,5.81a6.82,6.82,0,0,0,1.09,4.45l-.19.39-3.74.32-3.55.13a2.17,2.17,0,0,1-2-.71l-.33-.9-.12-1.55.19-4.26.39-4.45a24.8,24.8,0,0,1,.19-3.1l.39-2.64.32-2.39.39-2.78.06-1c0-.61-.49-.91-1.48-.91l-4.46-.13a1.49,1.49,0,0,0-1.41,1l-.59,1.68a7.59,7.59,0,0,1-2.77,3.42,8.38,8.38,0,0,1-5.61,1.74l-1.3-.13-.25-.32q1.74-1,1.74-6.58v-1.23c0-.86.26-1.29.77-1.29l1,.07,4.64.06,9.55.13c.26,0,.41-.24.45-.58l-.12-.58-.2-1L854.76,294l-1-2.84a12.28,12.28,0,0,1-.84-4.26q0-3.75,4.45-5.62a28.91,28.91,0,0,1,11.1-1.87q3.81,0,5.42,1.81a3.39,3.39,0,0,1,1,1.81l.19,1.22.13,1.29a8.9,8.9,0,0,1-.51,3.55c-.56,1.77-2.05,3.12-4.46,4.07l-2.45.58-1.74.32c-.69.13-1.16.24-1.42.32a1.35,1.35,0,0,0-.9,1.1l.06.45.58,2.13.2,1,.06,1.16,16.26.39a6.09,6.09,0,0,1,1.58.13c.28.08.4.43.36,1l-.07,1.29-.19,1.87-.13,1.87C882.31,308.3,882.66,309.25,883.47,309.63Zm-15.61-25.49q-.14-3.22-3.45-3.22a3.19,3.19,0,0,0-2.54,1,8.08,8.08,0,0,0-1.17,2.58l-.2,1v1a8.67,8.67,0,0,0,1,3.81c.13.3.34.76.64,1.36l1,2.19a4.17,4.17,0,0,0,2.06-.9l1-1q1.68-1.43,1.68-5.68v-1.29Z" transform="translate(-725.05 -278.14)"/><path class="cls-90" d="M948.59,290.47l.19,1.22.06,1.1-.06,1.23v.32c0,.17,0,.28-.07.32l-.19.84a6.27,6.27,0,0,1-4.65,4.84l-2.25.71-4.07,1-3.87,1.16a14.68,14.68,0,0,1-4.26.58,5.33,5.33,0,0,1-3.65-1.48,5.27,5.27,0,0,1-1.84-3.42l-.32-2.77v-9c0-2-.71-3-2.13-3a2.87,2.87,0,0,0-2.52,1.74,22.62,22.62,0,0,0-1.48,5l-1.68,7.42q-.72,3.11-1.42,7.81L913.16,314a45.86,45.86,0,0,0-.52,6.13c0,2,.34,3.38,1,4.07l-.51.84-1.75.06c-.12,0-.68.06-1.67.19l-3.42.52-1.55.06a2.2,2.2,0,0,1-1.68-.45,2.12,2.12,0,0,1-.58-1.68v-.51l.06-.58c.3-2.93.76-5.87,1.36-8.84l1.81-8.78h-2.83l-1.87.08-2.44.31-2.38.24-1.93.08c-2.7.09-4.41-1.38-5.14-4.39l-.26-2a13.17,13.17,0,0,1,.71-4.52,12.51,12.51,0,0,1,5.62-7.48,24.25,24.25,0,0,1,13-3.29l5-.07a19.51,19.51,0,0,0,3.87-.45l3.48-.77,4.46-.52,2.64-.13a3.92,3.92,0,0,1,1.87.13,3.36,3.36,0,0,1,1.55,1.16,40.6,40.6,0,0,1,4.26-1.35l4.45-.78.46-.06h.32a7.37,7.37,0,0,1,5.61,2.71,12.31,12.31,0,0,1,1.49,2.9Zm-38.79-3.68c0-1-.58-1.4-1.75-1.36l-1.49.07a4.68,4.68,0,0,0-1.36.13,6.87,6.87,0,0,0-3.44,1.8,16.21,16.21,0,0,0-1.43,1.94c-.26.52-.63,1.4-1.1,2.65l-.85,2.64-.39,2.58v3.29a2.93,2.93,0,0,0,2.78,3.17l2.19.12h1.87a.59.59,0,0,0,.33-.06l.83-.19Zm30.85,9.94v-1.42l-.07-.65-.19-1.1a11.88,11.88,0,0,0-.65-2.84l-.38-1.29-.84-2.32a3.55,3.55,0,0,0-.91-1.74,2.75,2.75,0,0,0-1.48-1l-1.16-.13a9.61,9.61,0,0,0-3.23.77l.13,1.74v1.94l.2,7.1a5.2,5.2,0,0,0,.13.77l.13,1,.39,1.29a3.18,3.18,0,0,0,1.17,1.65,2.92,2.92,0,0,0,2.08.74h.91l.84-.19a3.3,3.3,0,0,0,3-3.55V297Z" transform="translate(-725.05 -278.14)"/><path class="cls-91" d="M982.66,325.18l-.45.65-3.42.32-3.36.13c-1.29,0-2.09-.18-2.39-.68a5.86,5.86,0,0,1-.32-3L974,295.5a3.52,3.52,0,0,0-1-2l-.72-.77a3,3,0,0,0-1.94-.59,7.3,7.3,0,0,0-6.68,3.62,21.48,21.48,0,0,0-1.11,2.64c-.26.86-.52,2-.78,3.29l-.19,1.75v3.35q-.2,3.81,1.48,5l-.06.71-6.65.71a4.4,4.4,0,0,1-2.9-.71,6.15,6.15,0,0,1-.52-3.17,25.83,25.83,0,0,1,1.16-7c1.17-4,3-6.71,5.49-8.26a1.61,1.61,0,0,0-1.1-.71l-1.16-.19-1-.07h-1.48c-1.16.05-1.92-.28-2.26-1a7.4,7.4,0,0,1-.32-2.71v-1.29l.19-5.35a4.24,4.24,0,0,0-.13-1.42l-.13-.45-.13-.46a5.49,5.49,0,0,0-.58-1.22l.13-.32.58-.07.91-.06,2.51-.46,2.2-.19c1.8,0,2.92.32,3.35,1a10.3,10.3,0,0,1,.39,3.81q0-.14-.57,3.93l-.14,1.36v3.1l.06.83c0,.35.35.52.91.52a4.63,4.63,0,0,0,1.29-.39,16.75,16.75,0,0,1,4.52-1.29l2.51-.19,3-.13A9.15,9.15,0,0,1,980,293a8.41,8.41,0,0,1,2.64,6.46V300l-.06.51-.78,22C981.71,323.87,982,324.76,982.66,325.18Z" transform="translate(-725.05 -278.14)"/><path class="cls-92" d="M1067.62,583.76c-.19.19-.37.39-.55.58a4.16,4.16,0,0,0-1.49,1.65l-.19.19a4.26,4.26,0,0,0-1.49,1.66,2.82,2.82,0,0,0-.79.86,4.13,4.13,0,0,0-1.43,1.56l-.42.37c-.14,0-.21.11-.16.27a.18.18,0,0,0,0,.27h0c-.34-.28-.51.07-.73.21a.5.5,0,0,0-.47.23,5.48,5.48,0,0,1-1.59.69.35.35,0,0,0-.53,0h-.37v0c-.13-.32-.35-.31-.6-.16l-1.17-.23a.17.17,0,0,0,0-.12.58.58,0,0,0-.1-.59c2.36-2.36,4.63-4.79,7.11-7,.32-.29.59-.63.89-1a14.46,14.46,0,0,0,2.76-2.6l.21-.19a.41.41,0,0,0,.45-.3.14.14,0,0,0,.11-.07,18.9,18.9,0,0,1,3.22-1c.37-.08.87-.33,1.11,0s-.22.7-.46,1-.64.49-.7.93a.88.88,0,0,0-.44.47c-.24.08-.43.19-.46.47a.13.13,0,0,0-.08.11A4.52,4.52,0,0,0,1067.62,583.76Z" transform="translate(-725.05 -278.14)"/><path class="cls-92" d="M901.38,659a4.58,4.58,0,0,0,0-1.73c-.08-7.74-.13-15.47-.29-23.21-.07-3.91-.06-7.82-.18-11.73-.21-7-.28-14.07-.39-21.1,0-.32,0-.63-.08-1a1.1,1.1,0,0,1,1.22-.68c.78.05,1.58,0,2.37,0a.91.91,0,0,1,1,.58,2.82,2.82,0,0,0-.16,1.12q0,28.28,0,56.57c0,.26,0,.52,0,.78A13.18,13.18,0,0,1,901.38,659Z" transform="translate(-725.05 -278.14)"/><path class="cls-92" d="M966.69,657.47a4.68,4.68,0,0,0,0-1.71c-.08-7.66-.14-15.32-.29-23-.08-3.87-.06-7.74-.18-11.61-.21-7-.28-13.92-.39-20.88,0-.31-.06-.62-.09-.94a1.12,1.12,0,0,1,1.23-.67c.78,0,1.58,0,2.37,0a.92.92,0,0,1,1,.57,2.8,2.8,0,0,0-.16,1.11v56c0,.26,0,.51,0,.77A13.18,13.18,0,0,1,966.69,657.47Z" transform="translate(-725.05 -278.14)"/><path class="cls-92" d="M1030.25,654.82a4.42,4.42,0,0,0,0-1.66c-.09-7.43-.14-14.87-.29-22.3-.08-3.76-.07-7.52-.18-11.27-.21-6.76-.29-13.52-.39-20.27,0-.31-.06-.61-.09-.92a1.1,1.1,0,0,1,1.22-.65c.79,0,1.58,0,2.37,0a.92.92,0,0,1,1,.56,2.75,2.75,0,0,0-.15,1.07v54.35c0,.25,0,.51,0,.76A13.54,13.54,0,0,1,1030.25,654.82Z" transform="translate(-725.05 -278.14)"/><path class="cls-92" d="M863.36,659.36a11.39,11.39,0,0,0-1.34-3q-5.38-11.08-10.85-22.14c-3.41-7-6.78-13.92-10.28-20.83-1.86-3.68-3.43-7.48-5.46-11.09-.06-.41.08-.7.57-.69,1.41,0,2.81.08,4.22.14a1,1,0,0,1,.72.34,7.72,7.72,0,0,0,.87,1.92l11,23.13q3.21,6.74,6.43,13.47c1.75,3.66,3.56,7.3,5.27,11,1.17,2.54,2.5,5,3.52,7.61C866.47,659.39,864.94,660,863.36,659.36Z" transform="translate(-725.05 -278.14)"/><path class="cls-93" d="M725.93,653.81a.38.38,0,0,1,.38.39C726,654.21,725.91,654.09,725.93,653.81Z" transform="translate(-725.05 -278.14)"/><path class="cls-5" d="M725.05,630.24a6.37,6.37,0,0,0,4-4.81c.31-1.3.49-2.64.88-3.91a28.61,28.61,0,0,1,7.93-12.59,5.1,5.1,0,0,1,1.25-.65c-.1.58-.2,1.16-.3,1.77a6.75,6.75,0,0,0-.93.56,6.59,6.59,0,0,0-.76.82,30.35,30.35,0,0,0-6.86,14c-.4,1.91-.91,3.4-2.74,4.51s-1.87,3.52-.19,5.09a7.12,7.12,0,0,0,1.55,1.12,8.67,8.67,0,0,1,4.52,6c.63,2.54,1.15,5.11,1.85,7.63a23.66,23.66,0,0,0,1.76,4.62,4.58,4.58,0,0,0,2.16,2,6.27,6.27,0,0,1,2.63,2,4.47,4.47,0,0,0,2.16,1.52,40.38,40.38,0,0,0,15.88,2.66A22.4,22.4,0,0,0,770.21,660a27.64,27.64,0,0,1,4.7-2,5.32,5.32,0,0,1,6.26,1.54,5.24,5.24,0,0,0,1.24,1,3.15,3.15,0,0,0,.89.25c0-1.68,0-3.22,0-4.77s.23-3.09.26-4.64a20.31,20.31,0,0,0-.16-4.76l-2.09,1.51a57.29,57.29,0,0,1-10,6.1A22.93,22.93,0,0,1,760,656.36a12.24,12.24,0,0,1-11.11-10.16,63.12,63.12,0,0,1-.64-10.73c0-6.69.55-13.38.07-20.08a3,3,0,0,1,.46-1.64,12.6,12.6,0,0,1,8.18-6,17.42,17.42,0,0,1,10.37,1.1,47.91,47.91,0,0,1,9.44,5.44q2.71,1.85,5.48,3.65a15.4,15.4,0,0,0,1.61.77c-.23-4.91-.45-9.53-.68-14.41a16,16,0,0,0-1.89.73,19.41,19.41,0,0,0-1.71,1.19,5.12,5.12,0,0,1-5.17.68c-1.38-.56-2.74-1.2-4.08-1.87a21.19,21.19,0,0,0-5.87-2.08,34.62,34.62,0,0,0-11-.36,20.24,20.24,0,0,0-9.14,3.25,19.27,19.27,0,0,1-5.16,2.51,7.23,7.23,0,0,1,1.06-1.31,27.31,27.31,0,0,1,12.55-5.41,31.39,31.39,0,0,1,13.36.74,35.44,35.44,0,0,1,4.33,1.66c1.34.56,2.62,1.24,4,1.75a5.05,5.05,0,0,0,5.14-.84,16.63,16.63,0,0,1,2.4-1.59c1.36-.69,1.83-.57,2.31.86a30.11,30.11,0,0,1,1.32,5.27,77.87,77.87,0,0,1,.36,12.1,7.53,7.53,0,0,1-1.38-.56c-1.94-1.23-3.89-2.47-5.78-3.77-3.09-2.12-6.11-4.35-9.62-5.78a17.25,17.25,0,0,0-10.05-1.18,12.25,12.25,0,0,0-8.34,6,4,4,0,0,0-.46,2c.07,5.94.18,11.89.29,17.83.07,3.53.26,7.07.22,10.6a7.38,7.38,0,0,0,3.31,6.25,10.78,10.78,0,0,0,6.49,2,27.26,27.26,0,0,0,14.76-4.27c1.73-1.06,3.29-2.4,5-3.54,1.18-.8,2.43-1.5,3.56-2.18.95.55.87,1.23.91,1.94a5.9,5.9,0,0,0,.46,2.3,7.34,7.34,0,0,1,.86,3.38c0,1.18,0,2.36-.09,3.53-.23,2.82-.52,5.64-.8,8.64a6.62,6.62,0,0,1-1.1-.58c-.58-.46-1.11-1-1.69-1.48a4.93,4.93,0,0,0-4.64-1.12,12.3,12.3,0,0,0-2.85,1,29.85,29.85,0,0,1-12.44,3.47A42.45,42.45,0,0,1,748,665a17,17,0,0,1-9.73-6.92,31,31,0,0,1-5.16-12.51c-.14-.79-.32-1.57-.49-2.36a7.33,7.33,0,0,0-2.46-4c-1.53-1.33-3.07-2.66-4.63-4-.1-.09-.3-.06-.45-.09Z" transform="translate(-725.05 -278.14)"/><path class="cls-26" d="M739.08,608.35a19.27,19.27,0,0,0,5.16-2.51,20.24,20.24,0,0,1,9.14-3.25,34.62,34.62,0,0,1,11,.36,21.19,21.19,0,0,1,5.87,2.08c1.34.67,2.7,1.31,4.08,1.87a5.12,5.12,0,0,0,5.17-.68,19.41,19.41,0,0,1,1.71-1.19,16,16,0,0,1,1.89-.73c.23,4.88.45,9.5.68,14.41a15.4,15.4,0,0,1-1.61-.77q-2.76-1.8-5.48-3.65a47.91,47.91,0,0,0-9.44-5.44,17.42,17.42,0,0,0-10.37-1.1,12.6,12.6,0,0,0-8.18,6,3,3,0,0,0-.46,1.64c.48,6.7,0,13.39-.07,20.08a63.12,63.12,0,0,0,.64,10.73A12.24,12.24,0,0,0,760,656.36a22.93,22.93,0,0,0,11.38-2.19,57.29,57.29,0,0,0,10-6.1l2.09-1.51a20.31,20.31,0,0,1,.16,4.76c0,1.55-.21,3.09-.26,4.64s0,3.09,0,4.77a3.15,3.15,0,0,1-.89-.25,5.24,5.24,0,0,1-1.24-1,5.32,5.32,0,0,0-6.26-1.54,27.64,27.64,0,0,0-4.7,2,22.4,22.4,0,0,1-10.33,2.53A40.38,40.38,0,0,1,744,659.86a4.47,4.47,0,0,1-2.16-1.52,6.27,6.27,0,0,0-2.63-2,4.58,4.58,0,0,1-2.16-2,23.66,23.66,0,0,1-1.76-4.62c-.7-2.52-1.22-5.09-1.85-7.63a8.67,8.67,0,0,0-4.52-6,7.12,7.12,0,0,1-1.55-1.12c-1.68-1.57-1.74-3.91.19-5.09s2.34-2.6,2.74-4.51a30.35,30.35,0,0,1,6.86-14,6.59,6.59,0,0,1,.76-.82,6.75,6.75,0,0,1,.93-.56c.1-.61.2-1.19.3-1.77Z" transform="translate(-725.05 -278.14)"/><path class="cls-92" d="M739.67,656.53q-.23-17-.44-34-.09-6.21-.2-12.41c0-.16,0-.31,0-.46,0-.43,0-.85,0-1.28.24-.48.78-.6,1.19-.87l2.77-1,.42.06c0,.29,0,.59,0,.88q0,26,0,51.89c-.39,0-.58-.31-.9-.42a7,7,0,0,0-2.81-2.26C739.7,656.67,739.68,656.6,739.67,656.53Z" transform="translate(-725.05 -278.14)"/></svg>