<svg width="108" height="110" viewBox="0 0 108 110" fill="none" xmlns="http://www.w3.org/2000/svg">
<path fill-rule="evenodd" clip-rule="evenodd" d="M71.1818 0.519937L87.8521 0V6.01569C87.5739 6.03717 87.2442 6.08015 86.9146 6.07585C85.9363 6.04208 84.9593 6.17428 84.0249 6.46687C83.1688 6.72561 82.4281 7.27324 81.9281 8.01709C81.428 8.76094 81.1994 9.65534 81.2807 10.5489L82 10.9786C93.5245 18.017 101.217 28.0231 105.079 40.9969C105.889 43.8526 106.426 46.7791 106.684 49.7369C106.985 52.6916 107.073 55.6641 106.95 58.6315C106.666 67.1648 104.217 75.4842 99.8347 82.8017C95.0394 90.8535 88.2146 97.4947 80.0478 102.056C74.8525 104.955 69.2223 106.986 63.3775 108.072C60.3412 108.663 57.2575 108.976 54.1647 109.004C46.6595 109.045 39.2331 107.468 32.3871 104.381C27.4682 102.198 22.8533 99.4909 18.8163 95.9159C10.113 88.2072 4.01678 78.8528 1.29404 67.4101C0.175667 62.6676 -0.221254 57.7826 0.11676 52.9209C0.512315 45.9261 2.28145 39.0788 5.32248 32.7726C8.74536 25.6452 13.6831 19.3573 19.7881 14.3517C19.9317 14.2479 20.0466 14.1089 20.1215 13.9479C20.1964 13.787 20.229 13.6094 20.2162 13.4322C20.1648 11.881 20.1434 10.3255 20.1091 8.77002C20.1091 8.61533 20.0835 8.46494 20.0621 8.2372H17.1895C17.151 5.7364 17.1167 3.30004 17.0825 0.794933C17.2866 0.761397 17.4924 0.738448 17.6989 0.726181C22.1826 0.726181 26.6663 0.726181 31.1499 0.726181C31.6049 0.728919 32.0579 0.788093 32.4984 0.902356C33.1122 1.01169 33.6678 1.33503 34.0672 1.81535C34.4666 2.29567 34.6843 2.90213 34.6818 3.52778C34.7289 4.29693 34.6818 5.07467 34.6818 5.89968C34.883 5.85241 35.0542 5.81803 35.2169 5.76217C38.8719 4.5061 42.6464 3.63205 46.4803 3.15394C50.2747 2.67083 54.1063 2.54997 57.9235 2.793C61.2584 3.00355 64.4691 3.81567 67.6542 4.75669C68.4805 4.99732 69.2981 5.26373 70.1458 5.53014C70.8564 4.83833 71.0448 3.94888 71.1347 3.04223C71.1946 2.47503 71.1604 1.89925 71.1647 1.32346C71.1861 1.07853 71.1818 0.842206 71.1818 0.519937ZM97.4545 83.2958C98.1309 82.5782 98.5076 81.6759 99.0599 80.7606L95.4124 80.563C95.4895 80.1118 95.5537 79.7036 95.6222 79.3341C96.9065 79.377 98.1052 79.4028 99.3081 79.463C99.4409 79.4876 99.578 79.4634 99.6944 79.3947C99.8108 79.3261 99.8986 79.2176 99.9417 79.0891C100.417 78.0278 100.909 76.975 101.393 75.9137C101.432 75.7906 101.46 75.664 101.474 75.5356L96.0631 75.6731V74.384L102.057 74.1305C105.764 64.8105 107.399 50.4974 102.318 37.6582C97.844 26.3444 90.5406 17.5787 80.0007 11.5286L75.9937 14.4806L76.379 14.8416L69.1012 34.543L67.8169 34.0875L74.5039 15.6494C74.2898 15.7783 74.1956 15.8213 74.11 15.8857C71.6299 17.7019 69.1512 19.5224 66.6739 21.3471C66.4348 21.52 66.2708 21.7784 66.2158 22.069C65.6421 24.3936 65.0514 26.714 64.4691 29.0343C64.2294 29.9839 63.9897 30.9292 63.7457 31.9089C64.5548 32.1066 64.3193 32.8672 64.5633 33.3484C65.4195 33.3871 65.4795 33.43 65.5608 34.2422C65.6122 34.7105 65.7577 35.0242 66.2672 35.0715C66.3551 35.0908 66.4411 35.1181 66.5241 35.1531C75.6146 37.9752 83.4257 43.9184 88.5885 51.9412C92.2851 57.5851 94.4391 64.105 94.8345 70.8476C95.0335 73.9503 94.8538 77.0658 94.2994 80.1247C93.5318 84.3509 92.1424 88.439 90.1767 92.2549C90.0825 92.4483 90.0012 92.6459 89.9113 92.8393C90.056 92.806 90.1873 92.7296 90.288 92.6201C92.9168 89.9244 95.2636 86.9656 97.2918 83.79C97.3713 83.6371 97.4372 83.4775 97.4887 83.313L97.4545 83.2958ZM76.5331 65.3519C76.5331 65.064 76.4946 64.7761 76.4817 64.4925C76.4432 63.7491 76.212 63.5515 75.5442 63.8179C74.8432 64.0799 74.1003 64.211 73.3523 64.2046C73.2051 64.192 73.0586 64.236 72.9426 64.3278C72.8265 64.4196 72.7495 64.5522 72.7273 64.6987C72.6117 65.1284 72.7272 65.6011 73.0355 65.7257C73.9985 66.1803 75.0722 66.3444 76.1264 66.1984L76.5545 65.339C76.8413 65.9448 77.1282 66.5464 77.4407 67.2124C76.4475 67.4273 75.527 67.6765 74.6366 67.0621C74.3253 66.8262 73.9476 66.6954 73.5576 66.6884C73.1677 66.6815 72.7855 66.7988 72.4661 67.0234C72.2538 67.1584 72.0098 67.2346 71.7587 67.2444C71.5076 67.2542 71.2583 67.1973 71.0362 67.0792C70.8907 67.0105 70.7623 66.9117 70.6081 66.8429C70.18 66.6238 70.0687 66.6581 69.7519 67.1609L70.9378 68.45L69.7263 69.6703C70.1843 69.782 70.4754 69.8808 70.7794 69.9238C71.5414 70.0355 72.312 70.1 73.074 70.2332C74.1178 70.3573 75.1141 70.7414 75.9723 71.3504C76.2816 71.5822 76.5607 71.8521 76.8028 72.1539C77.0468 72.4633 76.9355 72.6953 76.5545 72.807C76.2606 72.8984 75.9516 72.9306 75.6452 72.9019C75.3389 72.8731 75.0412 72.7839 74.7693 72.6395C73.515 71.9949 72.2478 71.3719 70.9892 70.7402C70.8565 70.6533 70.7124 70.5854 70.5611 70.5383C70.4283 70.5168 70.1758 70.5383 70.133 70.6113C70.1085 70.6901 70.1004 70.7731 70.1092 70.8552C70.1181 70.9372 70.1436 71.0166 70.1843 71.0883C70.3025 71.2306 70.4481 71.3476 70.6124 71.432C71.8967 72.3258 73.181 73.2195 74.491 74.109C74.6521 74.1932 74.7905 74.3154 74.8941 74.4651C74.9978 74.6148 75.0637 74.7875 75.0861 74.9684C75.1289 75.5227 74.9149 75.7332 74.414 75.527C73.9292 75.3336 73.4693 75.0826 73.044 74.7793C72.3248 74.2551 71.657 73.6664 70.9678 73.1078C70.758 72.9402 70.5396 72.7899 70.3042 72.6137C69.7905 73.2238 70.2228 73.9028 69.9874 74.5215H69.2725C69.341 75.5227 68.7159 76.0942 68.0823 76.67C67.8233 76.894 67.5867 77.143 67.376 77.4133C67.072 77.843 67.1619 78.1395 67.6542 78.3114C68.0066 78.399 68.3663 78.4536 68.7288 78.4747C68.8144 77.9891 68.8786 77.5852 68.9642 77.1856C69.0802 76.5036 69.4319 75.8844 69.9574 75.4367C70.2657 75.1832 70.484 75.209 70.6895 75.5485C71.1775 76.3391 71.4472 77.2114 70.9977 78.0794C70.7764 78.4615 70.6343 78.8845 70.5799 79.3231C70.5255 79.7617 70.5598 80.2068 70.6809 80.6317C70.8136 81.0872 70.621 81.2892 70.1458 81.4138C69.6706 81.5384 69.418 81.461 69.2596 81.0356C69.1012 80.6103 68.9728 80.0302 68.8315 79.5317C68.7502 79.2653 68.6432 79.0075 68.549 78.7411C68.1209 78.8958 68.0781 79.218 68.0267 79.4973C67.9068 80.172 67.8255 80.8552 67.7227 81.5298C67.6542 81.9595 67.6628 82.4149 67.3246 82.7372C66.6311 83.3946 65.9418 84.065 65.2098 84.6751C64.43 85.2399 63.4914 85.5408 62.5298 85.5345C62.2007 85.5874 61.8636 85.5242 61.5756 85.3558C61.2876 85.1874 61.0666 84.9241 60.9501 84.6107C60.823 84.3174 60.6636 84.0392 60.475 83.7814C60.4485 83.7217 60.4063 83.6705 60.3529 83.6333C60.2995 83.5961 60.2369 83.5743 60.172 83.5703C60.1071 83.5663 60.0423 83.5803 59.9848 83.6107C59.9273 83.6411 59.8791 83.6867 59.8456 83.7427C59.3957 84.2356 59.0905 84.8439 58.9637 85.5001L59.2848 85.5431C59.9569 85.5904 60.141 85.6892 60.278 86.3466C60.396 86.9256 60.4647 87.5135 60.4835 88.1041C60.5141 88.707 60.3651 89.3054 60.0554 89.8229C59.9427 90.012 59.7618 90.1505 59.5502 90.2096C59.2805 90.2525 59.1778 89.9689 59.1221 89.7455C59.0365 89.1396 58.9852 88.5295 58.9167 87.9193C58.9167 87.7775 58.8781 87.6357 58.8524 87.4552C58.4362 87.7418 58.1499 88.1821 58.0562 88.6799C57.9114 89.1343 57.7385 89.5792 57.5382 90.0119C57.4065 90.2092 57.248 90.3871 57.0673 90.5404C56.9479 90.4293 56.8598 90.2886 56.8118 90.1325C56.7637 89.9764 56.7573 89.8103 56.7933 89.651C56.7933 88.5553 56.8575 87.4552 56.7933 86.3638C56.7169 85.4108 56.5651 84.4654 56.3395 83.5365C56.2153 83.0036 55.7273 82.9177 55.3548 83.3216C55.193 83.5076 55.0823 83.7327 55.0338 83.9747C54.9556 84.4002 54.9112 84.8313 54.9011 85.2638C54.9118 85.4002 54.8862 85.537 54.8267 85.6601C54.7673 85.7832 54.6762 85.8882 54.5629 85.9642C54.1827 86.2139 53.7897 86.4434 53.3856 86.6517C53.0559 86.8107 52.8761 86.7334 52.7349 86.3939C52.6467 86.1847 52.5918 85.9628 52.5722 85.7365C52.526 85.0479 52.7048 84.363 53.0816 83.7857C53.3836 83.3032 53.647 82.7975 53.8693 82.2732C54.1712 81.589 54.2832 80.8357 54.1935 80.0929C54.1038 79.3502 53.8158 78.6455 53.3599 78.0536C52.7306 77.2157 52.1055 76.3735 51.4505 75.5571C51.1998 75.2633 51.0116 74.9212 50.8975 74.5517C50.7834 74.1822 50.7458 73.7932 50.787 73.4086C50.795 73.202 50.8478 72.9996 50.9417 72.8156C51.0356 72.6315 51.1683 72.4703 51.3307 72.343C51.6852 72.097 52.0639 71.8883 52.4609 71.7199C52.889 71.5266 53.1159 71.6254 53.3556 72.0508C53.4198 72.1711 53.4583 72.3043 53.5311 72.4203C53.6091 72.5597 53.7171 72.68 53.8471 72.7724C53.9771 72.8649 54.126 72.9271 54.2829 72.9547C54.4398 72.9822 54.6009 72.9744 54.7545 72.9318C54.908 72.8891 55.0502 72.8128 55.1708 72.7082C55.3677 72.5535 55.5304 72.3602 55.7187 72.1969C56.0313 71.9262 56.1468 71.9133 56.378 72.2527C56.4963 72.419 56.6595 72.5479 56.8484 72.624C57.0373 72.7002 57.244 72.7204 57.444 72.6824C57.9452 72.6473 58.4295 72.4862 58.8524 72.2141C59.0745 72.0596 59.3184 71.9394 59.5759 71.8574C59.9674 71.7782 60.3326 71.6012 60.6379 71.3429C60.9432 71.0845 61.1787 70.7531 61.3226 70.3793C61.451 70.0613 61.5666 69.739 61.6908 69.4211C61.892 68.8968 62.1189 68.7765 62.547 69.0859C63.3732 69.6875 64.2251 70.2761 64.4991 71.3719C64.55 71.6101 64.6771 71.8252 64.8611 71.9842C65.045 72.1432 65.2757 72.2375 65.518 72.2527C66.1748 72.3145 66.8372 72.2429 67.4659 72.0422V71.1183C67.4562 70.9703 67.4793 70.8219 67.5333 70.6837C67.5873 70.5456 67.671 70.4211 67.7784 70.3191C68.3863 69.7562 68.3863 69.739 68.1038 68.9871C68.0053 68.7336 67.894 68.4843 67.7912 68.2308C67.5694 67.5521 67.1141 66.9748 66.5069 66.6023C66.4065 66.5561 66.3169 66.4894 66.2437 66.4065C66.1705 66.3235 66.1154 66.2261 66.082 66.1205C66.0485 66.0149 66.0374 65.9034 66.0494 65.7932C66.0614 65.6831 66.0962 65.5767 66.1516 65.4808C66.5069 64.5527 67.0763 63.8523 68.1551 63.762C68.3349 63.762 68.5147 63.7062 68.6945 63.6804C69.1997 63.603 69.2468 63.5386 69.2082 63.0101C69.1763 62.7376 69.1592 62.4636 69.1569 62.1893C69.1868 61.5448 69.3795 61.2612 70.0131 61.1624C70.2833 61.125 70.5379 61.0134 70.7487 60.8397C70.9595 60.666 71.1183 60.4371 71.2075 60.1784C71.6784 59.1643 72.1622 58.1545 72.6502 57.1705C72.7958 56.8741 72.8814 56.5174 73.3095 56.3885C73.699 57.1877 73.6391 58.1073 73.973 59.0311C74.1914 58.7991 74.3155 58.6831 74.4268 58.5499C74.6366 58.3092 74.8207 58.0428 75.039 57.8151C75.5399 57.3037 75.7882 57.3854 75.9851 58.0987C75.9851 58.1331 76.045 58.1545 76.1349 58.2362C76.3147 57.9526 76.4903 57.6733 76.6658 57.4026C76.5223 57.2072 76.4057 56.9933 76.319 56.7666C76.2334 56.3627 75.9723 56.2338 75.617 56.1436C75.3599 56.0867 75.1351 55.9315 74.9903 55.7108C74.8456 55.4901 74.7924 55.2214 74.8421 54.9619C74.9064 54.2856 75.0501 53.6192 75.2702 52.9767C75.6212 52.1174 75.8995 51.2193 76.1949 50.3298C76.3013 50.0294 76.3745 49.7182 76.4132 49.4017C76.4334 49.2938 76.4212 49.1823 76.3781 49.0813C76.3351 48.9804 76.2631 48.8946 76.1714 48.8347C76.0797 48.7749 75.9723 48.7438 75.8629 48.7452C75.7535 48.7467 75.6471 48.7808 75.557 48.8431C75.3411 49.0063 75.1531 49.2036 75.0005 49.4275C74.781 49.7442 74.5422 50.047 74.2856 50.3341C73.9345 50.6736 73.6562 50.5748 73.5792 50.0892C73.4807 49.4833 73.4636 48.8646 73.3865 48.2544C73.3625 48.0098 73.2958 47.7713 73.1896 47.5497C72.9413 47.0728 72.937 47.047 73.2924 46.5872C73.433 46.4438 73.5309 46.2637 73.5749 46.0673C73.6401 45.5748 73.569 45.0738 73.3694 44.6192C72.86 44.5677 72.5132 45.3669 71.9695 44.7997C71.926 44.453 71.8645 44.1088 71.7854 43.7684C71.6099 43.1669 71.3316 43.068 70.7066 43.3388C70.7066 43.6095 70.6681 43.8845 70.6381 44.3056C70.4455 44.0392 70.3427 43.9016 70.24 43.7641L70.0131 44.0134C69.8376 43.8028 69.6877 43.6309 69.4993 43.4118C69.3923 43.7126 69.311 43.936 69.2211 44.1809C68.9856 44.0821 68.793 43.9231 68.6217 43.9446C68.215 43.9876 67.9967 43.7212 67.7356 43.5149C67.0522 42.9024 66.5638 42.1013 66.3314 41.2118C65.9033 39.9872 65.4752 38.7668 65.0086 37.5465C64.9196 37.3504 64.8195 37.1596 64.7089 36.975C64.7089 37.5895 64.7303 38.0449 64.7089 38.4961C64.6875 38.9473 64.8416 39.377 64.4649 39.8368C64.4768 39.4643 64.4524 39.0916 64.3921 38.7239C64.3606 38.5443 64.263 38.3832 64.1187 38.2726C63.9743 38.1619 63.7938 38.1098 63.6129 38.1266C63.5658 38.5219 63.5316 38.9 63.4802 39.2782C63.4074 39.7981 63.2148 39.9012 62.7439 39.7079C62.6221 39.6693 62.5153 39.5935 62.4385 39.491C62.3617 39.3886 62.3188 39.2645 62.3158 39.1364C62.3158 38.9215 62.273 38.7067 62.2516 38.4875C61.9476 39.1965 61.755 39.2996 61.1299 38.9172C60.7724 38.7484 60.3857 38.6506 59.9912 38.6293C59.9099 38.9602 59.9227 39.3082 59.7557 39.4887C59.5888 39.6692 59.2249 39.7723 58.8995 39.9184C58.9552 40.1461 59.028 40.3825 59.0665 40.6188C59.1478 41.0447 59.2036 41.4752 59.2335 41.9079C59.2291 42.0039 59.2034 42.0977 59.1582 42.1825C59.113 42.2672 59.0495 42.3408 58.9723 42.3977C58.8867 42.4536 58.6341 42.329 58.5057 42.2216C58.1718 41.9508 57.8721 41.6458 57.5639 41.3622L57.1358 42.1399C56.5871 41.8504 56.1 41.4563 55.7016 40.9797C55.4431 40.7728 55.2327 40.5119 55.0848 40.215C54.937 39.9182 54.8553 39.5927 54.8454 39.261C54.8454 38.466 54.8026 37.6496 55.5218 37.0695C55.6324 36.9552 55.7274 36.8266 55.8043 36.6871C55.2906 36.0383 54.7769 35.4238 54.3017 34.7836C54.214 34.6528 54.0921 34.5487 53.9494 34.4827C53.8067 34.4168 53.6487 34.3916 53.4926 34.4098C52.5593 34.4441 51.6261 34.4441 50.6928 34.4613C50.5686 34.4613 50.4445 34.5 50.2947 34.5215C50.3632 34.8008 50.4145 35.0199 50.4702 35.2391C50.4702 35.325 50.5216 35.4152 50.5515 35.5012C50.7613 36.1199 50.8769 36.193 51.4933 36.0812C51.7065 36.0186 51.93 36.0001 52.1505 36.0268C52.3709 36.0535 52.5837 36.1248 52.7758 36.2365C52.968 36.3482 53.1355 36.498 53.2683 36.6766C53.4011 36.8553 53.4963 37.0591 53.5483 37.2758C53.677 37.6609 53.8464 38.0311 54.0534 38.3801C54.3251 38.7896 54.4524 39.2786 54.4152 39.7692C54.3779 40.2597 54.1782 40.7237 53.8479 41.0872C53.6424 41.3278 53.3214 41.5383 53.2443 41.8176C53.0248 42.5653 52.6432 43.2549 52.127 43.8372C52.0114 44.0587 51.9347 44.2986 51.9 44.5462C51.7673 44.9501 51.6603 45.0231 51.2494 44.9114C51.0533 44.8627 50.8732 44.7635 50.7271 44.6235C50.3128 44.2221 50.069 43.6756 50.0464 43.0981C50.0464 42.5052 50.0207 41.9122 49.995 41.3192C49.9953 41.1146 49.9621 40.9114 49.8965 40.7176C49.8573 40.5917 49.7827 40.4798 49.6819 40.3953C49.581 40.3107 49.4579 40.2571 49.3275 40.2408C49.1971 40.2244 49.0647 40.2462 48.9462 40.3033C48.8278 40.3604 48.7281 40.4506 48.6593 40.5629C48.542 40.703 48.4543 40.8654 48.4013 41.0404C48.3483 41.2155 48.3312 41.3995 48.3511 41.5813C48.3581 41.8494 48.3495 42.1177 48.3254 42.3848C48.1904 42.3158 48.0652 42.2291 47.953 42.127C47.7903 41.9122 47.6533 41.6715 47.4906 41.4524C47.3981 41.3152 47.2681 41.2077 47.1162 41.1429C46.9643 41.0781 46.797 41.0587 46.6344 41.0872C46.4754 41.1156 46.3304 41.1966 46.2225 41.3173C46.1147 41.438 46.0502 41.5914 46.0393 41.7532C45.9927 41.9296 45.9584 42.1091 45.9366 42.2903C45.9401 42.6205 45.8608 42.9463 45.7059 43.2376C45.551 43.529 45.3256 43.7766 45.0504 43.9575C44.4896 44.327 44.4596 44.6622 44.678 45.3325C44.7379 45.513 44.7807 45.7021 44.8406 45.9341C44.5281 45.9341 44.3012 45.9341 44.0786 45.9341C43.0084 45.8868 42.7943 45.7321 42.4861 44.6966C42.4277 44.4523 42.3563 44.2113 42.272 43.9747C42.1825 43.7732 42.0193 43.614 41.8161 43.5301C41.6129 43.4461 41.3852 43.4437 41.1804 43.5235C40.7951 43.6181 40.688 43.777 40.688 44.297C40.688 44.5032 40.688 44.7267 40.718 44.9114C40.7437 45.2552 40.5896 45.3927 40.2514 45.4442C39.5065 45.5517 39.4252 45.5302 38.9671 44.847C38.7702 44.5419 38.6032 44.4989 38.2907 44.6708C37.9097 44.8728 37.7984 45.1005 37.9696 45.4314C38.098 45.6634 38.2564 45.8825 38.432 46.1618L37.9011 46.5271C37.3403 46.9267 36.9678 46.9568 36.6168 46.0974C36.491 45.8263 36.348 45.5637 36.1887 45.311C35.6593 45.6759 35.202 46.1363 34.8402 46.6689C34.7423 46.8107 34.679 46.9736 34.6552 47.1445C34.6314 47.3154 34.6478 47.4895 34.7032 47.6529C34.8359 48.0353 35.0028 48.0826 35.3624 47.8806C36.4391 47.2497 37.6849 46.9716 38.9264 47.0848C40.168 47.198 41.3434 47.697 42.2891 48.5123C43.681 49.8094 44.7136 51.4469 45.2859 53.2646C45.3983 53.4676 45.4489 53.6991 45.4314 53.9307C45.3545 54.1418 45.2018 54.3165 45.0033 54.4205C44.8871 54.4748 44.7545 54.4818 44.6332 54.4401C44.5119 54.3985 44.4114 54.3114 44.3526 54.1971C44.2052 53.9671 44.0708 53.729 43.9502 53.4838C43.4667 52.4983 42.8244 51.5996 42.0494 50.824C40.1315 48.9634 37.8797 48.5165 35.371 49.3072C34.9172 49.4533 34.5148 49.6166 34.121 49.1525V50.3255C35.0028 50.8068 35.234 51.5545 35.1356 52.474C35.0671 53.1744 35.0242 53.8877 35.0242 54.5924C35.0242 55.4904 35.2768 55.8127 36.1416 56.049C36.2637 56.0664 36.377 56.1232 36.4642 56.2108C36.5515 56.2983 36.608 56.412 36.6253 56.5346C36.8885 57.4909 36.8035 58.5101 36.3856 59.4092C36.2144 59.7315 36.0346 60.0495 35.8805 60.3803C35.7906 60.5694 35.7434 60.7757 35.6279 61.1065C35.9489 60.9948 36.1159 60.9475 36.2743 60.8788C36.7567 60.6687 37.2825 60.5788 37.8069 60.6167C38.0375 60.6068 38.2641 60.6796 38.4461 60.8221C38.628 60.9646 38.7536 61.1675 38.8001 61.3944C38.9388 61.7857 38.9266 62.2149 38.7659 62.5976C38.7188 62.7007 38.6931 62.8124 38.6075 63.053C39.3651 62.4046 40.2605 61.9386 41.225 61.6906C42.1896 61.4426 43.1978 61.4192 44.1728 61.6221C43.8646 62.5288 43.1924 63.1347 42.6188 63.9554C42.8036 63.9233 42.9844 63.8715 43.1582 63.8007C43.5007 63.5815 43.8389 63.3495 44.16 63.096C44.9482 62.4345 45.8611 61.9392 46.8442 61.6393C47.8716 61.36 48.5994 61.8757 48.7278 62.9284C48.7278 63.1261 48.7621 63.3237 48.7749 63.5042C48.8562 63.5429 48.8948 63.5773 48.9333 63.5773C50.2176 63.6116 51.3606 64.1316 52.4951 64.6515C52.7637 64.7746 53.0064 64.9482 53.21 65.1628C53.3559 65.3523 53.4258 65.5896 53.406 65.8282C53.3862 66.0668 53.2781 66.2893 53.103 66.4519C53.0254 66.5367 52.9305 66.6039 52.8249 66.6489C52.7192 66.694 52.6052 66.7158 52.4905 66.7129C52.3757 66.7101 52.2629 66.6826 52.1596 66.6324C52.0563 66.5822 51.9649 66.5104 51.8915 66.4218C51.7418 66.2815 51.6069 66.1259 51.4891 65.9577C50.6671 64.8062 48.9205 64.4109 47.7946 65.2745C47.5882 65.4426 47.3287 65.5307 47.0631 65.5228C46.7975 65.5149 46.5436 65.4115 46.3476 65.2316C46.2191 65.137 46.095 65.0382 45.958 64.9523C45.44 64.6257 45.273 64.6816 45.0376 65.2316C44.9263 65.4937 44.7893 65.7429 44.6095 66.1167C44.344 65.7902 44.1557 65.5753 43.993 65.3433C43.8303 65.1112 43.5649 64.8878 43.2481 65.0167C42.633 65.2525 42.0313 65.5222 41.4458 65.8245C41.2683 65.9081 41.127 66.0534 41.0483 66.2336C40.9696 66.4138 40.9587 66.6166 41.0177 66.8042L42.79 66.512C42.82 66.7097 42.8542 66.8644 42.8671 67.0148C42.9185 67.8183 43.2353 68.1234 44.0444 68.0332C44.7636 67.9515 45.4785 67.8183 46.1849 67.6722C47.0068 67.5003 47.816 67.2812 48.6379 67.105C49.3828 66.946 49.7681 67.2296 49.858 67.9902C49.8751 68.2405 49.8751 68.4918 49.858 68.7421C49.8625 68.9728 49.794 69.1989 49.6625 69.388C49.531 69.5771 49.3431 69.7196 49.126 69.7949C48.895 69.8934 48.6557 69.9711 48.411 70.0269C46.9512 70.3578 45.4871 70.6801 44.0272 71.0152C43.7159 71.0805 43.4118 71.177 43.1197 71.3031C43.0359 71.3314 42.9587 71.3764 42.8927 71.4354C42.8267 71.4945 42.7733 71.5663 42.7357 71.6466C42.6981 71.7269 42.6771 71.814 42.6739 71.9026C42.6707 71.9913 42.6855 72.0797 42.7172 72.1625C42.7943 72.5922 42.9484 72.8156 43.3508 72.8414C43.6874 72.8669 44.0257 72.829 44.3483 72.7297C46.3219 72.1066 48.2826 71.4406 50.2476 70.8219C50.4916 70.7402 50.7485 70.6844 51.0267 70.6113C51.0446 70.7861 51.0086 70.9623 50.9236 71.1159C50.8387 71.2696 50.7088 71.3934 50.5515 71.4707C49.0703 72.6094 47.5848 73.7395 46.1035 74.8825C45.8612 75.0834 45.6363 75.3048 45.4314 75.5442C45.3454 75.6387 45.2932 75.7593 45.2832 75.8869C45.2731 76.0146 45.3057 76.1419 45.3758 76.2489C45.441 76.3589 45.5464 76.4389 45.6696 76.4718C45.7929 76.5047 45.924 76.4879 46.035 76.425C46.2964 76.3451 46.55 76.2415 46.7928 76.1157C47.4307 75.7246 48.0514 75.3036 48.6807 74.8911C48.9036 74.7348 49.1352 74.5913 49.3743 74.4614C49.6696 74.311 49.8366 74.3926 49.9436 74.7063C49.9757 74.8157 49.9972 74.9279 50.0078 75.0414C50.1491 75.9438 50.3118 76.8418 50.4145 77.7485C50.4224 78.0116 50.4973 78.2683 50.6323 78.494C50.7672 78.7196 50.9575 78.9068 51.1851 79.0376C51.4175 79.1824 51.6405 79.3417 51.853 79.5145C52.1195 79.706 52.3276 79.9683 52.4538 80.2719C52.5801 80.5755 52.6196 80.9084 52.5679 81.2333C52.448 82.3462 52.3239 83.4634 52.3153 84.5763C52.308 85.1023 52.1867 85.6204 51.9597 86.0946C51.7327 86.5687 51.4056 86.9876 51.001 87.322L50.6286 87.6658C50.7742 88.1986 51.0567 88.5467 51.5747 88.581C52.5208 88.6498 52.9789 89.3287 53.0046 90.1924C53.0046 90.7596 52.9789 91.3311 52.9703 91.9112C52.9617 92.4912 53.0046 92.5944 53.5183 92.6803C53.8044 92.7001 54.0719 92.8301 54.2649 93.043C54.4579 93.256 54.5616 93.5355 54.5543 93.8233C54.5543 94.0038 54.6057 94.1842 54.6057 94.3647C54.6057 95.3702 54.6057 96.3728 54.6057 97.3725C54.6103 97.8566 54.4603 98.3295 54.1776 98.7218C54.09 98.8699 53.9642 98.9915 53.8135 99.074C53.6629 99.1564 53.4928 99.1965 53.3214 99.1901C53.2914 98.6229 53.2614 98.0686 53.2314 97.5573C52.8245 97.5099 52.4281 97.3952 52.0584 97.2178C51.7611 96.92 51.5113 96.578 51.3178 96.2038L50.5687 96.4702C50.65 96.8999 50.7442 97.2866 50.787 97.669C50.8298 98.0514 50.727 98.2405 50.2904 98.3093C50.1791 98.3308 50.0635 98.3093 49.9522 98.3351C48.3024 98.4761 46.642 98.4271 45.0033 98.189C42.3833 97.8712 39.8243 97.1675 37.4088 96.1007C37.2606 96.0291 37.1175 95.9473 36.9807 95.8557L37.6613 94.5237L34.2365 93.3334C34.6646 92.517 34.7545 92.474 35.5208 92.6502C35.919 92.7404 36.3128 92.8522 36.711 92.9338C37.1091 93.0155 37.4259 93.0713 37.7855 93.1186C37.835 93.1278 37.8858 93.1265 37.9347 93.115C37.9837 93.1035 38.0297 93.0819 38.0699 93.0516C38.1101 93.0213 38.1437 92.983 38.1684 92.9391C38.1931 92.8951 38.2085 92.8465 38.2136 92.7963C38.2778 92.3924 38.3164 91.9885 38.3634 91.5803C38.2639 91.7402 38.197 91.9184 38.1665 92.1045C37.9953 92.7362 37.9011 92.8135 37.2632 92.7018C36.817 92.6165 36.3767 92.5031 35.9447 92.3623C30.9402 90.7854 26.7833 87.8763 23.1444 84.1509C23.0592 84.0399 22.9833 83.9221 22.9175 83.7986C23.2464 83.5506 23.5927 83.3266 23.9535 83.1282C25.9478 82.1973 28.177 81.8976 30.3451 82.2689C30.4542 82.2728 30.5633 82.2641 30.6704 82.2431C30.8841 81.1716 31.4964 80.222 32.3829 79.5876C32.7467 79.3212 33.0806 79.0118 33.4317 78.7282C33.5165 78.6608 33.6165 78.6151 33.7228 78.595C33.834 78.568 33.9504 78.5718 34.0596 78.6059C34.1689 78.6399 34.2669 78.7031 34.3433 78.7886C34.4196 78.874 34.4715 78.9786 34.4935 79.0913C34.5154 79.204 34.5065 79.3206 34.4677 79.4286C34.3392 79.8177 34.1592 80.1877 33.9326 80.5286C33.7966 80.6844 33.7113 80.8783 33.6884 81.0842C33.6654 81.29 33.7058 81.4981 33.8042 81.6802C34.1081 82.1571 33.9369 82.4923 33.5944 82.8232C33.4788 82.9306 33.376 83.0509 33.2262 83.2056C36.2871 84.774 38.4533 86.9396 38.3335 90.6135C39.4765 90.1537 40.6538 90.1451 41.8011 90.0635C41.8268 89.9818 41.8568 89.9346 41.8482 89.8959C41.6941 88.6068 41.7497 87.3994 42.4989 86.2736C42.6097 86.104 42.657 85.9005 42.6328 85.6992C42.6085 85.4979 42.5141 85.3118 42.3662 85.1736C41.9766 85.2166 41.9381 85.5045 41.7925 85.7408C41.3644 86.5056 40.9792 87.2705 40.5382 88.0138C40.4604 88.1939 40.3277 88.3445 40.1593 88.4441C39.9908 88.5437 39.7953 88.5871 39.6007 88.5681C39.5064 88.329 39.4291 88.0835 39.3695 87.8334C39.1564 86.64 39.0945 85.4243 39.1854 84.2154C39.3652 82.2302 40.3798 80.6532 41.6727 79.2266C42.0366 78.8227 42.3962 78.8829 42.6573 79.3598C42.8211 79.6325 42.9302 79.9346 42.9784 80.2493C43.0469 80.838 43.0298 81.431 43.0555 82.0239C43.0555 82.2775 43.0811 82.531 43.0983 82.8833C44.4982 81.4825 45.3929 78.8528 44.8749 77.7829C44.4322 77.8537 44.0126 78.029 43.6505 78.2942C43.1197 78.5649 42.7943 78.4059 42.8243 77.8087C42.8806 77.3589 42.9854 76.9166 43.1368 76.4895C43.1925 76.2961 43.3251 76.1243 43.3851 75.9266C43.5264 75.4539 43.3851 75.2047 42.8971 75.1789C42.5114 75.1676 42.1257 75.1949 41.7455 75.2606C40.9192 75.3938 40.093 75.5485 39.271 75.6903C39.0738 75.7453 38.8807 75.8143 38.6931 75.8965C38.8215 76.1371 38.8943 76.3004 38.9928 76.4465C39.3096 76.9235 39.6435 77.3833 39.956 77.8602C40.4911 78.6766 40.307 79.3298 39.3994 79.6305C39.1482 79.7046 38.9176 79.8363 38.7259 80.0153C38.5342 80.1943 38.3867 80.4157 38.295 80.6618C38.1006 81.172 37.9348 81.6928 37.7983 82.2216C37.6785 82.6513 37.6143 83.1154 37.4987 83.5579C37.4216 83.863 37.3403 84.2411 36.9593 84.2669C36.5783 84.2927 36.4413 83.9146 36.3428 83.6224C36.1785 83.1982 36.0762 82.7525 36.0388 82.2989C36.0136 80.6562 35.8199 79.0205 35.4609 77.4176C35.3111 76.786 35.2683 76.1285 35.1784 75.4582L18.234 75.7461C18.1013 72.8199 17.9387 69.9883 17.8531 67.1093C18.9961 67.0406 20.0578 67.1093 21.1366 67.0406C21.0467 62.0991 20.9525 57.2479 20.8626 52.401L20.7171 52.3623C20.3703 52.9381 20.015 53.5139 19.681 54.0811C16.3589 59.7605 14.5184 66.1895 14.3297 72.7727C14.2665 75.4008 14.4832 78.0283 14.9762 80.6103C15.9756 86.0358 18.0485 91.2051 21.0724 95.8127C21.3331 96.213 21.6655 96.5612 22.0527 96.8397C25.3869 99.2083 28.9443 101.243 32.674 102.916C39.0441 105.923 45.7782 107.212 52.7605 107.376C56.0401 107.456 59.3199 107.223 62.5555 106.68C63.5188 106.516 64.4777 106.302 65.4367 106.108C65.2959 105.972 65.1131 105.889 64.9187 105.872C62.9805 105.618 61.2042 104.654 59.9313 103.165C59.4743 102.681 59.1447 102.09 58.9723 101.446C58.9219 101.179 58.889 100.909 58.8739 100.638C59.2708 100.819 59.6835 100.963 60.1068 101.068C61.4382 101.235 62.7696 101.416 64.1053 101.498C66.6774 101.583 69.2498 101.338 71.7597 100.767C72.8129 100.544 73.8532 100.239 74.902 99.9679C74.902 99.9292 74.902 99.8862 74.902 99.8433L72.7615 98.8206H72.7872L71.6056 97.7593L72.0337 97.6475C72.8214 97.4327 73.6306 97.2823 74.3926 96.9901C78.0185 95.5554 81.3798 93.5221 84.3374 90.9744L85.0695 90.3514C85.1419 90.4349 85.2077 90.524 85.2664 90.6178C85.35 90.7783 85.4216 90.9449 85.4804 91.1162C85.7489 91.8722 85.8444 92.6792 85.7599 93.4773C85.6755 94.2755 85.4131 95.0443 84.9924 95.7268C84.3774 96.75 83.5512 97.6291 82.5693 98.305C80.6557 99.6671 78.5709 100.453 76.1735 100.11C75.8866 100.067 75.6041 100.015 75.2873 99.9636C75.2101 100.704 74.9464 101.412 74.521 102.022C74.0929 102.576 73.6177 103.092 73.1211 103.672C73.208 103.65 73.2937 103.625 73.378 103.594C78.2582 101.621 82.8189 98.9308 86.9103 95.6108C87.1224 95.4384 87.2996 95.2269 87.4326 94.9877C88.2117 93.5698 89.0465 92.1775 89.7272 90.7123C91.8423 86.174 93.1271 81.2909 93.5202 76.2961C93.593 75.3938 93.5973 74.4828 93.6358 73.559C93.0578 73.559 92.5613 73.559 92.0689 73.559C89.8171 73.6277 87.5653 73.7022 85.3135 73.7824C85.1821 73.8016 85.0481 73.785 84.9253 73.7344C84.8026 73.6837 84.6956 73.6009 84.6157 73.4945C82.3168 70.5726 79.9922 67.6722 77.6718 64.7632C77.552 64.6085 77.4064 64.471 77.2694 64.3335C77.004 64.673 76.7728 65.021 76.5331 65.3519V65.3519ZM20.2076 16.3111C19.9636 16.5088 19.8223 16.6162 19.6853 16.7408C17.1653 18.8833 14.8571 21.2648 12.7929 23.8522C9.85181 27.5476 7.31314 31.4964 5.57933 35.8836C3.69229 40.7621 2.49762 45.8825 2.03037 51.0947C1.56552 55.7822 1.75863 60.512 2.60404 65.1456C3.94765 72.4446 6.85275 79.3642 11.119 85.4271C11.199 85.5305 11.2863 85.6282 11.3801 85.7193L13.4693 85.1521L13.8075 86.2521L12.0951 86.7935C12.3023 87.0455 12.4966 87.308 12.6773 87.5799C12.7536 87.7206 12.8774 87.8294 13.0265 87.8869C13.1755 87.9444 13.3401 87.9467 13.4907 87.8935C13.7304 87.8377 13.9701 87.8076 14.2484 87.756C14.3683 88.0869 14.4753 88.3748 14.5952 88.6928L13.8417 88.9377C14.12 89.3674 14.471 88.9119 14.7664 89.1139C14.8206 89.1972 14.8706 89.2833 14.9162 89.3717C14.9676 89.4748 15.0019 89.5779 15.0404 89.6681C14.9163 89.8014 14.8221 89.9088 14.7065 90.0291C15.834 91.3479 17.0668 92.5723 18.3925 93.6901C18.3696 93.5393 18.3204 93.3939 18.2469 93.2604C17.9472 92.6717 17.6347 92.0873 17.3479 91.49C13.7219 83.9919 12.3476 76.1372 13.6491 67.857C14.5482 62.1577 16.6247 56.7101 19.7453 51.8638C20.122 51.2709 20.6443 50.7166 20.8198 50.0677C20.9953 49.4189 20.8198 48.6626 20.8198 47.9579C20.8294 47.7553 20.7863 47.5537 20.6947 47.3729C20.6031 47.1921 20.4662 47.0383 20.2975 46.9267C18.4267 45.44 16.5687 43.9188 14.7065 42.4278C14.5352 42.286 14.3683 42.1356 14.1671 41.9594L14.9505 40.9325L20.7556 45.6247C20.7399 45.3299 20.7399 45.0344 20.7556 44.7395C20.7914 44.4252 20.7505 44.1068 20.6363 43.8119C20.5222 43.5169 20.3384 43.2543 20.1006 43.0466C17.1766 39.9743 14.2869 36.8719 11.3887 33.7738C11.2346 33.6105 11.089 33.4429 10.9221 33.2539L11.6969 32.3945C13.221 34.0101 14.6936 35.5742 16.1535 37.1211C17.6133 38.668 19.0646 40.2708 20.6614 41.8477C20.6614 41.1344 20.6314 40.5586 20.6614 40.0043C20.6836 39.7451 20.6416 39.4843 20.5393 39.2452C20.437 39.0061 20.2775 38.796 20.0749 38.6336C19.4627 38.0664 18.9019 37.4434 18.3026 36.8332L19.056 35.8277L20.6015 37.1727C20.6015 36.4293 20.6015 35.8363 20.6015 35.2476C20.6181 34.86 20.4933 34.4796 20.2504 34.1777C18.7007 32.0894 17.1681 29.9925 15.6312 27.8956C15.4985 27.7151 15.3786 27.5261 15.2031 27.2854L16.2819 26.6237L20.3617 32.0293L20.4987 31.9691V31.3718C20.4531 28.8624 20.4088 26.3516 20.366 23.8393C20.366 23.4096 20.4045 22.9799 20.092 22.7092C20.2067 22.3689 20.2856 22.0175 20.3275 21.6608C20.3275 20.0838 20.2804 18.5068 20.2461 16.9342C20.2633 16.7709 20.2333 16.5947 20.2076 16.3111ZM52.1997 23.0401C52.2698 23.0322 52.3387 23.0164 52.4052 22.9928C54.2289 21.6694 56.0569 20.3502 57.8678 19.0096C58.0355 18.8666 58.144 18.6658 58.1718 18.4467C58.4201 15.9932 58.6469 13.5396 58.8824 11.0861C58.9295 10.6134 58.9937 10.1493 59.0494 9.67237H60.3037C60.0511 12.3537 59.8028 14.9963 59.5417 17.7549C59.8328 17.5615 60.0212 17.4455 60.201 17.3252C62.2601 15.8213 64.3108 14.3173 66.3828 12.8177C66.6185 12.6882 66.8195 12.5032 66.9686 12.2788C67.1177 12.0543 67.2105 11.7969 67.239 11.5286C67.239 11.49 67.2861 11.4556 67.3417 11.3783C67.4399 11.3675 67.5389 11.3675 67.6371 11.3783C67.8473 11.4256 68.0659 11.4201 68.2735 11.3624C68.4811 11.3047 68.6713 11.1965 68.8272 11.0474C69.5251 10.4974 70.2614 10.0032 70.9678 9.46183C71.2613 9.2459 71.5248 8.99156 71.7512 8.70557C72.1579 8.17705 72.0423 7.78603 71.413 7.58408C69.5721 6.9954 67.7441 6.37664 65.8819 5.86531C63.6298 5.21349 61.3201 4.78179 58.9851 4.57623C54.8729 4.30018 50.7433 4.44415 46.6601 5.00592C42.9384 5.47882 39.2766 6.34295 35.7349 7.58408C34.8787 7.88486 34.0225 8.21572 33.1962 8.52939C33.1962 8.72275 33.1577 8.85596 33.1577 8.99347C33.1577 12.7604 33.1706 16.5288 33.1962 20.2987C33.1979 20.5726 33.2457 20.8442 33.3375 21.1022C34.716 25.1585 36.1016 29.2148 37.4944 33.2711C37.5501 33.4344 37.6357 33.5847 37.7256 33.7824L39.2539 32.6566C38.235 29.7605 37.2375 26.9288 36.2229 24.0628L37.4687 23.4225L40.3413 31.7371C40.9107 31.4578 40.9107 31.4578 40.7694 30.8347C39.585 25.9821 38.3977 21.1308 37.2076 16.281C36.9207 15.108 36.6425 13.9392 36.3514 12.7318L37.61 12.1689L42.0152 30.6456L43.5734 29.507C42.9613 27.0577 42.3705 24.6987 41.7754 22.3096L42.9827 21.8327C43.5478 24.153 44.0872 26.3874 44.648 28.7077C44.8808 28.5204 45.1253 28.3482 45.3801 28.1921C45.5851 28.0971 45.7489 27.9306 45.8411 27.7236C45.9332 27.5166 45.9473 27.283 45.8809 27.0663C45.2017 22.1363 44.5353 17.2063 43.8817 12.2763C43.8004 11.6962 43.7447 11.1118 43.6719 10.4587L44.9562 10.3212C45.6626 15.9072 46.3518 21.36 47.0582 26.9417C47.5206 26.6151 47.9144 26.3401 48.2911 26.0823C48.3985 26.0216 48.4835 25.9278 48.5337 25.8148C48.5838 25.7018 48.5963 25.5757 48.5694 25.455C48.4581 24.4796 48.3768 23.4999 48.2911 22.5245C48.2526 22.0948 48.2398 21.6651 48.2098 21.1967L49.4342 21.0592C49.6568 22.3913 49.5455 23.6675 49.721 25.0124C49.9825 24.8031 50.257 24.6107 50.543 24.4366C50.7529 24.3297 50.9231 24.1581 51.0287 23.947C51.1343 23.7359 51.1696 23.4963 51.1295 23.2635C51.0653 18.9666 51.0267 14.6697 50.9796 10.3728V9.51339L52.2297 9.61651L52.1997 23.0401ZM71.1647 41.8176C71.3583 41.4987 71.5804 41.1982 71.8282 40.9196C72.1964 40.5801 72.4789 40.6403 72.8257 41.0012C73.6819 41.8893 74.5381 42.773 75.3943 43.6524C75.4543 43.6952 75.5046 43.7503 75.5419 43.814C75.5792 43.8777 75.6026 43.9486 75.6107 44.022C75.6188 44.0955 75.6113 44.1698 75.5888 44.2401C75.5663 44.3105 75.5292 44.3752 75.48 44.4302C75.2945 44.6821 75.1779 44.9784 75.1418 45.2896C75.1226 45.8361 75.1441 46.3833 75.206 46.9267C75.2472 47.0995 75.312 47.2658 75.3986 47.4208C75.6426 47.2747 75.8267 47.1716 76.0108 47.0427C76.6615 46.5829 77.2951 46.106 77.9544 45.6462C78.0951 45.5126 78.264 45.4127 78.4486 45.3539C78.6332 45.2951 78.8287 45.279 79.0204 45.3067C79.0982 45.4856 79.133 45.6803 79.1218 45.8752C79.1107 46.07 79.0539 46.2595 78.9561 46.4282C78.4224 48.0613 78.24 49.7895 78.421 51.4986C78.4422 51.9551 78.6104 52.3924 78.9005 52.7447C82.2226 56.8927 85.5375 61.0464 88.8453 65.2058C89.1407 65.5753 89.389 66.0652 89.7786 66.2671C90.1682 66.4691 90.7547 66.3617 91.2513 66.3745C91.8121 66.3745 92.3772 66.3745 92.9637 66.3745C92.9037 66.0394 92.8652 65.773 92.8053 65.5152C90.8702 56.9858 86.7305 49.7841 80.035 44.1165C76.0468 40.6984 71.4369 38.088 66.4598 36.4293C66.2653 36.378 66.0681 36.3378 65.869 36.309C66.9479 37.6582 67.9154 38.8871 68.9128 40.1118C69.3024 40.5844 69.7391 41.0227 70.1672 41.4653C70.2804 41.6161 70.4354 41.7301 70.6129 41.7928C70.7904 41.8554 70.9823 41.8641 71.1647 41.8176ZM60.9544 78.0364C60.8375 77.9288 60.748 77.7945 60.6936 77.645C60.6392 77.4954 60.6215 77.3349 60.6419 77.177C60.5777 76.0555 60.1753 75.411 59.2677 75.2262C58.1375 74.9985 56.9816 74.8782 55.8429 74.7449C55.6602 74.7129 55.4722 74.7413 55.307 74.8258C55.1418 74.9102 55.0083 75.0462 54.9267 75.2133C54.7651 75.5423 54.6853 75.9057 54.6943 76.2724C54.7032 76.6391 54.8006 76.9982 54.9781 77.3188C55.0054 77.3878 55.0461 77.4507 55.0978 77.5039C55.1494 77.557 55.211 77.5994 55.2791 77.6286C55.3471 77.6577 55.4203 77.6731 55.4942 77.6738C55.5682 77.6744 55.6416 77.6604 55.7102 77.6325C56.0356 77.5375 56.3731 77.4912 56.7119 77.495C57.277 77.495 57.444 77.6711 57.474 78.2297C57.5039 78.7883 57.5039 79.463 57.5296 80.0774C57.5608 80.2768 57.6066 80.4735 57.6666 80.6661C57.9363 80.3395 58.0947 80.1032 58.3088 79.897C58.6298 79.5747 58.8396 79.6005 59.0579 79.9915C59.2035 80.2493 59.272 80.5501 59.4261 80.7993C59.5397 81.0149 59.7119 81.1937 59.9227 81.3149C60.2296 81.4746 60.5833 81.5191 60.92 81.4403C61.2567 81.3615 61.5543 81.1647 61.7593 80.8852C61.9956 80.6394 62.1947 80.3599 62.3501 80.0559C62.4245 79.8773 62.5501 79.7248 62.7108 79.6177C62.8716 79.5107 63.0604 79.4538 63.2533 79.4544C63.7594 79.4422 64.2448 79.2503 64.6233 78.913C65.1569 78.4126 65.5607 77.7889 65.7995 77.0962C66.0382 76.4035 66.1047 75.6627 65.9932 74.9383C65.9076 74.3325 65.6293 74.1649 65.0385 74.3153C64.3322 74.4914 63.6343 74.6891 62.9451 74.9168C62.7046 74.9921 62.4836 75.1197 62.2978 75.2905C62.1121 75.4613 61.9662 75.6712 61.8706 75.9051C61.6608 76.3821 61.481 76.8762 61.2798 77.3618C61.1813 77.5637 61.07 77.7872 60.9544 78.0364ZM48.3168 92.5213C48.254 91.6207 48.4904 90.7246 48.989 89.9732C49.1593 89.7635 49.2609 89.506 49.2801 89.2361C49.2992 88.9662 49.2349 88.6969 49.096 88.465C48.9012 88.1226 48.8327 87.7223 48.9023 87.3342C48.972 86.9461 49.1754 86.595 49.477 86.3423C49.5755 86.2478 49.6739 86.1533 49.7681 86.0544C50.4745 85.3068 50.4188 84.5677 49.5583 83.9919C49.4155 83.9228 49.3039 83.802 49.246 83.6538C49.188 83.5056 49.188 83.3409 49.2458 83.1927C49.3192 82.9524 49.3736 82.7068 49.4085 82.4579C49.4242 82.3 49.3916 82.141 49.3152 82.0021C49.2387 81.8632 49.1219 81.7509 48.9804 81.6802C48.6764 81.4868 48.4667 81.6415 48.2655 81.8435C48.0716 82.0364 47.8887 82.2401 47.7175 82.4536C47.2894 82.9907 47.3322 83.2829 47.8245 83.7427C48.0343 83.9404 48.274 84.1122 48.5609 84.3443C47.2509 86.4927 46.9469 88.9162 46.7971 91.3483L48.3168 92.5213ZM50.8854 32.9316C50.8854 32.9746 50.9111 33.0133 50.9197 33.0519H52.9275C52.829 32.5535 53.133 32.3 53.4626 32.0378C55.0438 30.766 56.6135 29.4883 58.1718 28.205C58.9852 27.5433 58.9723 27.5433 59.6316 28.364C59.8475 28.7266 60.1397 29.0375 60.4878 29.2749C60.6419 28.046 60.7875 26.8815 60.9587 25.5409L50.8854 32.9316ZM64.5162 23.1046L64.3835 23.0272C63.9811 23.3151 63.5915 23.6202 63.1763 23.8866C63.0131 23.9873 62.8755 24.1247 62.7744 24.2881C62.6734 24.4514 62.6116 24.6361 62.5941 24.8276C62.3201 26.6108 62.0632 28.3941 61.7164 30.1644C61.558 30.9593 61.9391 31.3718 62.4913 31.8832L64.5162 23.1046ZM33.299 25.3175L33.2048 25.3432C33.2048 26.2714 33.2048 27.1995 33.2048 28.1234C33.199 28.5108 33.2902 28.8935 33.4702 29.2363C34.3008 30.9121 35.1184 32.5879 35.9404 34.2637C36.0303 34.4441 36.1373 34.6203 36.2272 34.7879C36.7623 34.6332 36.5526 34.3066 36.4541 34.023C35.4838 31.2988 34.5091 28.5774 33.5302 25.8589C33.4446 25.6698 33.3675 25.4936 33.2947 25.3175H33.299ZM38.4919 63.1304C37.2416 63.9966 35.8883 64.7024 34.4634 65.2316V67.0706H36.3257C36.7893 65.6256 37.5231 64.2825 38.4876 63.1132L38.4919 63.1304ZM35.2254 35.6043L33.299 32.0507C33.265 32.1589 33.2392 32.2695 33.2219 32.3816C33.2219 33.473 33.2219 34.5644 33.2219 35.6559C33.2209 35.8372 33.244 36.0178 33.2904 36.193C33.4017 36.6227 33.6201 36.7129 33.9882 36.4809C34.3564 36.2488 34.7631 35.9137 35.2212 35.5871L35.2254 35.6043ZM43.1753 38.6121C43.6034 39.0977 44.0058 39.566 44.4596 39.9871C44.5385 40.061 44.633 40.116 44.7361 40.148C44.8391 40.18 44.948 40.1882 45.0547 40.1719C45.1421 40.1133 45.2148 40.035 45.2668 39.9432C45.3188 39.8515 45.3488 39.7488 45.3544 39.6434C45.3758 38.9172 45.3544 38.191 45.3287 37.4649C45.3287 37.3746 45.2473 37.2844 45.1831 37.1469L43.1753 38.6121ZM67.5344 66.2284C67.6737 66.3591 67.8484 66.4456 68.0365 66.4769C68.2247 66.5083 68.4178 66.4831 68.5918 66.4046C68.9954 66.2777 69.4094 66.1871 69.829 66.1339C70.1536 66.0645 70.4727 65.9711 70.7837 65.8546C70.8946 65.8233 70.9894 65.7508 71.0491 65.6519C71.1087 65.5529 71.1286 65.4349 71.1047 65.3218C71.0874 65.1957 71.0256 65.08 70.9306 64.9957C70.8355 64.9113 70.7136 64.8639 70.5867 64.862C70.0471 64.8188 69.5043 64.836 68.9685 64.9136C68.6377 64.9917 68.3321 65.1529 68.0804 65.3822C67.8288 65.6114 67.6394 65.9012 67.5301 66.2241L67.5344 66.2284ZM38.1537 69.5285C38.1529 70.3639 38.1972 71.1987 38.2864 72.0293C38.5432 71.8016 38.7145 71.7027 38.8172 71.548C39.0898 71.0818 39.3315 70.5981 39.5407 70.1C39.7205 69.6703 39.5407 69.4468 39.1126 69.4426C38.7701 69.4426 38.4662 69.4984 38.1537 69.5285ZM44.8535 90.5447C44.8535 89.8615 44.8963 89.2557 44.8963 88.6885C44.8963 88.4392 44.8749 88.1599 44.5281 88.1384C44.4607 88.1232 44.3909 88.1215 44.3227 88.1333C44.2546 88.1451 44.1895 88.1703 44.131 88.2074C44.0726 88.2446 44.022 88.2928 43.9822 88.3496C43.9423 88.4063 43.914 88.4703 43.8988 88.5381C43.7423 89.1104 43.7116 89.7101 43.8089 90.2955L44.8535 90.5447ZM66.7252 79.6219C66.6585 79.4344 66.5724 79.2544 66.4684 79.0848C66.4432 79.0457 66.4082 79.014 66.3669 78.9927C66.3256 78.9714 66.2796 78.9614 66.2332 78.9635C66.1869 78.9657 66.1419 78.98 66.1028 79.0051C66.0637 79.0301 66.0318 79.0651 66.0103 79.1063C65.7265 79.5423 65.4678 79.9942 65.2355 80.4598C65.1327 80.6747 65.0728 80.9927 65.3339 81.1388C65.4522 81.2109 65.5917 81.24 65.7289 81.2213C65.866 81.2025 65.9926 81.137 66.0874 81.0356C66.4365 80.6416 66.6523 80.1467 66.7038 79.6219H66.7252ZM64.696 82.054C64.5692 81.8668 64.426 81.6913 64.2679 81.5298C64.0839 81.3622 63.8826 81.461 63.72 81.6028C63.4674 81.8306 63.2105 82.0583 62.9793 82.3075C62.9264 82.3515 62.8838 82.4066 62.8545 82.469C62.8253 82.5314 62.8101 82.5995 62.8101 82.6685C62.8101 82.7374 62.8253 82.8055 62.8545 82.8679C62.8838 82.9303 62.9264 82.9855 62.9793 83.0294C63.0183 83.0865 63.0691 83.1347 63.1281 83.1705C63.1871 83.2064 63.2531 83.2292 63.3217 83.2373C63.3902 83.2454 63.4597 83.2388 63.5254 83.2177C63.5911 83.1967 63.6516 83.1618 63.7028 83.1153C63.9438 82.9466 64.174 82.763 64.3921 82.5654C64.5175 82.4105 64.6198 82.2383 64.696 82.054ZM67.8298 72.8371C68.1508 73.2109 68.4505 73.6106 68.8016 73.95C68.8786 74.0057 68.9681 74.0415 69.0621 74.0543C69.1562 74.067 69.252 74.0563 69.3409 74.0231C69.5593 73.9028 69.4694 73.6363 69.3409 73.4774C69.1891 73.2237 68.961 73.025 68.6894 72.9099C68.4178 72.7949 68.1167 72.7694 67.8298 72.8371ZM37.6913 42.8274L37.5501 42.7501L36.6082 43.4462L37.3617 43.8329C37.4901 43.4376 37.5886 43.1282 37.6913 42.8188V42.8274ZM39.4037 42.6985V41.4094L38.7059 41.9251L39.4037 42.6985ZM47.3322 35.5957C47.9101 35.7418 47.9444 35.3894 48.0086 35.0715L47.3322 35.5957Z" fill="white"/>
<path fill-rule="evenodd" clip-rule="evenodd" d="M47.3154 35.5871L47.9918 35.0629C47.9276 35.3808 47.8934 35.7332 47.3154 35.5871Z" fill="white"/>
<path fill-rule="evenodd" clip-rule="evenodd" d="M33.6547 97.6862C28.2949 98.7476 22.6868 95.0221 21.6293 89.7025C21.3925 88.4889 21.3824 87.2417 21.5994 86.0244C21.6744 85.7298 21.7747 85.4422 21.8991 85.165C26.103 89.8057 31.2916 92.7362 37.1224 94.6998C36.7256 95.4373 36.1907 96.091 35.5469 96.6249C35.9635 96.5381 36.3974 96.6199 36.7542 96.8526C38.7748 97.9698 40.9839 98.4811 43.2271 98.8722C45.5161 99.2545 47.8296 99.4699 50.1496 99.5167C50.3035 99.534 50.4565 99.5598 50.6076 99.594C50.522 99.8261 50.4749 100.024 50.3893 100.191C49.8682 101.329 49.0797 102.322 48.0917 103.086C47.1037 103.851 45.9456 104.363 44.7169 104.578C43.2653 104.889 41.764 104.879 40.3162 104.552C38.8685 104.224 37.5087 103.585 36.3304 102.679C34.945 101.654 33.9185 100.214 33.3979 98.5671C33.3189 98.4154 33.3016 98.2389 33.3494 98.0747C33.3973 97.9104 33.5068 97.7712 33.6547 97.6862Z" fill="white"/>
<path fill-rule="evenodd" clip-rule="evenodd" d="M72.7619 98.8335C72.8047 98.9323 72.8432 99.0355 72.916 99.2202C72.4622 99.3277 72.0341 99.4437 71.6017 99.5382C68.6248 100.13 65.581 100.308 62.5559 100.067C61.5156 99.998 60.4796 99.8476 59.4436 99.7015C58.8142 99.6155 58.7329 99.4823 59.0155 98.8937C59.5032 97.757 60.2187 96.7331 61.1175 95.8858C63.6176 93.6643 66.5458 92.9596 69.8079 93.5698C70.5486 93.7116 70.6941 93.9006 70.7455 94.6741C70.7458 94.8809 70.7586 95.0876 70.784 95.2928C70.979 94.0664 71.3316 92.8705 71.8329 91.735C71.9099 91.5932 71.987 91.4471 72.0598 91.3053C72.2096 91.1076 72.3594 90.9057 72.4879 90.7037C73.5936 89.1272 75.1531 87.9278 76.9573 87.2662C78.3388 86.744 79.8642 86.7547 81.2383 87.2963C81.9154 87.5566 82.5686 87.8758 83.1904 88.2502C83.4469 88.4409 83.6785 88.6632 83.8797 88.9119C81.4438 91.576 78.8152 93.8061 75.4032 94.9276C74.9751 95.0694 74.547 95.2542 74.1189 95.4089C73.0786 95.7827 72.0854 96.3155 70.9253 96.337C70.8996 96.6721 71.0109 96.801 71.3106 96.7366L72.9673 96.3585C73.1685 96.3112 73.3655 96.2682 73.5624 96.2167C73.7593 96.1651 73.9905 96.251 73.9905 96.4917C73.9828 96.5741 73.9554 96.6534 73.9107 96.723C73.866 96.7925 73.8053 96.8503 73.7336 96.8913C73.2285 97.0803 72.6976 97.2178 72.1796 97.3725L71.0537 97.7077C71.4763 98.2806 72.08 98.6926 72.7661 98.8765L72.7619 98.8335Z" fill="white"/>
<path fill-rule="evenodd" clip-rule="evenodd" d="M70.9465 52.8951C70.7755 53.1652 70.5466 53.3936 70.2764 53.5636C70.0062 53.7335 69.7016 53.8407 69.3849 53.8774C69.0681 53.914 68.7472 53.8792 68.4456 53.7754C68.144 53.6716 67.8693 53.5015 67.6415 53.2775C67.2874 52.9409 67.0798 52.4777 67.0636 51.9885C67.0636 51.1591 67.4232 50.781 68.2666 50.7939H68.669C68.856 50.1198 68.8925 49.4127 68.776 48.7228C68.1296 48.5208 67.2605 49.0021 67.0636 47.9407C66.7425 48.4392 66.4771 48.8603 66.2074 49.2685C66.1603 49.3372 66.0575 49.363 65.9248 49.449C65.7664 49.2986 65.6038 49.1525 65.4496 49.0193C65.1799 48.74 64.9274 48.4478 64.6491 48.1599C64.2629 47.795 63.7539 47.5894 63.2235 47.5841C62.9976 47.5367 62.7623 47.5763 62.5641 47.6948C62.3658 47.8134 62.2192 48.0024 62.1533 48.2243C62.1045 48.3229 62.0441 48.4152 61.9735 48.4993C60.7448 47.6872 60.6463 47.6829 59.6232 48.3876C59.4733 48.2158 59.3107 48.0396 59.1565 47.8548C59.0377 47.6866 58.9106 47.5246 58.7755 47.3693C58.433 47.0384 58.0863 47.12 57.945 47.5712C57.8037 48.0224 57.7566 48.3704 57.6625 48.7701C57.6368 48.8732 57.6068 48.9806 57.5811 49.0751C56.909 49.0751 56.5922 48.8818 56.4295 48.3189C56.0687 47.1986 56.1374 45.9835 56.6222 44.9114C56.7249 44.7085 56.8711 44.531 57.0503 44.3915C57.0986 44.3415 57.1568 44.3021 57.2212 44.2761C57.2856 44.2501 57.3547 44.2379 57.4241 44.2403C57.4935 44.2427 57.5616 44.2597 57.6241 44.2902C57.6865 44.3207 57.7419 44.364 57.7866 44.4173C58.6428 45.3927 59.6489 44.9372 60.6592 44.847C60.7191 44.3141 60.779 43.8501 60.8347 43.3817C61.0466 43.2965 61.2773 43.2695 61.503 43.3035C61.7287 43.3374 61.9414 43.4312 62.119 43.5751C62.6482 43.9781 63.0413 44.5346 63.2449 45.1692C63.3391 45.4142 63.4504 45.6505 63.6174 46.0286C63.6973 45.8651 63.7605 45.6937 63.8057 45.5173C63.8699 44.8341 63.9213 44.1509 63.977 43.4677C64.0027 43.154 63.977 42.763 64.3237 42.6469C64.6705 42.5309 64.9274 42.8188 65.12 43.0766C65.3458 43.3894 65.5462 43.7199 65.7194 44.0649C65.8349 44.2755 65.9248 44.4946 66.0832 44.8513C66.2331 44.5118 66.3101 44.3099 66.4129 44.1208C66.5884 43.7942 66.7853 43.747 67.0721 43.979C67.4892 44.3042 67.7897 44.7566 67.9284 45.2681C68.1284 46.0009 68.543 46.6565 69.1185 47.1501C69.6622 47.6486 70.2915 48.0568 70.955 48.5595C71.1134 48.3447 71.2633 48.1599 71.3831 47.9579C71.6015 47.6013 71.944 47.5669 72.1794 47.9236C72.2813 48.0749 72.3445 48.249 72.3635 48.4306C72.4767 49.3427 72.3141 50.2679 71.8969 51.0861C71.5886 51.6619 71.2676 51.7392 70.6597 51.4685C70.3857 51.3439 70.0903 51.0861 69.8034 51.447C69.6194 51.6791 69.7221 51.9025 70.1845 52.2678C70.3857 52.5256 70.6896 52.7017 70.9465 52.8951Z" fill="white"/>
<path fill-rule="evenodd" clip-rule="evenodd" d="M76.5378 81.7275C76.4436 82.0798 76.3751 82.2646 76.3451 82.4579C76.3216 82.6391 76.3216 82.8225 76.3451 83.0036C76.5592 84.7954 75.8271 86.3037 74.9281 87.756C74.7832 88.0161 74.5844 88.242 74.3451 88.4184C74.1059 88.5948 73.8317 88.7177 73.5411 88.7787C72.5307 88.9806 71.8929 88.2674 72.2097 87.2834C72.43 86.6263 72.8112 86.0352 73.3185 85.5646C74.2046 84.7267 74.2988 83.7083 74.089 82.5997C74.0034 82.1442 73.8322 82.0583 73.4298 82.2903C73.1297 82.4753 72.8435 82.6821 72.5736 82.9091C72.4584 82.8364 72.3673 82.731 72.3117 82.6064C72.2561 82.4817 72.2384 82.3434 72.261 82.2087C72.2662 81.7553 72.331 81.3045 72.4537 80.8681C72.8433 79.7509 73.3099 78.6594 73.738 77.5508C73.823 77.2976 73.9736 77.0717 74.1745 76.8964C74.3753 76.721 74.619 76.6025 74.8806 76.553C75.1422 76.5036 75.4122 76.525 75.6629 76.615C75.9135 76.705 76.1357 76.8605 76.3066 77.0653C76.8375 77.6282 77.3555 78.2083 77.8306 78.8184C78.4043 79.5532 78.9352 80.3224 79.4703 81.0872C79.7556 81.4704 80.0103 81.8756 80.2323 82.2989C80.4849 82.806 80.3094 83.0896 79.7571 83.2572C79.5603 83.318 79.3534 83.3391 79.1484 83.3192C78.9433 83.2993 78.7443 83.2387 78.5627 83.1411C78.0905 82.8829 77.6344 82.5959 77.1971 82.2817C76.9676 82.1089 76.7475 81.9239 76.5378 81.7275V81.7275Z" fill="white"/>
<path fill-rule="evenodd" clip-rule="evenodd" d="M53.9939 55.0264C53.8046 54.9956 53.6183 54.9481 53.4373 54.8846C52.9377 54.6637 52.3946 54.5594 51.8491 54.5795C50.9929 54.5795 50.1666 54.5408 49.3233 54.5322C48.9194 54.4717 48.5069 54.5425 48.146 54.7342C48.0047 54.8287 47.598 54.6353 47.384 54.4764C47.2794 54.3836 47.2151 54.2535 47.2047 54.1139C47.1943 53.9742 47.2386 53.836 47.3283 53.7287C47.4743 53.4963 47.6755 53.304 47.9139 53.169C48.1523 53.034 48.4203 52.9606 48.6939 52.9553C49.0493 52.9252 49.4046 52.8693 49.7556 52.8263C49.7556 52.1818 49.6486 52.0486 49.1434 52.0658C48.848 52.0786 48.5535 52.1087 48.2616 52.156C48.0221 52.1827 47.7798 52.1603 47.5493 52.0902C47.3188 52.0202 47.1048 51.9039 46.9203 51.7485C46.7358 51.593 46.5846 51.4016 46.4759 51.1858C46.3673 50.9701 46.3033 50.7344 46.288 50.4931C46.2756 50.2027 46.3118 49.9122 46.395 49.6337C46.5106 49.2642 46.7332 49.204 47.0843 49.3802C47.282 49.4913 47.4736 49.6132 47.6579 49.7455C48.1503 50.072 48.1802 50.0634 48.5398 49.6208C48.6878 49.421 48.8572 49.238 49.045 49.0751C49.1477 48.9665 49.2769 48.8866 49.4198 48.8435C49.5628 48.8004 49.7144 48.7956 49.8598 48.8294C50.0052 48.8633 50.1392 48.9347 50.2486 49.0366C50.358 49.1385 50.4389 49.2673 50.4834 49.4103C50.5433 49.5349 50.6033 49.6552 50.6675 49.7755C50.9158 50.2611 51.0956 50.3599 51.5794 50.2568C51.9639 50.151 52.3666 50.1292 52.7602 50.1929C53.1539 50.2567 53.5293 50.4045 53.8611 50.6263C54.5204 51.0861 54.6831 51.4384 54.5461 52.2377C54.4305 52.9123 54.3578 53.5912 54.2465 54.2658C54.1798 54.5249 54.0954 54.779 53.9939 55.0264V55.0264Z" fill="white"/>
<path fill-rule="evenodd" clip-rule="evenodd" d="M65.4841 63.4183C65.3409 63.6577 65.1822 63.8873 65.0089 64.1058C64.1473 65.0206 63.4609 66.0868 62.984 67.2511C62.68 68.0203 62.1663 67.8742 61.8366 67.3714C61.6452 67.0895 61.4804 66.7903 61.3443 66.4777C61.309 66.346 61.2266 66.2321 61.1129 66.1576C60.9992 66.0831 60.8621 66.0532 60.7278 66.0738C59.4821 66.1683 58.6601 65.3777 57.8381 64.63C57.6943 64.48 57.5889 64.2973 57.5307 64.0975C57.4726 63.8978 57.4635 63.6868 57.5042 63.4827C57.5352 63.2221 57.5044 62.9579 57.4144 62.7115C57.3244 62.4651 57.1777 62.2435 56.9862 62.0647C56.6138 61.6651 56.2456 61.2612 55.8817 60.8573C55.7128 60.7025 55.6026 60.4937 55.5698 60.2665C55.537 60.0393 55.5837 59.8077 55.7019 59.6112C55.9973 59.0483 56.2713 58.9323 56.8621 59.16C58.1304 59.6431 59.1569 60.61 59.7175 61.8499C59.8331 62.0991 59.9316 62.3526 60.0429 62.6018C60.2826 63.1604 60.3897 63.1991 60.9804 63.0315C62.4802 62.6241 64.0751 62.7611 65.4841 63.4183V63.4183Z" fill="white"/>
<path fill-rule="evenodd" clip-rule="evenodd" d="M35.3714 50.347C35.3604 50.2604 35.3687 50.1725 35.3957 50.0895C35.4227 50.0066 35.4678 49.9307 35.5276 49.8674C35.5874 49.804 35.6605 49.7548 35.7416 49.7233C35.8227 49.6918 35.9098 49.6789 35.9965 49.6853C37.0588 49.5588 38.1351 49.6272 39.173 49.8872C40.2019 50.2042 41.1023 50.8444 41.7416 51.7134C42.4008 52.6734 42.8662 53.7536 43.1115 54.8932C43.2057 55.2412 43.073 55.4045 42.6834 55.4045C41.686 55.4045 40.6842 55.3658 39.6867 55.3443C39.4916 55.3478 39.2986 55.3024 39.1252 55.2124C38.9519 55.1224 38.8035 54.9906 38.6935 54.8287C38.3948 54.4272 38.1394 53.9951 37.9315 53.5396C37.3991 52.252 36.5108 51.1442 35.3714 50.347V50.347Z" fill="white"/>
<path fill-rule="evenodd" clip-rule="evenodd" d="M68.3311 56.5088L67.9843 56.9643C67.9115 57.0502 67.8345 57.1318 67.7489 57.2264C68.0742 58.1588 68.9989 58.7174 69.3072 59.8045C68.9861 59.7315 68.7678 59.7014 68.5623 59.6412C68.1727 59.5166 67.796 59.3619 67.4021 59.2416C66.8284 59.0654 66.2591 58.9194 65.7496 59.4264C65.5741 59.6026 65.3729 59.5209 65.1845 59.4049C64.9962 59.2889 64.7564 59.1428 64.5681 59.0139C64.2384 59.2631 64.384 59.5381 64.4439 59.7873C64.5084 60.0194 64.518 60.2635 64.4719 60.5C64.4258 60.7364 64.3254 60.9588 64.1785 61.1495C63.9473 61.4674 63.7718 61.4975 63.4379 61.2741C63.2575 61.1337 63.1113 60.954 63.0104 60.7485C62.9095 60.5431 62.8566 60.3172 62.8556 60.0881C62.83 59.8432 62.83 59.594 62.8214 59.392C62.7315 59.3233 62.6972 59.276 62.663 59.2717C61.6441 59.2416 61.2674 58.5541 61.0619 57.6947C60.8093 56.6549 60.8436 56.5818 61.9181 56.642C62.6748 56.7057 63.4303 56.507 64.0586 56.0791C64.5045 55.756 65.0341 55.5694 65.5834 55.542C66.1327 55.5145 66.6781 55.6474 67.1538 55.9244C67.5048 56.1307 67.8901 56.3111 68.3311 56.5088Z" fill="white"/>
<path fill-rule="evenodd" clip-rule="evenodd" d="M46.7161 58.8635C46.859 58.5451 47.0417 58.2462 47.2598 57.9741C47.9492 57.2961 48.7903 56.7937 49.7128 56.5088C50.1964 56.3681 50.7071 56.349 51.1999 56.4532C51.6926 56.5573 52.1522 56.7816 52.5383 57.1061C53.0049 57.467 53.4373 57.8795 54.0794 57.8967C54.1907 57.9244 54.2899 57.9878 54.362 58.0772C54.7259 58.4596 54.4733 59.6499 53.9596 59.796C53.5904 59.8926 53.2028 59.8926 52.8336 59.796C52.1041 59.6169 51.3477 59.5761 50.6032 59.6756C50.329 59.6966 50.0624 59.7765 49.8216 59.9099C49.5808 60.0434 49.3714 60.2273 49.2076 60.4491C49.0578 60.6468 48.8951 60.8401 48.7367 61.0335C48.6491 61.1552 48.5171 61.2372 48.3694 61.2614C48.2217 61.2855 48.0706 61.2499 47.949 61.1624C47.6279 60.9948 47.6493 60.7327 47.705 60.4577C47.7435 60.2815 47.8206 60.1139 47.8762 59.942C48.0389 59.4221 47.919 59.1729 47.4053 59.0096C47.2298 58.9538 47.05 58.9323 46.7161 58.8635Z" fill="white"/>
<path fill-rule="evenodd" clip-rule="evenodd" d="M72.0682 91.3139C71.9954 91.46 71.9184 91.6061 71.8413 91.7436C71.7885 91.7815 71.7384 91.8231 71.6915 91.8682C71.5131 92.1234 71.2728 92.3289 70.9933 92.465C70.7138 92.6012 70.4044 92.6636 70.0942 92.6464C69.784 92.6292 69.4833 92.533 69.2204 92.3667C68.9576 92.2005 68.7413 91.9698 68.592 91.6963C68.1394 90.9999 67.842 90.2136 67.7201 89.3911C67.5982 88.5687 67.6547 87.7295 67.8856 86.931C69.17 86.3252 70.1546 87.0213 70.8267 87.8248C71.3062 88.4006 71.8071 88.9592 72.2394 89.5436C72.3498 89.7825 72.3784 90.0514 72.3208 90.3084C72.2629 90.6497 72.1785 90.9859 72.0682 91.3139Z" fill="white"/>
<path fill-rule="evenodd" clip-rule="evenodd" d="M63.3477 54.9791C62.149 54.9791 61.4213 54.4463 61.0959 53.4107C60.9818 53.0657 60.9113 52.7077 60.8861 52.3451C60.8647 51.9712 61.1002 51.7951 61.4555 51.9154C61.7121 52.0104 61.9901 52.0314 62.2579 51.9759C62.5258 51.9205 62.7728 51.7908 62.971 51.6017C63.2407 51.3912 63.5147 51.172 63.7972 51.0001C64.0226 50.8242 64.2882 50.7076 64.5699 50.6609C64.8515 50.6142 65.1404 50.639 65.4101 50.7329C65.6798 50.8269 65.9219 50.987 66.1142 51.1988C66.3065 51.4105 66.4431 51.6672 66.5114 51.9455C66.6381 52.3642 66.6228 52.8133 66.4678 53.2223C66.3129 53.6313 66.027 53.9772 65.6552 54.2056C64.9718 54.672 64.1732 54.9397 63.3477 54.9791V54.9791Z" fill="white"/>
<path fill-rule="evenodd" clip-rule="evenodd" d="M79.68 71.2257C79.4807 71.2071 79.2831 71.1726 79.0892 71.1226C76.56 70.3235 73.9719 69.7258 71.3491 69.3351C71.2977 69.3351 71.2592 69.2406 71.165 69.1417C71.3312 68.8055 71.52 68.4811 71.7301 68.1706C71.7946 68.1152 71.8695 68.0733 71.9504 68.0474C72.0313 68.0216 72.1165 68.0124 72.2011 68.0202C72.9717 68.0589 73.7422 68.1363 74.5128 68.1835C75.2834 68.2308 76.0968 68.2781 76.8888 68.2995C77.0219 68.2812 77.1574 68.3038 77.2774 68.3644C77.3974 68.425 77.4963 68.5208 77.5609 68.639C78.0049 69.5175 78.6669 70.2663 79.4831 70.8132C79.5829 70.897 79.6696 70.9955 79.7399 71.1054L79.68 71.2257Z" fill="white"/>
<path fill-rule="evenodd" clip-rule="evenodd" d="M54.9356 71.518C54.6317 70.7316 54.3491 70.0441 54.0794 69.3394C54.0284 69.1971 54.0307 69.0411 54.0858 68.9004C54.1409 68.7596 54.2452 68.6438 54.3791 68.5746C54.5717 68.45 54.7729 68.3468 55.0555 68.1836C55.0255 67.7796 54.9827 67.3242 54.9656 66.8945C54.9411 66.6494 54.9512 66.402 54.9956 66.1597C55.0217 66.0896 55.0647 66.027 55.1207 65.9776C55.1767 65.9281 55.244 65.8932 55.3166 65.8761C55.3888 65.8841 55.458 65.9088 55.519 65.9483C55.5799 65.9878 55.6308 66.0411 55.6677 66.1038C55.7727 66.3039 55.8368 66.5231 55.856 66.7484C55.9202 67.6078 55.9502 68.4671 56.0102 69.3265C56.0386 69.5156 56.0177 69.7089 55.9494 69.8874C55.8811 70.0659 55.7678 70.2235 55.6206 70.3449C55.3437 70.7053 55.1136 71.0994 54.9356 71.518Z" fill="white"/>
<path fill-rule="evenodd" clip-rule="evenodd" d="M51.0698 70.1558C51.126 69.4989 51.3485 68.8673 51.7163 68.321C51.7821 68.1972 51.8901 68.1012 52.0206 68.0507C52.1511 68.0002 52.2953 67.9986 52.4269 68.046C52.7608 68.1706 53.1376 68.2695 53.2232 68.7078C53.2232 68.7507 53.2232 68.798 53.2232 68.841C53.3773 70.13 53.0605 70.4437 51.7462 70.2546L51.0698 70.1558Z" fill="white"/>
<path fill-rule="evenodd" clip-rule="evenodd" d="M64.1056 68.4027C63.9374 68.0909 63.8796 67.7311 63.9419 67.3821C64.0041 67.0332 64.1826 66.7158 64.4481 66.4819C64.5931 66.4067 64.7525 66.3632 64.9156 66.3544C65.0786 66.3457 65.2417 66.3718 65.3939 66.4312C65.5461 66.4905 65.6841 66.5816 65.7985 66.6986C65.913 66.8155 66.0013 66.9555 66.0578 67.1093C66.0801 67.2351 66.057 67.3648 65.9927 67.475C65.9284 67.5853 65.8269 67.6689 65.7067 67.7109C65.1801 67.9644 64.6365 68.1749 64.1056 68.4027Z" fill="white"/>
<path fill-rule="evenodd" clip-rule="evenodd" d="M63.8018 86.6517C63.8018 86.1447 64.0244 85.9513 64.3412 86.0501C64.6269 86.1768 64.8674 86.3877 65.031 86.6547C65.1946 86.9217 65.2736 87.2324 65.2573 87.5454C65.2302 87.7239 65.1479 87.8893 65.0219 88.0181C64.8446 88.1816 64.6158 88.2774 64.3754 88.2888C64.2342 88.2888 64.0672 87.9923 64.0158 87.799C63.9238 87.4207 63.8523 87.0377 63.8018 86.6517Z" fill="white"/>
<path fill-rule="evenodd" clip-rule="evenodd" d="M58.1933 69.9453C57.8346 69.4227 57.6574 68.7961 57.6892 68.1623C57.7209 67.5285 57.9597 66.9228 58.3688 66.439C58.4715 66.5765 58.6514 66.7097 58.6428 66.8257C58.5614 67.7968 58.4459 68.7636 58.3346 69.7304C58.326 69.7863 58.2746 69.8292 58.1933 69.9453Z" fill="white"/>
<path fill-rule="evenodd" clip-rule="evenodd" d="M60.3211 67.6249C60.6122 67.6249 61.0788 68.016 61.0788 68.2695C61.0454 68.4963 60.9361 68.705 60.7688 68.8612C60.6015 69.0174 60.3863 69.1118 60.1584 69.1289C59.8159 69.1289 59.6704 68.9699 59.6747 68.5574C59.6789 68.1449 59.9872 67.6292 60.3211 67.6249Z" fill="white"/>
<path fill-rule="evenodd" clip-rule="evenodd" d="M67.0422 69.5156C67.0422 69.7734 66.6142 70.1172 66.3016 70.1215C66.1881 70.1215 66.0792 70.0762 65.9989 69.9956C65.9186 69.915 65.8735 69.8057 65.8735 69.6918C65.8735 69.3051 66.2631 68.8324 66.5371 68.8324C66.6731 68.8925 66.7913 68.9871 66.8798 69.1069C66.9684 69.2266 67.0244 69.3675 67.0422 69.5156Z" fill="white"/>
<path fill-rule="evenodd" clip-rule="evenodd" d="M74.4058 37.0696L73.3398 36.541L82.5783 18.6959L83.7898 19.0139C80.6518 25.0511 77.5395 31.0367 74.4058 37.0696Z" fill="white"/>
<path fill-rule="evenodd" clip-rule="evenodd" d="M79.0034 39.927L78.0615 39.2954C81.5591 34.0402 85.0396 28.8109 88.55 23.53C88.7727 23.6331 88.9781 23.7147 89.1708 23.8136C89.3634 23.9124 89.5176 24.0112 89.7573 24.1487L79.0034 39.927Z" fill="white"/>
<path fill-rule="evenodd" clip-rule="evenodd" d="M94.1584 29.9925L95.1901 30.6456L83.5328 43.8973L82.7366 43.0379L94.1584 29.9925Z" fill="white"/>
<path fill-rule="evenodd" clip-rule="evenodd" d="M97.9771 36.1328L98.889 36.9922C94.959 40.5586 91.0333 44.1165 87.0605 47.713L86.3027 46.7591L97.9771 36.1328Z" fill="white"/>
<path fill-rule="evenodd" clip-rule="evenodd" d="M102.224 47.9536L102.875 48.9677L91.8939 55.2842L91.2046 54.0853L102.224 47.9536Z" fill="white"/>
<path fill-rule="evenodd" clip-rule="evenodd" d="M89.599 51.1634L88.9141 50.2482L100.499 41.5942L101.248 42.4063L89.599 51.1634Z" fill="white"/>
<path fill-rule="evenodd" clip-rule="evenodd" d="M66.9095 33.8726L65.7065 33.4902C66.6484 29.9925 67.5859 26.5335 68.5406 23.01L69.8249 23.4397C69.4268 25.2057 68.8702 26.9073 68.395 28.6304C67.9198 30.3534 67.4232 32.0851 66.9095 33.8726Z" fill="white"/>
<path fill-rule="evenodd" clip-rule="evenodd" d="M74.8681 25.6999L76.2124 26.1812L71.9313 35.9352L70.9253 35.4539C72.2396 32.2054 73.5367 29.0085 74.8681 25.6999Z" fill="white"/>
<path fill-rule="evenodd" clip-rule="evenodd" d="M93.5761 59.044L93.1479 57.9612L103.225 53.3291C103.405 53.6471 103.585 53.9521 103.812 54.3432L93.5761 59.044Z" fill="white"/>
<path fill-rule="evenodd" clip-rule="evenodd" d="M77.2226 38.7797C76.9786 38.6293 76.7945 38.5262 76.6447 38.4145C76.4948 38.3028 76.3621 38.1954 76.2166 38.0621C77.9076 35.1531 79.59 32.2699 81.2896 29.3437L82.3727 29.9152C80.6346 32.8758 78.9521 35.7934 77.2226 38.7797Z" fill="white"/>
<path fill-rule="evenodd" clip-rule="evenodd" d="M81.5038 42.0325L80.562 41.2633C82.5184 38.6852 84.4578 36.1586 86.4356 33.559L87.5487 34.1305L81.5038 42.0325Z" fill="white"/>
<path fill-rule="evenodd" clip-rule="evenodd" d="M103.564 58.9194C103.744 59.2803 103.898 59.5768 104.095 59.9678L94.7962 63.3581C94.6849 63.0272 94.5822 62.7179 94.458 62.3311L103.564 58.9194Z" fill="white"/>
<path fill-rule="evenodd" clip-rule="evenodd" d="M85.3479 45.629L84.5859 44.8728L90.8405 38.4016L91.8594 39.2868L85.3479 45.629Z" fill="white"/>
<path fill-rule="evenodd" clip-rule="evenodd" d="M94.9762 44.1337L88.4476 49.4146L87.707 48.4048L94.1842 43.1497L94.9762 44.1337Z" fill="white"/>
<path fill-rule="evenodd" clip-rule="evenodd" d="M95.5199 67.3843C95.4471 66.8902 95.3958 66.5249 95.3315 66.0738L102.866 64.269L103.294 65.4636L95.5199 67.3843Z" fill="white"/>
<path fill-rule="evenodd" clip-rule="evenodd" d="M90.7721 53.1271C90.558 52.7447 90.3739 52.4138 90.1685 52.0357L96.9282 47.7388L97.6132 48.6325L90.7721 53.1271Z" fill="white"/>
<path fill-rule="evenodd" clip-rule="evenodd" d="M92.8569 57.0803L92.2832 56.1307L99.531 52.4224L100.143 53.3377L92.8569 57.0803Z" fill="white"/>
<path fill-rule="evenodd" clip-rule="evenodd" d="M96.0548 69.8292L102.626 69.3995L102.742 70.6886L96.1233 71.1183C96.0051 70.6991 95.9817 70.2587 96.0548 69.8292V69.8292Z" fill="white"/>
<path fill-rule="evenodd" clip-rule="evenodd" d="M95.16 65.296C95.0744 64.8663 95.0059 64.5441 94.916 64.1273C97.1122 63.4484 99.3255 62.9026 101.582 62.2495C101.65 62.6792 101.71 63.0316 101.774 63.4441L95.16 65.296Z" fill="white"/>
<path fill-rule="evenodd" clip-rule="evenodd" d="M94.3681 61.3471C94.2012 60.9819 94.0727 60.694 93.8972 60.3159L100.781 57.6217C100.965 57.9268 101.124 58.1975 101.325 58.5413L94.3681 61.3471Z" fill="white"/>
<path fill-rule="evenodd" clip-rule="evenodd" d="M101.706 67.0921L101.838 68.3511L95.7637 69.2105C95.738 68.7808 95.7123 68.4413 95.6824 67.9902L101.706 67.0921Z" fill="white"/>
<path fill-rule="evenodd" clip-rule="evenodd" d="M101.192 71.548V72.8715C100.734 73.0434 97.1763 73.2324 96.2217 73.1293V71.8961L101.192 71.548Z" fill="white"/>
<path fill-rule="evenodd" clip-rule="evenodd" d="M95.9692 78.247C95.9906 77.7485 96.0121 77.3446 96.0377 76.8419L99.2485 76.9665V78.2555L95.9692 78.247Z" fill="white"/>
<path fill-rule="evenodd" clip-rule="evenodd" d="M97.472 83.2829L95.126 83.0165C95.1602 82.6771 95.1902 82.372 95.2287 81.9982L97.7331 82.2173C97.6304 82.6169 97.5448 82.9564 97.4549 83.2958L97.472 83.2829Z" fill="white"/>
<path fill-rule="evenodd" clip-rule="evenodd" d="M7.38184 40.3008L8.14813 39.0633L19.9895 48.7743C19.7754 49.1009 19.5614 49.3974 19.3516 49.7626L7.38184 40.3008Z" fill="white"/>
<path fill-rule="evenodd" clip-rule="evenodd" d="M5.18994 46.5572L5.80213 45.3927L17.2924 53.0154L16.8215 54.0123L5.18994 46.5572Z" fill="white"/>
<path fill-rule="evenodd" clip-rule="evenodd" d="M4.00854 53.0713L4.43665 51.8209L15.1392 57.4842L14.6084 58.5541L4.00854 53.0713Z" fill="white"/>
<path fill-rule="evenodd" clip-rule="evenodd" d="M3.76465 59.0053C3.84171 58.6186 3.91448 58.2705 4.00438 57.8279L13.6581 61.5147C13.5725 61.867 13.4997 62.1721 13.4012 62.5717L3.76465 59.0053Z" fill="white"/>
<path fill-rule="evenodd" clip-rule="evenodd" d="M3.8501 64.1315C3.95712 63.6632 4.03846 63.2936 4.13692 62.8425L12.699 65.253C12.6519 65.4808 12.6219 65.6527 12.5748 65.8245C12.5277 65.9964 12.4678 66.1597 12.395 66.3831L3.8501 64.1315Z" fill="white"/>
<path fill-rule="evenodd" clip-rule="evenodd" d="M18.1144 51.9627L10.9736 47.5712L11.5986 46.3208L18.4483 50.8712C18.3541 51.2279 18.2514 51.5459 18.1144 51.9627Z" fill="white"/>
<path fill-rule="evenodd" clip-rule="evenodd" d="M15.7044 56.2811L9.10303 52.6416L9.77941 51.6275L16.201 55.2369L15.7044 56.2811Z" fill="white"/>
<path fill-rule="evenodd" clip-rule="evenodd" d="M11.9286 69.8852C11.9029 70.2934 11.8815 70.6242 11.8601 71.0195L4.79639 69.9797C4.8392 69.7047 4.86916 69.507 4.90341 69.3137C4.93766 69.1203 4.96335 68.957 5.01044 68.6906C7.33076 69.0258 9.56972 69.4898 11.9286 69.8852Z" fill="white"/>
<path fill-rule="evenodd" clip-rule="evenodd" d="M14.1802 59.2073L13.8206 60.4963C11.7871 59.667 9.81355 58.8033 7.82715 57.9182L8.25525 56.7236L14.1802 59.2073Z" fill="white"/>
<path fill-rule="evenodd" clip-rule="evenodd" d="M7.17212 62.9069C7.29199 62.4429 7.39044 62.0776 7.51031 61.6179L13.2041 63.1819C13.0928 63.6632 12.9986 64.0757 12.8787 64.5741L7.17212 62.9069Z" fill="white"/>
<path fill-rule="evenodd" clip-rule="evenodd" d="M6.27734 74.7063V73.3484C8.12675 73.3871 9.9462 73.5332 11.8084 73.6621V75.0157C9.95048 74.9856 8.161 74.8051 6.27734 74.7063Z" fill="white"/>
<path fill-rule="evenodd" clip-rule="evenodd" d="M6.92822 67.8956C6.95819 67.423 6.97959 67.0663 7.00528 66.6066L12.3908 67.5003C12.3138 67.9042 12.2453 68.248 12.1682 68.6648L6.92822 67.8956Z" fill="white"/>
<path fill-rule="evenodd" clip-rule="evenodd" d="M12.0396 78.0621C12.0867 78.4317 12.1338 78.7883 12.1894 79.2309L7.98975 79.4114V78.0621H12.0396Z" fill="white"/>
<path fill-rule="evenodd" clip-rule="evenodd" d="M7.57031 71.2386L11.8257 71.634V72.691L7.57031 72.4805V71.2386Z" fill="white"/>
<path fill-rule="evenodd" clip-rule="evenodd" d="M11.8383 75.6258V76.8805C10.6653 76.8805 9.52227 76.8805 8.33643 76.8805V75.7461L11.8383 75.6258Z" fill="white"/>
<path fill-rule="evenodd" clip-rule="evenodd" d="M10.0149 81.4868C9.95068 80.9798 9.90357 80.5759 9.83936 80.0903H12.3652C12.4337 80.3868 12.515 80.7263 12.6092 81.1388L10.0149 81.4868Z" fill="white"/>
<path fill-rule="evenodd" clip-rule="evenodd" d="M12.5276 81.9165C12.6346 82.286 12.7288 82.604 12.8487 82.9993L10.143 83.386C10.0446 83.0208 9.95468 82.6814 9.84766 82.2689C10.721 82.0497 11.6114 82.054 12.5276 81.9165Z" fill="white"/>
<path fill-rule="evenodd" clip-rule="evenodd" d="M12.8402 83.4935C12.9901 83.8587 13.1185 84.1724 13.2683 84.5763L11.77 85.006C11.6544 84.5763 11.5516 84.1853 11.4275 83.7169L12.8402 83.4935Z" fill="white"/>
<path fill-rule="evenodd" clip-rule="evenodd" d="M14.146 87.4079L13.3412 87.5626L12.896 86.815L13.7522 86.5314L14.146 87.4079Z" fill="white"/>
</svg>
